# https://github.com/mikedh/trimesh
v 0.08534813 -0.05078499 -0.33203573
v 0.08534813 -0.04744146 -0.32244773
v 0.08534813 -0.05066558 -0.33232159
v 0.12826029 -0.08744444 -0.33205028
v 0.12826029 -0.08744444 -0.32237503
v 0.08534813 -0.03780890 -0.31718133
v 0.08534813 -0.04690411 -0.33993773
v 0.13762256 -0.08744444 -0.34035439
v 0.12949052 -0.08744444 -0.32175491
v 0.08534813 -0.03755017 -0.31707960
v 0.14879891 -0.08744444 -0.31253025
v 0.08534813 -0.04674489 -0.34000557
v 0.11124556 -0.05464597 -0.34797538
v 0.14866338 -0.08744444 -0.34341150
v 0.11717778 -0.06137285 -0.34657038
v 0.12393363 -0.06324363 -0.34766048
v 0.15906823 -0.08744444 -0.31097504
v 0.17125586 -0.08744444 -0.31009328
v 0.19065808 -0.08744444 -0.30889175
v 0.19185704 -0.08744444 -0.30882876
v 0.18467373 -0.00106984 -0.31619781
v 0.14867380 0.11587422 -0.32813078
v 0.08567132 0.00366684 -0.32118320
v 0.08534813 0.00364694 -0.32124619
v 0.08534813 -0.03832635 -0.34308690
v 0.11717778 -0.05611872 -0.34807229
v 0.13092927 -0.06525373 -0.34794631
v 0.08534813 -0.00606523 -0.34859068
v 0.08534813 -0.00578661 -0.34862460
v 0.08594239 -0.00642347 -0.34863430
v 0.15381368 0.09272822 -0.35831919
v 0.15578413 -0.08744444 -0.34414309
v 0.19185704 -0.08744444 -0.34599866
v 0.19185704 0.04575954 -0.32336341
v 0.18569545 -0.00106984 -0.31619781
v 0.15916206 0.11587422 -0.32789821
v 0.15840098 0.11587422 -0.32790791
v 0.13759129 0.11587422 -0.33010749
v 0.08534813 0.01405567 -0.32400293
v 0.17014032 -0.06995060 -0.34829515
v 0.18015941 -0.07604061 -0.34802385
v 0.17395612 -0.07554306 -0.34792209
v 0.16980670 -0.08744444 -0.34491826
v 0.08534813 0.00366684 -0.34862945
v 0.15381368 0.09316606 -0.35831919
v 0.15419942 0.09272822 -0.35831919
v 0.19185704 -0.07647846 -0.34808196
v 0.19065808 -0.07645855 -0.34807714
v 0.19139830 -0.08744444 -0.34598415
v 0.19185704 0.04649591 -0.32371222
v 0.17998217 0.11587422 -0.33245724
v 0.17859555 0.11587422 -0.33174020
v 0.16966073 0.11587422 -0.32884781
v 0.16852433 0.11587422 -0.32862495
v 0.13528721 0.11587422 -0.33152219
v 0.08534813 0.01461293 -0.32419672
v 0.19065808 -0.08744444 -0.34595992
v 0.18693611 -0.08744444 -0.34581942
v 0.18015941 -0.08744444 -0.34548027
v 0.08534813 0.00394547 -0.34862945
v 0.14965382 0.09726587 -0.35711768
v 0.14867380 0.10864981 -0.35570298
v 0.15916206 0.10864981 -0.35676883
v 0.15419942 0.09316606 -0.35831919
v 0.15828629 0.09726587 -0.35783472
v 0.19185704 0.03515177 -0.35193365
v 0.19185704 0.05143160 -0.32622188
v 0.18211944 0.11587422 -0.34252974
v 0.13109607 0.11587422 -0.33470526
v 0.08534813 0.02106117 -0.33205028
v 0.08534813 0.00422409 -0.34861008
v 0.13817513 0.10864981 -0.35220011
v 0.14087538 0.11587422 -0.35168657
v 0.14867380 0.11587422 -0.35426888
v 0.15195790 0.11587422 -0.35460803
v 0.16966073 0.10864981 -0.35573687
v 0.15916206 0.11587422 -0.35514582
v 0.16966073 0.11587422 -0.35423496
v 0.19185704 0.04446591 -0.35170594
v 0.19185704 0.05358101 -0.33195822
v 0.19185704 0.05372033 -0.34261210
v 0.19185704 0.05344170 -0.34345027
v 0.19185704 0.05157091 -0.34853739
v 0.19185704 0.04573963 -0.35150247
v 0.17781363 0.11587422 -0.35047051
v 0.13086672 0.11587422 -0.33683217
v 0.08534813 0.02024519 -0.33703563
v 0.13104396 0.11587422 -0.34295610
v 0.08534813 0.00925930 -0.34768470
v 0.13785194 0.11587422 -0.35067397
v 0.08534813 0.01652352 -0.34286404
v 0.13139842 0.11587422 -0.34472447
v 0.08534813 0.01513038 -0.34402195
v 0.13267036 0.11503834 -0.34810136
v 0.13377549 0.11587422 -0.34852769
v 0.13231588 0.11587422 -0.34700641
f 1 2 6
f 1 6 10
f 1 10 24
f 1 24 39
f 1 39 56
f 1 56 70
f 1 70 87
f 1 87 91
f 1 91 93
f 1 93 89
f 1 89 71
f 1 71 60
f 1 60 44
f 1 44 29
f 1 29 28
f 1 28 25
f 1 25 12
f 1 12 7
f 1 7 3
f 1 3 4
f 1 4 5
f 1 5 2
f 2 5 6
f 3 7 4
f 4 8 14
f 4 14 32
f 4 32 43
f 4 43 59
f 4 59 58
f 4 58 57
f 4 57 49
f 4 49 33
f 4 33 20
f 4 20 19
f 4 19 18
f 4 18 17
f 4 17 11
f 4 11 9
f 4 9 5
f 4 7 8
f 5 9 6
f 6 9 11
f 6 11 10
f 7 12 13
f 7 13 8
f 8 13 15
f 8 15 16
f 8 16 14
f 10 11 17
f 10 17 18
f 10 18 19
f 10 19 20
f 10 20 21
f 10 21 22
f 10 22 23
f 10 23 24
f 12 25 13
f 13 26 27
f 13 27 16
f 13 16 15
f 13 25 28
f 13 28 29
f 13 29 30
f 13 30 31
f 13 31 26
f 14 16 27
f 14 27 32
f 20 33 47
f 20 47 66
f 20 66 79
f 20 79 84
f 20 84 83
f 20 83 82
f 20 82 81
f 20 81 80
f 20 80 67
f 20 67 50
f 20 50 34
f 20 34 35
f 20 35 21
f 21 35 36
f 21 36 37
f 21 37 22
f 22 37 36
f 22 36 54
f 22 54 53
f 22 53 52
f 22 52 51
f 22 51 68
f 22 68 85
f 22 85 78
f 22 78 77
f 22 77 75
f 22 75 74
f 22 74 73
f 22 73 90
f 22 90 95
f 22 95 96
f 22 96 92
f 22 92 88
f 22 88 86
f 22 86 69
f 22 69 55
f 22 55 38
f 22 38 23
f 23 38 24
f 24 38 39
f 26 31 27
f 27 40 41
f 27 41 42
f 27 42 43
f 27 43 32
f 27 31 40
f 29 44 31
f 29 31 30
f 31 45 64
f 31 64 46
f 31 46 47
f 31 47 48
f 31 48 41
f 31 41 40
f 31 44 60
f 31 60 45
f 33 49 41
f 33 41 48
f 33 48 47
f 34 50 51
f 34 51 52
f 34 52 53
f 34 53 54
f 34 54 35
f 35 54 36
f 38 55 56
f 38 56 39
f 41 49 57
f 41 57 42
f 42 57 58
f 42 58 59
f 42 59 43
f 45 61 62
f 45 62 63
f 45 63 64
f 45 60 61
f 46 64 65
f 46 65 66
f 46 66 47
f 50 67 51
f 51 67 68
f 55 69 56
f 56 69 70
f 60 71 61
f 61 71 62
f 62 72 73
f 62 73 74
f 62 74 75
f 62 75 63
f 62 71 72
f 63 76 65
f 63 65 64
f 63 75 77
f 63 77 78
f 63 78 76
f 65 76 66
f 66 76 79
f 67 80 68
f 68 81 82
f 68 82 83
f 68 83 84
f 68 84 85
f 68 80 81
f 69 86 70
f 70 86 88
f 70 88 87
f 71 89 72
f 72 90 73
f 72 89 90
f 76 78 85
f 76 85 79
f 79 85 84
f 87 88 92
f 87 92 91
f 89 93 94
f 89 94 95
f 89 95 90
f 91 92 96
f 91 96 93
f 93 96 94
f 94 96 95

