# https://github.com/mikedh/trimesh
v 0.28664281 -0.21316650 -0.19092205
v 0.28465293 -0.21269280 -0.19092205
v 0.28948476 -0.21316650 -0.19092205
v 0.28820409 -0.19106509 0.11578382
v 0.28089252 -0.21125817 -0.19092205
v 0.28290794 -0.18972520 0.11578382
v 0.29346457 -0.21296349 -0.19092205
v 0.29222980 -0.19097034 0.11578382
v 0.28077517 -0.21120403 -0.19092205
v 0.28217829 -0.18931916 0.11578382
v 0.29881685 -0.21041906 -0.19092205
v 0.29721985 -0.18900788 0.11578382
v 0.29491359 -0.19000941 0.11578382
v 0.27674949 -0.20616930 -0.19092205
v 0.27695868 -0.18508295 0.11578382
v 0.29978119 -0.20968819 -0.19092205
v 0.30305685 -0.18443330 0.11578382
v 0.27526983 -0.20262333 -0.19092205
v 0.27361668 -0.17482399 0.11578382
v 0.30307216 -0.20547905 -0.19092205
v 0.30413854 -0.18121215 0.11578382
v 0.27340239 -0.19581560 -0.18503772
v 0.27363198 -0.19581560 -0.19092205
v 0.25379941 -0.11222813 0.07756568
v 0.25379941 -0.10523092 0.11578382
v 0.30493450 -0.19581560 -0.19092205
v 0.30489876 -0.19581560 -0.18503772
v 0.30585290 -0.17482399 0.11578382
v 0.25379941 -0.11600418 -0.12205133
v 0.25379941 -0.10881749 -0.19092205
v 0.25379941 -0.11270182 0.06705794
v 0.25379941 -0.11442067 -0.01706402
v 0.25379941 -0.08285882 0.11578382
v 0.30317420 -0.16415901 -0.19092205
v 0.30372013 -0.16432142 -0.18503772
v 0.30589370 -0.15381885 -0.03801945
v 0.30591924 -0.15381885 -0.02754173
v 0.30122512 -0.11628840 0.09536879
v 0.30167414 -0.12953842 0.11578382
v 0.25379941 -0.08183021 -0.19092205
v 0.25734549 -0.08141065 0.11578382
v 0.25379941 -0.07747219 0.07741556
v 0.29696472 -0.09084402 -0.19092205
v 0.30326604 -0.15381885 -0.17452997
v 0.30267928 -0.14334335 -0.16402225
v 0.30097513 -0.11692450 -0.13823325
v 0.30122512 -0.11628840 0.09029505
v 0.29726575 -0.09084402 -0.01706402
v 0.29722495 -0.09084402 -0.00655628
v 0.29688818 -0.09084402 0.05643011
v 0.29679633 -0.09084402 0.06693785
v 0.29635245 -0.09084402 0.11578382
v 0.25379941 -0.07805416 -0.11154359
v 0.26417744 -0.07850079 -0.19092205
v 0.26417744 -0.07867674 0.11578382
v 0.25379941 -0.07661953 0.06693785
v 0.26784598 -0.07760753 0.11578382
v 0.27467796 -0.07563153 0.11578382
v 0.30137820 -0.12596538 -0.15351450
v 0.29503097 -0.08549799 -0.19092205
v 0.29350027 -0.08096402 -0.01706402
v 0.29347987 -0.08099109 -0.00655628
v 0.29317883 -0.08141065 0.11578382
v 0.29350027 -0.08128885 -0.19092205
v 0.26417744 -0.07659246 -0.11154359
v 0.27467286 -0.07583454 -0.19092205
v 0.26417744 -0.07584808 0.06693785
v 0.27256050 -0.07521197 0.03541463
v 0.27199924 -0.07526611 -0.02754173
v 0.27201457 -0.07527964 -0.03801945
v 0.27225946 -0.07529318 -0.05741373
v 0.27277479 -0.07530671 -0.08005041
v 0.27309115 -0.07530671 -0.09052812
v 0.27346360 -0.07530671 -0.10103586
v 0.27834650 -0.07583454 0.11578382
v 0.28002005 -0.07507663 0.06477626
v 0.27931594 -0.07507663 0.06477626
v 0.27536167 -0.07518490 0.06771843
v 0.27342279 -0.07519844 0.05643011
v 0.29349007 -0.08096402 -0.02754173
v 0.28668872 -0.07572627 -0.02754173
v 0.28660198 -0.07571274 -0.01706402
v 0.28796429 -0.07804063 0.11578382
v 0.28983173 -0.07904216 -0.19092205
v 0.28663261 -0.07576687 -0.04852719
v 0.28670402 -0.07575334 -0.03801945
v 0.27395852 -0.07533378 -0.11154359
v 0.27467286 -0.07579394 -0.18503772
v 0.27964248 -0.07507663 -0.11991976
v 0.28005576 -0.07507663 -0.11991976
v 0.28054048 -0.07602403 -0.19092205
v 0.27287683 -0.07519844 0.04592237
v 0.27725971 -0.07490068 -0.03801945
v 0.27737196 -0.07491422 -0.04852719
v 0.27775464 -0.07495482 -0.06954266
v 0.27803017 -0.07498189 -0.08005041
v 0.27834140 -0.07500896 -0.09052812
v 0.27871384 -0.07503602 -0.10103586
v 0.27750971 -0.07492775 -0.05741373
v 0.28516315 -0.07624057 0.11578382
v 0.28644893 -0.07573981 -0.00655628
v 0.28070376 -0.07499542 0.02493692
v 0.27768830 -0.07499542 0.02493692
v 0.27781074 -0.07502249 0.03541463
v 0.27724951 -0.07491422 -0.02754173
v 0.28145378 -0.07490068 -0.03801945
v 0.28143847 -0.07491422 -0.02754173
v 0.28516825 -0.07618643 -0.19092205
v 0.28208138 -0.07504956 -0.05741373
v 0.28138234 -0.07491422 -0.04852719
v 0.28651013 -0.07579394 -0.05903492
v 0.28108640 -0.07495482 -0.06954266
v 0.27751481 -0.07492775 -0.05744375
v 0.28128029 -0.07492775 -0.05741373
v 0.28127519 -0.07492775 -0.05744375
f 1 2 5
f 1 5 9
f 1 9 14
f 1 14 18
f 1 18 23
f 1 23 30
f 1 30 40
f 1 40 54
f 1 54 66
f 1 66 91
f 1 91 108
f 1 108 84
f 1 84 64
f 1 64 60
f 1 60 43
f 1 43 34
f 1 34 26
f 1 26 20
f 1 20 16
f 1 16 11
f 1 11 7
f 1 7 3
f 1 3 4
f 1 4 2
f 2 4 6
f 2 6 5
f 3 7 8
f 3 8 4
f 4 8 13
f 4 13 12
f 4 12 17
f 4 17 21
f 4 21 28
f 4 28 39
f 4 39 52
f 4 52 63
f 4 63 83
f 4 83 100
f 4 100 75
f 4 75 58
f 4 58 57
f 4 57 55
f 4 55 41
f 4 41 33
f 4 33 25
f 4 25 19
f 4 19 15
f 4 15 10
f 4 10 6
f 5 6 9
f 6 10 9
f 7 11 12
f 7 12 13
f 7 13 8
f 9 10 15
f 9 15 14
f 11 16 12
f 12 16 17
f 14 15 18
f 15 19 18
f 16 20 17
f 17 20 21
f 18 22 23
f 18 19 24
f 18 24 22
f 19 25 24
f 20 26 27
f 20 27 28
f 20 28 21
f 22 29 30
f 22 30 23
f 22 24 31
f 22 31 32
f 22 32 29
f 24 25 33
f 24 33 42
f 24 42 56
f 24 56 53
f 24 53 40
f 24 40 30
f 24 30 29
f 24 29 32
f 24 32 31
f 26 34 35
f 26 35 36
f 26 36 37
f 26 37 28
f 26 28 27
f 28 37 38
f 28 38 39
f 33 41 42
f 34 43 35
f 35 43 44
f 35 44 36
f 36 44 45
f 36 45 46
f 36 46 37
f 37 46 47
f 37 47 38
f 38 47 48
f 38 48 49
f 38 49 50
f 38 50 51
f 38 51 52
f 38 52 39
f 40 53 54
f 41 55 42
f 42 55 57
f 42 57 58
f 42 58 56
f 43 46 59
f 43 59 45
f 43 45 44
f 43 60 48
f 43 48 46
f 45 59 46
f 46 48 47
f 48 61 62
f 48 62 63
f 48 63 49
f 48 60 64
f 48 64 61
f 49 63 50
f 50 63 51
f 51 63 52
f 53 65 66
f 53 66 54
f 53 56 65
f 56 58 67
f 56 67 68
f 56 68 69
f 56 69 70
f 56 70 71
f 56 71 72
f 56 72 73
f 56 73 74
f 56 74 65
f 58 75 76
f 58 76 77
f 58 77 78
f 58 78 79
f 58 79 67
f 61 64 80
f 61 80 81
f 61 81 62
f 62 81 82
f 62 82 63
f 63 82 83
f 64 84 85
f 64 85 86
f 64 86 80
f 65 74 66
f 66 74 87
f 66 87 88
f 66 88 89
f 66 89 90
f 66 90 91
f 67 79 92
f 67 92 68
f 68 92 93
f 68 93 69
f 69 93 70
f 70 93 71
f 71 93 94
f 71 94 73
f 71 73 72
f 73 94 74
f 74 95 96
f 74 96 97
f 74 97 98
f 74 98 89
f 74 89 87
f 74 94 99
f 74 99 95
f 75 100 76
f 76 100 101
f 76 101 82
f 76 82 102
f 76 102 103
f 76 103 77
f 77 103 104
f 77 104 78
f 78 104 79
f 79 104 103
f 79 103 105
f 79 105 92
f 80 86 81
f 81 86 106
f 81 106 82
f 82 101 100
f 82 100 83
f 82 106 107
f 82 107 102
f 84 108 85
f 85 109 110
f 85 110 106
f 85 106 86
f 85 108 111
f 85 111 109
f 87 89 88
f 89 98 97
f 89 97 96
f 89 96 95
f 89 95 112
f 89 112 90
f 90 108 91
f 90 112 108
f 92 105 93
f 93 105 107
f 93 107 106
f 93 106 110
f 93 110 94
f 94 110 115
f 94 115 113
f 94 113 99
f 95 113 115
f 95 115 112
f 95 99 113
f 102 107 105
f 102 105 103
f 108 112 109
f 108 109 111
f 109 114 110
f 109 112 114
f 110 114 115
f 112 115 114

