# https://github.com/mikedh/trimesh
v -0.28184013 0.41314324 0.33859631
v -0.29318001 0.41281288 0.33707165
v -0.29064679 0.40266231 0.33652550
v -0.28184013 0.40266231 0.33764057
v -0.27563303 0.39398329 0.33531943
v -0.27507599 0.40266231 0.33579732
v -0.27520861 0.41314324 0.33586557
v -0.28184013 0.42365418 0.33805016
v -0.29233117 0.42365418 0.33809569
v -0.29723851 0.40911903 0.33427266
v -0.29829955 0.42365418 0.33536496
v -0.29794144 0.41611633 0.33504637
v -0.28865731 0.39416347 0.33550149
v -0.28184013 0.39242164 0.33577454
v -0.25034044 0.24469783 0.30805771
v -0.23983614 0.24469783 0.30714747
v -0.23279346 0.24469783 0.30446227
v -0.27592483 0.42365418 0.33531943
v -0.27646860 0.42930005 0.33479606
v -0.28173402 0.43335427 0.33632072
v -0.28518241 0.44218346 0.33561526
v -0.29233117 0.43416512 0.33727646
v -0.29799451 0.44095217 0.33500087
v -0.29835259 0.43416512 0.33531943
v -0.30823355 0.44867023 0.32441930
v -0.29975849 0.41281288 0.33024486
v -0.29897596 0.40266231 0.32746859
v -0.29815366 0.39452383 0.32548884
v -0.28726471 0.33377060 0.31392876
v -0.26685290 0.24737061 0.30387059
v -0.26231697 0.24469783 0.30521322
v -0.26174665 0.24469783 0.30544078
v -0.26099065 0.20136272 0.19400447
v -0.25144128 0.20136272 0.19163784
v -0.22844319 0.24469783 0.29834090
v -0.22774026 0.24469783 0.29733961
v -0.27085833 0.41314324 0.32944840
v -0.27262232 0.42365418 0.32944840
v -0.27495661 0.43335427 0.32947112
v -0.27577894 0.44227355 0.32596671
v -0.27817954 0.43629733 0.33297556
v -0.29233117 0.44791943 0.33418163
v -0.29233117 0.44266396 0.33563801
v -0.28368369 0.45515696 0.32744584
v -0.28583230 0.46170378 0.32530679
v -0.29233117 0.45515696 0.33104131
v -0.30059406 0.46287499 0.32587568
v -0.30357824 0.45494674 0.32719553
v -0.30759694 0.45831024 0.32382765
v -0.30823355 0.45131297 0.32441930
v -0.31876439 0.46993235 0.30357478
v -0.30892324 0.26620021 0.17994124
v -0.28734428 0.32241876 0.30416643
v -0.27709197 0.28001460 0.30389337
v -0.26869646 0.24469783 0.29943317
v -0.26813943 0.20136272 0.19015869
v -0.24844384 0.20136272 0.18246715
v -0.22662616 0.24469783 0.28762281
v -0.26546029 0.41035032 0.30512219
v -0.26601735 0.39809755 0.32435102
v -0.27680017 0.44927086 0.32209818
v -0.28443969 0.46539763 0.31836619
v -0.28653525 0.47152400 0.31449766
v -0.29233117 0.47326583 0.31629538
v -0.29233117 0.46846082 0.32152929
v -0.29233117 0.46323539 0.32630805
v -0.30280897 0.47401660 0.31672778
v -0.30949354 0.47254508 0.31506659
v -0.31075353 0.46566791 0.31709186
v -0.31876439 0.47161409 0.30357478
v -0.36095408 0.49053382 0.11583749
v -0.35483982 0.47611880 0.14045951
v -0.35340741 0.46563787 0.14045951
v -0.31067395 0.26620021 0.17195386
v -0.30823355 0.26058438 0.17766562
v -0.27607071 0.27301733 0.30134466
v -0.26901480 0.24469783 0.29886427
v -0.28762282 0.21833039 0.16783503
v -0.26949226 0.20136272 0.18246715
v -0.25182591 0.20136272 0.17632302
v -0.25556608 0.22896146 0.15616118
v -0.25556608 0.22962214 0.15616118
v -0.32863209 0.49278615 0.11192345
v -0.29751702 0.48152441 0.22948113
v -0.27581872 0.44212341 0.28084148
v -0.27243666 0.43416512 0.28744075
v -0.26653459 0.41599620 0.29793129
v -0.26849754 0.42365418 0.29793129
v -0.27646860 0.45032194 0.31511208
v -0.27860396 0.45434611 0.31873030
v -0.28580579 0.47278531 0.30842182
v -0.28867058 0.47957239 0.29793129
v -0.29392274 0.48413714 0.29793129
v -0.29577957 0.48254548 0.30514494
v -0.30280897 0.47927207 0.31115253
v -0.31014342 0.48269562 0.30484910
v -0.31714629 0.47861140 0.30120814
v -0.31917554 0.48227521 0.29422204
v -0.31971934 0.47551817 0.29779472
v -0.32223929 0.47614881 0.28744075
v -0.36095408 0.49308646 0.11583749
v -0.36212122 0.49431776 0.10612066
v -0.36181618 0.48482786 0.10612066
v -0.36086123 0.47098346 0.10612066
v -0.35709453 0.47611880 0.12996899
v -0.35554277 0.46563787 0.12996899
v -0.31864501 0.28181648 0.11444937
v -0.30921501 0.25821191 0.16146334
v -0.30875081 0.25938312 0.17195386
v -0.36038377 0.46846082 0.10612066
v -0.30631041 0.25412765 0.17195386
v -0.28762282 0.21833039 0.16480847
v -0.30669506 0.25295644 0.16146334
v -0.26928004 0.20136272 0.18119281
v -0.25260843 0.20136272 0.17491216
v -0.26057950 0.22523758 0.15158723
v -0.28703924 0.27671118 0.10612066
v -0.28650871 0.27881338 0.10612066
v -0.28649544 0.28707195 0.10612066
v -0.28695967 0.29313827 0.10612066
v -0.33144384 0.49675028 0.10612066
v -0.29689367 0.48263557 0.23494257
v -0.29576630 0.48452754 0.24543311
v -0.27504945 0.44308440 0.28744075
v -0.27646860 0.45032194 0.31338261
v -0.28547422 0.47431692 0.29793129
v -0.28231759 0.46566791 0.30842182
v -0.28758301 0.47870149 0.28744075
v -0.29283517 0.48665975 0.27695021
v -0.29375031 0.48708019 0.28646223
v -0.29750378 0.49191525 0.28234340
v -0.30280897 0.48732046 0.29793129
v -0.30280897 0.48323620 0.30589590
v -0.30901608 0.49224557 0.28359497
v -0.31351224 0.48443745 0.29779472
v -0.31283582 0.48921243 0.28721319
v -0.31636379 0.49080409 0.27695021
v -0.31816755 0.49170503 0.27051025
v -0.32024985 0.48368665 0.28744075
v -0.36116627 0.50083453 0.10612066
v -0.36159069 0.49681033 0.10862382
v -0.36206815 0.49690045 0.10612066
v -0.31876439 0.28109572 0.10896517
v -0.31588630 0.27325759 0.10612066
v -0.31876439 0.28103567 0.10612066
v -0.28637610 0.21965176 0.15782237
v -0.26742324 0.20136272 0.17532176
v -0.30985165 0.26178563 0.10612066
v -0.31105857 0.26406801 0.10612066
v -0.25920015 0.20136272 0.17309167
v -0.26284748 0.21643841 0.15402212
v -0.26532768 0.22848096 0.14523827
v -0.29063353 0.26917331 0.10612066
v -0.33253141 0.49879239 0.10612066
v -0.33676233 0.50476862 0.10612066
v -0.29872397 0.49104432 0.25594639
v -0.29483788 0.48581889 0.25594639
v -0.29450631 0.48756072 0.26648245
v -0.29739767 0.49203535 0.27000961
v -0.29739767 0.49203535 0.27695021
v -0.30280897 0.49071400 0.28860132
v -0.34506497 0.50816216 0.10612066
v -0.30280897 0.49296633 0.27695021
v -0.30280897 0.49215551 0.28334466
v -0.31109837 0.49284620 0.27695021
v -0.35530404 0.50596987 0.10612066
v -0.35915032 0.50356737 0.10612066
v -0.27937322 0.21709911 0.15402212
v -0.26669375 0.20136272 0.17493491
v -0.30786220 0.26070451 0.10612066
v -0.26099065 0.20136272 0.17309167
v -0.27134909 0.21565761 0.15290706
v -0.30283551 0.25953330 0.10612066
v -0.29473180 0.26325716 0.10612066
v -0.29206594 0.26671078 0.10612066
v -0.29792817 0.49167499 0.26300076
f 1 2 3
f 1 3 4
f 1 4 5
f 1 5 6
f 1 6 7
f 1 7 8
f 1 8 9
f 1 9 2
f 2 10 3
f 2 9 11
f 2 11 12
f 2 12 10
f 3 10 13
f 3 13 4
f 4 13 14
f 4 14 15
f 4 15 16
f 4 16 5
f 5 16 17
f 5 17 6
f 6 17 7
f 7 18 8
f 7 17 18
f 8 18 19
f 8 19 20
f 8 20 21
f 8 21 22
f 8 22 9
f 9 22 23
f 9 23 24
f 9 24 11
f 10 12 25
f 10 25 26
f 10 26 27
f 10 27 28
f 10 28 29
f 10 29 30
f 10 30 13
f 11 24 25
f 11 25 12
f 13 30 31
f 13 31 32
f 13 32 15
f 13 15 14
f 15 32 33
f 15 33 16
f 16 33 34
f 16 34 17
f 17 34 35
f 17 35 18
f 18 35 36
f 18 36 37
f 18 37 19
f 19 37 38
f 19 38 39
f 19 39 40
f 19 40 41
f 19 41 21
f 19 21 20
f 21 42 43
f 21 43 22
f 21 41 44
f 21 44 45
f 21 45 46
f 21 46 42
f 22 43 23
f 23 43 42
f 23 42 47
f 23 47 48
f 23 48 49
f 23 49 50
f 23 50 24
f 24 50 25
f 25 50 70
f 25 70 51
f 25 51 28
f 25 28 27
f 25 27 26
f 28 52 29
f 28 51 52
f 29 52 53
f 29 53 54
f 29 54 30
f 30 55 31
f 30 54 55
f 31 55 56
f 31 56 33
f 31 33 32
f 33 56 79
f 33 79 114
f 33 114 147
f 33 147 169
f 33 169 171
f 33 171 150
f 33 150 115
f 33 115 80
f 33 80 57
f 33 57 34
f 34 57 36
f 34 36 35
f 36 57 58
f 36 58 59
f 36 59 40
f 36 40 60
f 36 60 38
f 36 38 37
f 38 60 40
f 38 40 39
f 40 61 44
f 40 44 41
f 40 59 61
f 42 46 47
f 44 61 45
f 45 62 63
f 45 63 64
f 45 64 65
f 45 65 66
f 45 66 46
f 45 61 62
f 46 66 47
f 47 49 48
f 47 66 67
f 47 67 68
f 47 68 49
f 49 68 69
f 49 69 70
f 49 70 50
f 51 70 101
f 51 101 71
f 51 71 72
f 51 72 73
f 51 73 74
f 51 74 52
f 52 74 75
f 52 75 53
f 53 75 54
f 54 76 77
f 54 77 55
f 54 75 76
f 55 77 56
f 56 78 79
f 56 77 78
f 57 80 81
f 57 81 82
f 57 82 58
f 58 82 83
f 58 83 84
f 58 84 85
f 58 85 86
f 58 86 87
f 58 87 59
f 59 87 88
f 59 88 89
f 59 89 61
f 61 89 90
f 61 90 63
f 61 63 62
f 63 91 92
f 63 92 93
f 63 93 94
f 63 94 64
f 63 90 91
f 64 94 95
f 64 95 65
f 65 95 67
f 65 67 66
f 67 95 96
f 67 96 68
f 68 96 97
f 68 97 70
f 68 70 69
f 70 97 98
f 70 98 99
f 70 99 100
f 70 100 101
f 71 101 102
f 71 102 103
f 71 103 104
f 71 104 105
f 71 105 72
f 72 105 73
f 73 105 106
f 73 106 74
f 74 107 108
f 74 108 109
f 74 109 75
f 74 106 104
f 74 104 110
f 74 110 107
f 75 109 111
f 75 111 77
f 75 77 76
f 77 111 78
f 78 112 79
f 78 111 113
f 78 113 112
f 79 112 114
f 80 115 81
f 81 115 116
f 81 116 117
f 81 117 118
f 81 118 119
f 81 119 82
f 82 119 120
f 82 120 121
f 82 121 83
f 83 121 84
f 84 122 85
f 84 121 122
f 85 122 123
f 85 123 124
f 85 124 86
f 86 124 88
f 86 88 87
f 88 124 125
f 88 125 89
f 89 125 126
f 89 126 127
f 89 127 90
f 90 127 91
f 91 127 126
f 91 126 92
f 92 126 128
f 92 128 129
f 92 129 130
f 92 130 131
f 92 131 93
f 93 131 94
f 94 131 132
f 94 132 133
f 94 133 95
f 95 133 96
f 96 98 97
f 96 133 132
f 96 132 134
f 96 134 135
f 96 135 98
f 98 100 99
f 98 135 136
f 98 136 137
f 98 137 138
f 98 138 139
f 98 139 140
f 98 140 101
f 98 101 100
f 101 140 141
f 101 141 142
f 101 142 102
f 102 142 140
f 102 140 167
f 102 167 166
f 102 166 162
f 102 162 155
f 102 155 154
f 102 154 121
f 102 121 120
f 102 120 119
f 102 119 118
f 102 118 117
f 102 117 153
f 102 153 175
f 102 175 174
f 102 174 173
f 102 173 170
f 102 170 148
f 102 148 149
f 102 149 144
f 102 144 145
f 102 145 110
f 102 110 104
f 102 104 103
f 104 106 105
f 107 143 108
f 107 110 143
f 108 113 111
f 108 111 109
f 108 143 144
f 108 144 113
f 110 145 143
f 112 146 147
f 112 147 114
f 112 113 148
f 112 148 146
f 113 144 149
f 113 149 148
f 115 150 151
f 115 151 116
f 116 151 152
f 116 152 117
f 117 152 153
f 121 154 122
f 122 154 123
f 123 154 155
f 123 155 156
f 123 156 157
f 123 157 128
f 123 128 124
f 124 128 126
f 124 126 125
f 128 157 129
f 129 157 158
f 129 158 159
f 129 159 160
f 129 160 131
f 129 131 130
f 131 161 132
f 131 160 162
f 131 162 163
f 131 163 164
f 131 164 161
f 132 161 134
f 134 164 163
f 134 163 165
f 134 165 138
f 134 138 137
f 134 137 136
f 134 136 135
f 134 161 164
f 138 165 166
f 138 166 167
f 138 167 139
f 139 167 140
f 140 142 141
f 143 145 144
f 146 168 147
f 146 148 168
f 147 168 169
f 148 170 168
f 150 171 172
f 150 172 151
f 151 172 173
f 151 173 174
f 151 174 152
f 152 174 175
f 152 175 153
f 155 162 159
f 155 159 176
f 155 176 156
f 156 176 157
f 157 176 158
f 158 176 159
f 159 162 160
f 162 166 165
f 162 165 163
f 168 172 169
f 168 170 172
f 169 172 171
f 170 173 172

