# https://github.com/mikedh/trimesh
v 0.27449609 0.06309174 0.30205957
v 0.27037995 0.06309174 0.30220192
v 0.26867197 0.07318195 0.30299490
v 0.27073862 0.07318195 0.30299490
v 0.27441069 0.06684388 0.30248659
v 0.28078136 0.06343653 0.30270006
v 0.28084968 0.06309174 0.30266955
v 0.13818464 0.06308160 0.30888120
v 0.11987541 0.14016272 0.31387290
v 0.11987541 0.14032498 0.31389321
v 0.26416302 0.08768346 0.30633963
v 0.27774121 0.07044390 0.30375737
v 0.28213063 0.07717748 0.31078231
v 0.28498291 0.06631655 0.30844404
v 0.28580274 0.06309174 0.30773242
v 0.28110587 0.06309174 0.30287289
v 0.28057640 0.08370823 0.31277492
v 0.14788578 0.06308160 0.31143297
v 0.12942285 0.06308160 0.31134147
v 0.12573368 0.06308160 0.31895608
v 0.11987541 0.13864158 0.31454388
v 0.11987541 0.14996899 0.31633315
v 0.26482911 0.09885876 0.31030450
v 0.24315521 0.11649381 0.31283594
v 0.25415441 0.10941546 0.31149396
v 0.27149011 0.09581648 0.31193111
v 0.28945773 0.06309174 0.31210394
v 0.26877446 0.10282385 0.31461504
v 0.27312974 0.09885876 0.31845793
v 0.27849270 0.09054321 0.31896625
v 0.28129375 0.08530035 0.31896625
v 0.29038004 0.06309174 0.31411689
v 0.15210442 0.06308160 0.31895608
v 0.12699755 0.06308160 0.32368343
v 0.11987541 0.13353056 0.36025180
v 0.11987541 0.12393725 0.33566956
v 0.11987541 0.12377499 0.33052539
v 0.11987541 0.12377499 0.32988490
v 0.11987541 0.12416035 0.32727214
v 0.11987541 0.12718234 0.32156881
v 0.11987541 0.12940320 0.31872223
v 0.11987541 0.15871046 0.32152816
v 0.12768074 0.15901468 0.32159932
v 0.13818464 0.15913638 0.32191447
v 0.14868852 0.15880172 0.32234145
v 0.15917532 0.15807157 0.32278878
v 0.19066993 0.14954307 0.32172133
v 0.25099472 0.11533775 0.31297825
v 0.26177187 0.10639346 0.31220561
v 0.27046534 0.10487232 0.32160949
v 0.25799731 0.11339069 0.31431006
v 0.26061048 0.11561155 0.32130448
v 0.28906491 0.07986482 0.35046162
v 0.29128527 0.07358759 0.34354849
v 0.29365930 0.06309174 0.34000043
v 0.15184823 0.06308160 0.31973889
v 0.29435956 0.06309174 0.35046162
v 0.12884214 0.06308160 0.32755681
v 0.11987541 0.15361972 0.36025180
v 0.19382963 0.13068096 0.40172038
v 0.19382963 0.13984834 0.40590891
v 0.11987541 0.16246259 0.32945791
v 0.12768074 0.16343613 0.32945791
v 0.13844083 0.16466317 0.33026107
v 0.14868852 0.16405472 0.32866493
v 0.16967923 0.15715890 0.32327678
v 0.19381255 0.14910701 0.32182300
v 0.20119090 0.14808278 0.32207716
v 0.22216451 0.13905735 0.32100968
v 0.23266841 0.13648156 0.32275830
v 0.26120826 0.11645325 0.32946808
v 0.26742519 0.11200138 0.35046162
v 0.27195127 0.10676867 0.35046162
v 0.27719466 0.09926439 0.35046162
v 0.28055931 0.09401140 0.35046162
v 0.28447052 0.08768346 0.35046162
v 0.23801429 0.13497057 0.32414092
v 0.24991870 0.12572205 0.32250414
v 0.25097763 0.12681727 0.32946808
v 0.25622104 0.12169610 0.32946808
v 0.28062763 0.09414323 0.35854386
v 0.29101196 0.07385125 0.35659193
v 0.29150729 0.07461182 0.35046162
v 0.29383009 0.06668162 0.35046162
v 0.14839818 0.06308160 0.32850227
v 0.29174639 0.06309174 0.35722222
v 0.29169517 0.06668162 0.35728324
v 0.13444422 0.06308160 0.33045420
v 0.13422219 0.15705748 0.36025180
v 0.11987541 0.16137753 0.33994961
v 0.19382963 0.14239372 0.40489228
v 0.19382963 0.14985743 0.40185253
v 0.27456440 0.06309174 0.36260024
v 0.27464983 0.07081912 0.36665661
v 0.28038852 0.07099151 0.36646344
v 0.13818464 0.06308160 0.33139970
v 0.23932942 0.11324872 0.38757899
v 0.21782633 0.13347985 0.39809099
v 0.20119090 0.14016272 0.40352999
v 0.20119090 0.14821461 0.40036827
v 0.14211290 0.16652911 0.33519175
v 0.14211290 0.16652911 0.33428693
v 0.14868852 0.16668122 0.33392094
v 0.15579358 0.16664066 0.33408363
v 0.15924365 0.16382148 0.33013906
v 0.17726253 0.15643889 0.32377493
v 0.20986727 0.14659205 0.32305310
v 0.18426512 0.15554649 0.32474074
v 0.21686988 0.14539543 0.32424259
v 0.26230133 0.11690959 0.36094311
v 0.26754476 0.11183913 0.36094311
v 0.27184878 0.10659628 0.36094311
v 0.22305265 0.14444218 0.32843112
v 0.23266841 0.13991933 0.32946808
v 0.23919278 0.13587311 0.32946808
v 0.24443618 0.13207026 0.32946808
v 0.25087515 0.12680713 0.37144498
v 0.23953437 0.13612663 0.33742835
v 0.27972243 0.09231786 0.36553831
v 0.28269424 0.08836291 0.36160395
v 0.27753625 0.09785480 0.36160395
v 0.28084968 0.08531049 0.36694128
v 0.14593872 0.06308160 0.32955958
v 0.28469258 0.06309174 0.36184793
v 0.28096921 0.07717748 0.36696162
v 0.13751852 0.15781806 0.36025180
v 0.12768074 0.16280739 0.33994961
v 0.19382963 0.15085125 0.39906697
v 0.20119090 0.15106420 0.39243851
v 0.26110578 0.09817932 0.37779894
v 0.21782633 0.13598465 0.39809099
v 0.24023463 0.11916088 0.38820928
v 0.21162647 0.13975708 0.39946345
v 0.20809102 0.14646023 0.39865012
v 0.14868852 0.16668122 0.33592371
v 0.13844083 0.16491670 0.33919728
v 0.19382963 0.15305183 0.39289598
v 0.16967923 0.16129638 0.32945791
v 0.15579358 0.16664066 0.33584239
v 0.16967923 0.16440965 0.33994961
v 0.18016604 0.16188456 0.33994961
v 0.19779207 0.15635776 0.33349395
v 0.19066993 0.15479607 0.32631650
v 0.20124214 0.15357915 0.32978323
v 0.21268539 0.14889405 0.32843112
v 0.22014914 0.14696728 0.33124718
v 0.25005534 0.12630008 0.37864274
v 0.27056783 0.10479119 0.36794774
v 0.22062737 0.14739319 0.33995975
v 0.22587077 0.14438134 0.33995975
v 0.23944897 0.13582240 0.37934422
v 0.25938075 0.11462788 0.37715848
v 0.26074710 0.10867516 0.37797177
v 0.19837278 0.15663157 0.34755402
v 0.21162647 0.14744389 0.39231650
v 0.21849242 0.14613571 0.38874810
v 0.25365911 0.10867516 0.38170283
v 0.23960269 0.12713164 0.38816863
v 0.23745066 0.13412887 0.38633868
v 0.23046516 0.13725228 0.38932761
v 0.24547804 0.11916088 0.38558638
v 0.19915844 0.15678369 0.33995975
v 0.20441892 0.15530310 0.33995975
v 0.21166063 0.15203773 0.33995975
f 1 2 3
f 1 3 4
f 1 4 5
f 1 5 6
f 1 6 7
f 1 7 8
f 1 8 2
f 2 8 9
f 2 9 3
f 3 9 10
f 3 10 4
f 4 11 12
f 4 12 6
f 4 6 5
f 4 10 11
f 6 13 14
f 6 14 15
f 6 15 16
f 6 16 7
f 6 12 17
f 6 17 13
f 7 16 18
f 7 18 8
f 8 18 33
f 8 33 56
f 8 56 85
f 8 85 123
f 8 123 96
f 8 96 88
f 8 88 58
f 8 58 34
f 8 34 20
f 8 20 19
f 8 19 9
f 9 19 20
f 9 20 21
f 9 21 41
f 9 41 40
f 9 40 39
f 9 39 38
f 9 38 37
f 9 37 36
f 9 36 35
f 9 35 59
f 9 59 90
f 9 90 62
f 9 62 42
f 9 42 22
f 9 22 10
f 10 22 11
f 11 23 12
f 11 22 24
f 11 24 25
f 11 25 23
f 12 23 26
f 12 26 17
f 13 17 27
f 13 27 14
f 14 27 15
f 15 27 18
f 15 18 16
f 17 26 28
f 17 28 29
f 17 29 30
f 17 30 31
f 17 31 32
f 17 32 27
f 18 27 33
f 20 34 35
f 20 35 36
f 20 36 37
f 20 37 38
f 20 38 39
f 20 39 40
f 20 40 41
f 20 41 21
f 22 42 43
f 22 43 44
f 22 44 45
f 22 45 46
f 22 46 47
f 22 47 48
f 22 48 24
f 23 25 49
f 23 49 26
f 24 48 25
f 25 48 49
f 26 49 28
f 27 32 33
f 28 50 29
f 28 49 51
f 28 51 52
f 28 52 50
f 29 50 30
f 30 53 31
f 30 50 53
f 31 53 54
f 31 54 32
f 32 54 55
f 32 55 33
f 33 55 57
f 33 57 56
f 34 58 35
f 35 58 60
f 35 60 61
f 35 61 59
f 42 62 63
f 42 63 64
f 42 64 65
f 42 65 43
f 43 65 44
f 44 65 45
f 45 65 46
f 46 65 66
f 46 66 47
f 47 66 67
f 47 67 48
f 48 51 49
f 48 67 68
f 48 68 69
f 48 69 70
f 48 70 51
f 50 52 71
f 50 71 72
f 50 72 73
f 50 73 74
f 50 74 75
f 50 75 76
f 50 76 53
f 51 70 77
f 51 77 78
f 51 78 52
f 52 78 79
f 52 79 80
f 52 80 71
f 53 76 81
f 53 81 82
f 53 82 83
f 53 83 54
f 54 83 84
f 54 84 55
f 55 84 57
f 56 57 86
f 56 86 85
f 57 84 82
f 57 82 87
f 57 87 86
f 58 88 60
f 59 89 90
f 59 61 91
f 59 91 92
f 59 92 89
f 60 93 94
f 60 94 95
f 60 95 61
f 60 88 96
f 60 96 93
f 61 95 97
f 61 97 98
f 61 98 99
f 61 99 100
f 61 100 91
f 62 90 101
f 62 101 102
f 62 102 63
f 63 102 64
f 64 102 103
f 64 103 65
f 65 103 104
f 65 104 105
f 65 105 66
f 66 106 68
f 66 68 67
f 66 105 106
f 68 107 69
f 68 106 108
f 68 108 107
f 69 107 109
f 69 109 70
f 70 109 77
f 71 80 72
f 72 80 79
f 72 79 110
f 72 110 111
f 72 111 73
f 73 112 81
f 73 81 74
f 73 111 112
f 74 81 75
f 75 81 76
f 77 109 113
f 77 113 114
f 77 114 115
f 77 115 116
f 77 116 78
f 78 116 79
f 79 117 110
f 79 116 118
f 79 118 117
f 81 119 120
f 81 120 82
f 81 112 121
f 81 121 119
f 82 84 83
f 82 120 119
f 82 119 122
f 82 122 87
f 85 86 124
f 85 124 123
f 86 87 125
f 86 125 95
f 86 95 124
f 87 122 125
f 89 126 90
f 89 92 126
f 90 126 127
f 90 127 101
f 91 100 92
f 92 128 126
f 92 100 129
f 92 129 128
f 93 124 95
f 93 95 94
f 93 96 124
f 95 125 130
f 95 130 97
f 96 123 124
f 97 130 98
f 98 131 99
f 98 130 132
f 98 132 131
f 99 131 133
f 99 133 134
f 99 134 100
f 100 134 129
f 101 135 103
f 101 103 102
f 101 127 136
f 101 136 137
f 101 137 135
f 103 135 139
f 103 139 104
f 104 138 105
f 104 139 140
f 104 140 141
f 104 141 142
f 104 142 138
f 105 138 106
f 106 138 108
f 107 108 109
f 108 138 143
f 108 143 109
f 109 143 144
f 109 144 145
f 109 145 146
f 109 146 113
f 110 117 111
f 111 117 147
f 111 147 112
f 112 147 148
f 112 148 121
f 113 146 114
f 114 118 115
f 114 146 149
f 114 149 150
f 114 150 118
f 115 118 116
f 117 118 151
f 117 151 147
f 118 150 151
f 119 121 148
f 119 148 152
f 119 152 153
f 119 153 122
f 122 153 125
f 125 153 130
f 126 136 127
f 126 128 137
f 126 137 136
f 128 129 137
f 129 154 137
f 129 134 155
f 129 155 156
f 129 156 154
f 130 157 132
f 130 153 157
f 131 134 133
f 131 132 158
f 131 158 159
f 131 159 160
f 131 160 134
f 132 157 161
f 132 161 158
f 134 160 156
f 134 156 155
f 135 137 139
f 137 141 140
f 137 140 139
f 137 154 141
f 138 142 143
f 141 154 162
f 141 162 142
f 142 162 163
f 142 163 146
f 142 146 145
f 142 145 144
f 142 144 143
f 146 163 164
f 146 164 149
f 147 152 148
f 147 151 159
f 147 159 152
f 149 164 151
f 149 151 150
f 151 164 156
f 151 156 159
f 152 159 158
f 152 158 153
f 153 158 161
f 153 161 157
f 154 156 163
f 154 163 162
f 156 164 163
f 156 160 159

