# https://github.com/mikedh/trimesh
v 0.27467455 -0.07587590 -0.19093062
v 0.28055058 -0.07603600 -0.19093062
v 0.27467455 -0.07590791 -0.20606344
v 0.26417600 -0.07696462 -0.20606344
v 0.25379974 -0.07818145 -0.20606344
v 0.26417600 -0.07853369 -0.19093062
v 0.28516700 -0.07619611 -0.19093062
v 0.28516700 -0.07629216 -0.21655878
v 0.28516700 -0.07645227 -0.23754947
v 0.28516700 -0.07670845 -0.26903548
v 0.27467455 -0.07661238 -0.27860026
v 0.25379974 -0.07818145 -0.20618548
v 0.25022888 -0.14661172 -0.31336607
v 0.25379974 -0.08183191 -0.19093062
v 0.29350102 -0.08128755 -0.19093062
v 0.29351326 -0.08131958 -0.20606344
v 0.29354383 -0.08141563 -0.24804479
v 0.29354383 -0.08144766 -0.25855539
v 0.29354383 -0.08157574 -0.27860026
v 0.28516700 -0.07683654 -0.27860026
v 0.28422538 -0.07680452 -0.27860026
v 0.28516090 -0.14661172 -0.34628605
v 0.25368357 -0.14661172 -0.34117569
v 0.25022888 -0.14661172 -0.34038242
v 0.26417600 -0.07991062 -0.27860026
v 0.25379974 -0.07898198 -0.21655878
v 0.25022888 -0.26931869 -0.30737091
v 0.25379974 -0.10882617 -0.19093062
v 0.29696794 -0.09086202 -0.19093062
v 0.29698628 -0.09086202 -0.27860026
v 0.30297847 -0.14661172 -0.33228209
v 0.30140095 -0.14661172 -0.33775858
v 0.30134591 -0.14661172 -0.33791113
v 0.29832534 -0.14661172 -0.34045871
v 0.29624643 -0.14661172 -0.34207572
v 0.28840768 -0.14661172 -0.34538602
v 0.29565945 -0.16438372 -0.34508092
v 0.29565945 -0.17485481 -0.34578265
v 0.28516090 -0.15384861 -0.34666742
v 0.25022888 -0.19586100 -0.34112991
v 0.25379974 -0.08400940 -0.27860026
v 0.25022888 -0.28043019 -0.30824046
v 0.27362898 -0.19582899 -0.19093062
v 0.25022888 -0.29032489 -0.30947610
v 0.25022888 -0.30079597 -0.31208467
v 0.25022888 -0.30822498 -0.31422035
v 0.25859960 -0.37207613 -0.31562378
v 0.26208485 -0.40294500 -0.32152742
v 0.26306318 -0.40294500 -0.31872055
v 0.26616933 -0.40294500 -0.31036087
v 0.30317414 -0.16419159 -0.19093062
v 0.31164269 -0.19899914 -0.32604285
v 0.31164269 -0.19899914 -0.32779717
v 0.30627419 -0.16438372 -0.33203801
v 0.30448873 -0.15384861 -0.33203801
v 0.30204908 -0.15384861 -0.33881117
v 0.30297847 -0.16438372 -0.33989426
v 0.29565945 -0.15384861 -0.34376902
v 0.30376726 -0.17485481 -0.34062650
v 0.30440315 -0.18535792 -0.34102314
v 0.30489841 -0.19586100 -0.34128246
v 0.30532643 -0.20636411 -0.34148079
v 0.30575445 -0.21686721 -0.34160283
v 0.29565945 -0.18535792 -0.34611826
v 0.29565945 -0.19586100 -0.34627078
v 0.28516090 -0.16438372 -0.34677422
v 0.25022888 -0.27652355 -0.33878066
v 0.27527377 -0.20261757 -0.19093062
v 0.25022888 -0.31331642 -0.32224439
v 0.26467740 -0.40294500 -0.32846839
v 0.25022888 -0.30761656 -0.32801074
v 0.25022888 -0.29042093 -0.33626362
v 0.25887475 -0.36951441 -0.32686663
v 0.26821767 -0.40294500 -0.30750822
v 0.30492899 -0.19582899 -0.19093062
v 0.31196065 -0.20636411 -0.32511231
v 0.31030362 -0.19563686 -0.33159563
v 0.30908685 -0.18535792 -0.33203801
v 0.30779056 -0.17485481 -0.33203801
v 0.31196065 -0.20636411 -0.32912434
v 0.31057877 -0.20636411 -0.33438726
v 0.31100679 -0.21686721 -0.33594328
v 0.31125137 -0.22733829 -0.33681277
v 0.30599903 -0.22733829 -0.34160283
v 0.29565945 -0.20636411 -0.34628605
v 0.29565945 -0.21686721 -0.34622503
v 0.29565945 -0.22733829 -0.34607248
v 0.29565945 -0.23787342 -0.34575214
v 0.27512091 -0.40294500 -0.33641617
v 0.25022888 -0.28430479 -0.33791113
v 0.27674736 -0.20617199 -0.19093062
v 0.26580246 -0.40294500 -0.33106172
v 0.25022888 -0.28651429 -0.33751450
v 0.27114038 -0.40294500 -0.30430468
v 0.30307632 -0.20549953 -0.19093062
v 0.31046872 -0.40294500 -0.30079608
v 0.31268826 -0.23787342 -0.32320547
v 0.31266992 -0.22733829 -0.32335802
v 0.31236420 -0.21686721 -0.32409024
v 0.31236420 -0.21686721 -0.33069560
v 0.31266992 -0.22733829 -0.33158036
v 0.31268826 -0.23787342 -0.33154985
v 0.31123301 -0.23787342 -0.33679753
v 0.30598070 -0.23787342 -0.34140450
v 0.30586451 -0.24165196 -0.34128246
v 0.30565050 -0.24834449 -0.34106889
v 0.29565945 -0.24834449 -0.34521823
v 0.28271511 -0.40294500 -0.33656872
v 0.27324377 -0.40294500 -0.33537883
v 0.28078903 -0.21123140 -0.19093062
v 0.27598918 -0.40294500 -0.29989605
v 0.28049554 -0.40294500 -0.29588401
v 0.28549106 -0.40294500 -0.29146011
v 0.29978060 -0.20969436 -0.19093062
v 0.30538758 -0.40294500 -0.29130756
v 0.30988784 -0.40294500 -0.31057444
v 0.31249259 -0.24834449 -0.33069560
v 0.31262101 -0.24165196 -0.33124478
v 0.31169160 -0.24165196 -0.33458556
v 0.30656768 -0.40294500 -0.32152742
v 0.31089674 -0.24834449 -0.33594328
v 0.30275225 -0.40294500 -0.32878873
v 0.30505128 -0.25884760 -0.34064178
v 0.29565945 -0.25884760 -0.34444021
v 0.28485517 -0.40294500 -0.33652294
v 0.28464726 -0.21270439 -0.19093062
v 0.28854220 -0.40294500 -0.29017871
v 0.29565945 -0.40294500 -0.28728028
v 0.29881451 -0.21043086 -0.19093062
v 0.30898899 -0.40294500 -0.31354913
v 0.30562603 -0.40294500 -0.32338850
v 0.29565945 -0.40294500 -0.33316689
v 0.30439091 -0.26931869 -0.34010783
v 0.29284679 -0.40294500 -0.33408216
v 0.28664059 -0.21318472 -0.19093062
v 0.29346435 -0.21296057 -0.19093062
v 0.28948382 -0.21318472 -0.19093062
f 1 2 3
f 1 3 4
f 1 4 5
f 1 5 6
f 1 6 14
f 1 14 28
f 1 28 43
f 1 43 68
f 1 68 91
f 1 91 110
f 1 110 126
f 1 126 135
f 1 135 137
f 1 137 136
f 1 136 129
f 1 129 114
f 1 114 95
f 1 95 75
f 1 75 51
f 1 51 29
f 1 29 15
f 1 15 7
f 1 7 2
f 2 7 8
f 2 8 3
f 3 8 9
f 3 9 10
f 3 10 11
f 3 11 4
f 4 11 12
f 4 12 5
f 5 12 24
f 5 24 13
f 5 13 14
f 5 14 6
f 7 15 16
f 7 16 17
f 7 17 18
f 7 18 8
f 8 18 19
f 8 19 9
f 9 19 10
f 10 19 20
f 10 20 21
f 10 21 11
f 11 21 22
f 11 22 23
f 11 23 24
f 11 24 25
f 11 25 12
f 12 25 26
f 12 26 24
f 13 24 40
f 13 40 67
f 13 67 90
f 13 90 93
f 13 93 72
f 13 72 71
f 13 71 69
f 13 69 46
f 13 46 45
f 13 45 44
f 13 44 42
f 13 42 27
f 13 27 14
f 14 27 28
f 15 29 30
f 15 30 16
f 16 30 17
f 17 30 18
f 18 30 19
f 19 30 31
f 19 31 32
f 19 32 33
f 19 33 34
f 19 34 35
f 19 35 20
f 20 35 36
f 20 36 22
f 20 22 21
f 22 36 37
f 22 37 38
f 22 38 39
f 22 39 23
f 23 39 40
f 23 40 24
f 24 26 41
f 24 41 25
f 25 41 26
f 27 42 28
f 28 42 44
f 28 44 45
f 28 45 46
f 28 46 47
f 28 47 48
f 28 48 49
f 28 49 50
f 28 50 43
f 29 51 52
f 29 52 30
f 30 52 53
f 30 53 54
f 30 54 55
f 30 55 31
f 31 55 32
f 32 55 54
f 32 54 33
f 33 54 56
f 33 56 34
f 34 56 35
f 35 56 57
f 35 57 58
f 35 58 36
f 36 58 37
f 37 58 57
f 37 57 59
f 37 59 60
f 37 60 38
f 38 60 61
f 38 61 62
f 38 62 63
f 38 63 64
f 38 64 39
f 39 64 65
f 39 65 66
f 39 66 40
f 40 66 67
f 43 50 68
f 46 69 48
f 46 48 47
f 48 70 92
f 48 92 109
f 48 109 89
f 48 89 108
f 48 108 125
f 48 125 134
f 48 134 132
f 48 132 122
f 48 122 131
f 48 131 120
f 48 120 130
f 48 130 116
f 48 116 96
f 48 96 115
f 48 115 128
f 48 128 127
f 48 127 113
f 48 113 112
f 48 112 111
f 48 111 94
f 48 94 74
f 48 74 50
f 48 50 49
f 48 69 71
f 48 71 72
f 48 72 73
f 48 73 70
f 50 74 68
f 51 75 52
f 52 75 76
f 52 76 80
f 52 80 53
f 53 77 78
f 53 78 79
f 53 79 54
f 53 80 81
f 53 81 77
f 54 79 56
f 56 79 57
f 57 79 78
f 57 78 81
f 57 81 82
f 57 82 59
f 59 82 60
f 60 82 83
f 60 83 61
f 61 83 62
f 62 83 63
f 63 83 84
f 63 84 65
f 63 65 64
f 65 85 66
f 65 84 85
f 66 85 86
f 66 86 87
f 66 87 88
f 66 88 67
f 67 88 89
f 67 89 90
f 68 74 91
f 70 73 72
f 70 72 92
f 72 93 92
f 74 94 91
f 75 95 96
f 75 96 97
f 75 97 98
f 75 98 99
f 75 99 76
f 76 99 100
f 76 100 80
f 77 81 78
f 80 100 82
f 80 82 81
f 82 100 101
f 82 101 83
f 83 101 102
f 83 102 103
f 83 103 84
f 84 86 85
f 84 103 104
f 84 104 87
f 84 87 86
f 87 104 88
f 88 104 105
f 88 105 106
f 88 106 107
f 88 107 89
f 89 109 90
f 89 107 108
f 90 109 92
f 90 92 93
f 91 94 111
f 91 111 112
f 91 112 113
f 91 113 110
f 95 114 115
f 95 115 96
f 96 116 117
f 96 117 118
f 96 118 102
f 96 102 97
f 97 102 101
f 97 101 98
f 98 101 100
f 98 100 99
f 102 118 103
f 103 118 119
f 103 119 120
f 103 120 121
f 103 121 122
f 103 122 123
f 103 123 106
f 103 106 105
f 103 105 104
f 106 123 107
f 107 123 124
f 107 124 125
f 107 125 108
f 110 113 127
f 110 127 128
f 110 128 126
f 114 129 128
f 114 128 115
f 116 130 117
f 117 119 118
f 117 130 119
f 119 130 120
f 120 131 121
f 121 131 122
f 122 132 133
f 122 133 123
f 123 133 124
f 124 133 132
f 124 132 134
f 124 134 125
f 126 128 135
f 128 129 136
f 128 136 137
f 128 137 135

