# https://github.com/mikedh/trimesh
v 0.08212712 -0.14725975 -0.30900822
v 0.08212712 -0.14725975 -0.32986754
v 0.08012573 -0.14725975 -0.30871344
v -0.16081191 -0.15097859 -0.25854528
v 0.08212712 -0.14796613 -0.30844139
v 0.08212712 -0.15383523 -0.33249761
v 0.07515088 -0.15383523 -0.33209706
v -0.04693334 -0.14725975 -0.32085116
v -0.05082174 -0.14725975 -0.29115685
v -0.20507101 -0.15097859 -0.25854528
v -0.17888150 -0.25337101 -0.25854528
v 0.08212712 -0.17483934 -0.30038484
v 0.08212712 -0.16433728 -0.30188127
v 0.08212712 -0.15258870 -0.30552409
v 0.08212712 -0.15082277 -0.30620429
v -0.05653997 -0.14725975 -0.29071851
v 0.08212712 -0.16492938 -0.33514282
v 0.07515088 -0.16433728 -0.33472713
v 0.06465792 -0.16433728 -0.33425101
v 0.05416497 -0.16433728 -0.33350278
v -0.05653997 -0.14725975 -0.31983844
v 0.04364343 -0.16433728 -0.33252029
v -0.20996009 -0.15097859 -0.27955575
v -0.20604311 -0.17483934 -0.25854528
v -0.19500690 -0.25337101 -0.25854528
v -0.11795376 -0.25337101 -0.27387235
v 0.08212712 -0.18275482 -0.30341548
v 0.08212712 -0.17047647 -0.33567185
v 0.08212712 -0.17438228 -0.33575499
v 0.05416497 -0.17483934 -0.33316269
v 0.03315047 -0.16433728 -0.33129594
v -0.00584786 -0.17802838 -0.32700315
v -0.00584786 -0.18046952 -0.32700315
v -0.07732573 -0.20178526 -0.31635431
v -0.07732573 -0.20087114 -0.31635431
v -0.19595042 -0.15097859 -0.29584265
v -0.19755153 -0.15097859 -0.29553279
v -0.20092529 -0.15097859 -0.29468633
v -0.20635761 -0.15097859 -0.28969822
v -0.20755843 -0.15097859 -0.28662224
v 0.04364343 -0.17483934 -0.33217263
v 0.02265752 -0.17483934 -0.33007157
v -0.20418468 -0.25337101 -0.26965513
v -0.20575719 -0.19583306 -0.25854528
v -0.20618605 -0.18534139 -0.25854528
v -0.20246921 -0.25337101 -0.28331193
v -0.20418468 -0.25337101 -0.27805934
v -0.19720844 -0.25337101 -0.25932373
v -0.20432764 -0.20589882 -0.25854528
v -0.11612393 -0.25337101 -0.27462055
v 0.08212712 -0.18730468 -0.31104123
v 0.08212712 -0.18086426 -0.33226332
v -0.11803954 -0.25337101 -0.30605315
v -0.12444395 -0.25337101 -0.30612872
v -0.12993345 -0.25337101 -0.30592466
v -0.09282214 -0.21681639 -0.31332367
v -0.10331509 -0.21681639 -0.31143423
v -0.19323427 -0.17483934 -0.29548745
v -0.18731590 -0.25337101 -0.29337884
v -0.19254807 -0.25337101 -0.29100571
v -0.19723702 -0.25337101 -0.28878373
v -0.20306962 -0.23288629 -0.28483106
v -0.20644338 -0.15384562 -0.28927499
v -0.19995319 -0.25337101 -0.28604029
v -0.20284089 -0.25337101 -0.26441008
v -0.10857586 -0.25337101 -0.28026618
v 0.08212712 -0.18830191 -0.32153890
v -0.10617421 -0.25337101 -0.28268465
v -0.10471606 -0.25337101 -0.28587400
v -0.10362959 -0.25337101 -0.29005342
v 0.08212712 -0.18375205 -0.33070643
v -0.11223553 -0.25337101 -0.30343059
v -0.10577393 -0.25337101 -0.29844252
f 1 2 8
f 1 8 21
f 1 21 16
f 1 16 9
f 1 9 3
f 1 3 4
f 1 4 5
f 1 5 15
f 1 15 14
f 1 14 13
f 1 13 12
f 1 12 27
f 1 27 51
f 1 51 67
f 1 67 71
f 1 71 52
f 1 52 29
f 1 29 28
f 1 28 17
f 1 17 6
f 1 6 2
f 2 6 7
f 2 7 8
f 3 9 4
f 4 10 24
f 4 24 45
f 4 45 44
f 4 44 49
f 4 49 25
f 4 25 11
f 4 11 12
f 4 12 13
f 4 13 14
f 4 14 15
f 4 15 5
f 4 9 16
f 4 16 10
f 6 17 18
f 6 18 19
f 6 19 7
f 7 19 20
f 7 20 8
f 8 20 22
f 8 22 21
f 10 23 24
f 10 16 23
f 11 25 48
f 11 48 65
f 11 65 43
f 11 43 47
f 11 47 46
f 11 46 64
f 11 64 61
f 11 61 60
f 11 60 59
f 11 59 55
f 11 55 54
f 11 54 53
f 11 53 72
f 11 72 73
f 11 73 70
f 11 70 69
f 11 69 68
f 11 68 66
f 11 66 50
f 11 50 26
f 11 26 12
f 12 26 27
f 16 21 23
f 17 28 19
f 17 19 18
f 19 28 20
f 20 28 29
f 20 29 30
f 20 30 22
f 21 22 31
f 21 31 32
f 21 32 33
f 21 33 34
f 21 34 35
f 21 35 36
f 21 36 37
f 21 37 38
f 21 38 39
f 21 39 40
f 21 40 23
f 22 30 41
f 22 41 42
f 22 42 33
f 22 33 32
f 22 32 31
f 23 43 44
f 23 44 45
f 23 45 24
f 23 40 46
f 23 46 47
f 23 47 43
f 25 49 48
f 26 50 27
f 27 50 51
f 29 33 30
f 29 52 53
f 29 53 54
f 29 54 55
f 29 55 33
f 30 33 41
f 33 42 41
f 33 55 56
f 33 56 34
f 34 56 36
f 34 36 35
f 36 56 57
f 36 57 55
f 36 55 37
f 37 55 58
f 37 58 59
f 37 59 38
f 38 59 60
f 38 60 61
f 38 61 39
f 39 62 63
f 39 63 40
f 39 61 64
f 39 64 62
f 40 63 46
f 43 65 44
f 44 65 49
f 46 63 62
f 46 62 64
f 48 49 65
f 50 66 51
f 51 66 68
f 51 68 69
f 51 69 70
f 51 70 67
f 52 71 53
f 53 71 72
f 55 59 58
f 55 57 56
f 67 70 73
f 67 73 72
f 67 72 71

