# https://github.com/mikedh/trimesh
v 0.29575652 -0.09083609 0.22200813
v 0.29294730 -0.08164687 0.22200813
v 0.29294730 -0.08165449 0.22443887
v 0.29284873 -0.08176116 0.25591690
v 0.29279944 -0.08186022 0.27481587
v 0.29541152 -0.09083609 0.27481587
v 0.29551009 -0.10133588 0.25591690
v 0.29560866 -0.10133588 0.23495181
v 0.29565795 -0.09888999 0.22200813
v 0.25371679 -0.10652481 -0.27860195
v 0.25371679 -0.08400132 -0.27860195
v 0.28511105 -0.07666367 0.22200813
v 0.25371679 -0.07896477 -0.21649664
v 0.25371679 -0.07817996 -0.20592294
v 0.28511105 -0.07667890 0.22443887
v 0.28511105 -0.07674748 0.23495181
v 0.28511105 -0.07707512 0.27481587
v 0.28511105 -0.07682367 0.24540396
v 0.28511105 -0.07690749 0.25591690
v 0.28511105 -0.07699892 0.26642985
v 0.29536223 -0.10133588 0.27481587
v 0.29472155 -0.11081464 0.25591690
v 0.29560866 -0.10133588 0.22200813
v 0.29427798 -0.10938978 0.22200813
v 0.29408084 -0.11081464 0.22340581
v 0.25371679 -0.11598071 -0.21582818
v 0.19181537 -0.12446132 -0.33195659
v 0.19181537 -0.11981336 -0.33930956
v 0.19181537 -0.11185090 -0.34228723
v 0.19181537 -0.10135112 -0.34392798
v 0.19181537 -0.08745300 -0.34599410
v 0.27707765 -0.07635888 0.22200813
v 0.27461344 -0.07639698 0.25591690
v 0.27461344 -0.07644270 0.26642985
v 0.27461344 -0.07648080 0.27481587
v 0.25371679 -0.07661033 0.06686641
v 0.27461344 -0.07628268 0.22200813
v -0.15564077 -0.08263742 -0.30376007
v -0.15854856 -0.08263742 -0.30369930
v 0.27678197 -0.07659509 0.27481587
v 0.29309516 -0.11081464 0.27481587
v 0.29427798 -0.11081464 0.26642985
v 0.29472155 -0.11081464 0.23391876
v 0.13464528 -0.14723625 -0.32478593
v 0.25371679 -0.11648361 -0.20616602
v 0.25371679 -0.11599595 -0.21564589
v 0.13425102 -0.14723625 -0.32794587
v 0.11719855 -0.14723625 -0.33256429
v 0.15909043 -0.12858351 -0.33779038
v 0.12759759 -0.14723625 -0.33061968
v 0.14859282 -0.12231259 -0.33937033
v 0.13809521 -0.11185090 -0.34125417
v 0.10660237 -0.14723625 -0.33292888
v 0.14859282 -0.12905592 -0.33772961
v 0.12759759 -0.11185090 -0.34095032
v 0.11709998 -0.11185090 -0.34052493
v 0.18683765 -0.08745300 -0.34575102
v 0.27461344 -0.07628268 0.22443887
v -0.15854856 -0.08263742 -0.28060730
v -0.11374890 -0.10193783 0.17181344
v -0.12424651 -0.10286742 0.17181344
v -0.15529577 -0.10604478 0.17175267
v -0.15859784 -0.10690579 0.17527725
v -0.15164873 -0.10647909 0.17728259
v -0.05652952 -0.10865830 0.25628152
v 0.22592031 -0.08649293 0.27481587
v -0.15159944 -0.09405917 -0.30613003
v -0.15854856 -0.08765872 -0.30418543
v -0.20773457 -0.15030695 0.05258583
v 0.16968661 -0.08745300 -0.34483950
v 0.15568979 -0.08745300 -0.34404952
v 0.03311909 -0.08745300 -0.33159200
v -0.03553430 -0.11674268 -0.32685204
v 0.26248943 -0.11081464 0.27481587
v -0.05652952 -0.13085414 0.25628152
v -0.10325129 -0.14275594 0.17181344
v -0.09275368 -0.14219208 0.17181344
v -0.07175845 -0.14095772 0.17181344
v -0.02272031 -0.13821467 0.16755965
v 0.13370888 -0.14723625 -0.32229442
v -0.20773457 -0.15412436 0.06686641
v -0.05643095 -0.15095460 -0.31901294
v -0.00872350 -0.13138751 -0.32849280
v 0.02272005 -0.12231259 -0.33341504
v 0.03311909 -0.12231259 -0.33420501
v 0.06855470 -0.11752749 -0.33736499
v 0.08560715 -0.11906665 -0.33797266
v 0.10660237 -0.11185090 -0.33991726
v -0.20773457 -0.15030695 0.07962777
v -0.17505888 -0.10889450 0.17181344
v -0.16293488 -0.10638766 0.16828888
v -0.16643409 -0.10746202 0.17175267
v -0.17505888 -0.11666648 0.20335224
v 0.22592031 -0.10415512 0.27481587
v -0.08225606 -0.12231259 -0.31949907
v -0.09275368 -0.12231259 -0.31773681
v -0.09940709 -0.12231259 -0.31652144
v -0.11374890 -0.13282000 -0.31378686
v -0.15159944 -0.09760990 -0.30613003
v -0.15854856 -0.14016529 -0.29586017
v -0.20773457 -0.15228042 0.05568503
v -0.15854856 -0.15095460 -0.29203176
v 0.06855470 -0.11559212 -0.33736499
v 0.02272005 -0.11185090 -0.33298965
v 0.00172483 -0.11185090 -0.33080199
v -0.01922111 -0.12231259 -0.32928278
v -0.02976800 -0.12231259 -0.32770282
v -0.17505888 -0.13714031 0.20335224
v -0.15569005 -0.14333502 0.17181344
v -0.14524173 -0.14351027 0.17181344
v -0.13474412 -0.14355599 0.17181344
v -0.12424651 -0.14351027 0.17181344
v -0.11374890 -0.14324359 0.17181344
v -0.11848021 -0.14860778 0.07233557
v -0.16623695 -0.14296167 0.17181344
v -0.17505888 -0.14237495 0.17181344
v -0.20773457 -0.15403292 0.06741333
v -0.15243727 -0.15095460 -0.29610325
v -0.14529101 -0.15095460 -0.29895934
v -0.13503983 -0.15095460 -0.30224085
v -0.06796354 -0.15095460 -0.31718988
v -0.06998421 -0.15022313 -0.31712911
v -0.09748499 -0.13741460 -0.31615682
v -0.05643095 -0.14811250 -0.31968138
v -0.02976800 -0.12872066 -0.32715589
v -0.01922111 -0.13041983 -0.32788510
v 0.01227172 -0.12231259 -0.33244275
v -0.20773457 -0.15109938 0.07737935
v -0.03514002 -0.12761582 -0.32673050
v -0.09925924 -0.13041983 -0.31646067
v -0.10300486 -0.13346767 -0.31560989
v -0.13292059 -0.14063007 -0.30710232
v -0.12419723 -0.13282000 -0.31135612
v -0.13996830 -0.13723935 -0.30570465
v -0.00872350 -0.12231259 -0.33037664
v -0.12380294 -0.14380744 -0.30807461
f 1 2 3
f 1 3 4
f 1 4 5
f 1 5 6
f 1 6 7
f 1 7 8
f 1 8 9
f 1 9 10
f 1 10 11
f 1 11 2
f 2 12 3
f 2 11 13
f 2 13 14
f 2 14 12
f 3 12 4
f 4 12 15
f 4 15 16
f 4 16 5
f 5 17 40
f 5 40 35
f 5 35 66
f 5 66 94
f 5 94 74
f 5 74 41
f 5 41 21
f 5 21 6
f 5 16 18
f 5 18 19
f 5 19 20
f 5 20 17
f 6 21 7
f 7 21 22
f 7 22 8
f 8 23 9
f 8 22 43
f 8 43 23
f 9 23 10
f 10 23 24
f 10 24 25
f 10 25 26
f 10 26 27
f 10 27 28
f 10 28 29
f 10 29 30
f 10 30 31
f 10 31 11
f 11 31 13
f 12 32 33
f 12 33 34
f 12 34 35
f 12 35 15
f 12 14 32
f 13 31 14
f 14 36 37
f 14 37 32
f 14 31 38
f 14 38 39
f 14 39 36
f 15 35 16
f 16 35 40
f 16 40 18
f 17 20 40
f 18 40 19
f 19 40 20
f 21 41 42
f 21 42 22
f 22 42 44
f 22 44 43
f 23 43 24
f 24 43 25
f 25 43 45
f 25 45 46
f 25 46 26
f 26 46 47
f 26 47 27
f 27 47 28
f 28 48 49
f 28 49 29
f 28 47 50
f 28 50 48
f 29 51 52
f 29 52 30
f 29 49 53
f 29 53 54
f 29 54 51
f 30 52 31
f 31 52 55
f 31 55 56
f 31 56 57
f 31 57 39
f 31 39 38
f 32 37 58
f 32 58 33
f 33 58 59
f 33 59 34
f 34 59 35
f 35 60 61
f 35 61 62
f 35 62 63
f 35 63 64
f 35 64 65
f 35 65 66
f 35 59 60
f 36 39 37
f 37 39 59
f 37 59 58
f 39 67 68
f 39 68 69
f 39 69 89
f 39 89 59
f 39 57 70
f 39 70 71
f 39 71 72
f 39 72 73
f 39 73 67
f 41 74 75
f 41 75 76
f 41 76 77
f 41 77 78
f 41 78 79
f 41 79 80
f 41 80 44
f 41 44 42
f 43 44 45
f 44 80 81
f 44 81 82
f 44 82 47
f 44 47 45
f 45 47 46
f 47 82 50
f 48 53 49
f 48 50 82
f 48 82 53
f 51 55 52
f 51 54 53
f 51 53 55
f 53 82 83
f 53 83 84
f 53 84 85
f 53 85 86
f 53 86 87
f 53 87 55
f 55 87 56
f 56 88 71
f 56 71 70
f 56 70 57
f 56 87 86
f 56 86 88
f 59 89 90
f 59 90 91
f 59 91 61
f 59 61 60
f 61 91 62
f 62 91 63
f 63 65 64
f 63 91 92
f 63 92 90
f 63 90 65
f 65 75 94
f 65 94 66
f 65 90 93
f 65 93 108
f 65 108 75
f 67 73 95
f 67 95 96
f 67 96 97
f 67 97 98
f 67 98 99
f 67 99 68
f 68 100 69
f 68 99 100
f 69 101 81
f 69 81 117
f 69 117 128
f 69 128 89
f 69 100 102
f 69 102 101
f 71 88 86
f 71 86 103
f 71 103 104
f 71 104 72
f 72 104 105
f 72 105 73
f 73 105 106
f 73 106 107
f 73 107 95
f 74 94 75
f 75 108 109
f 75 109 110
f 75 110 111
f 75 111 112
f 75 112 113
f 75 113 76
f 76 113 81
f 76 81 77
f 77 81 114
f 77 114 78
f 78 114 79
f 79 114 80
f 80 114 81
f 81 109 115
f 81 115 116
f 81 116 108
f 81 108 117
f 81 101 102
f 81 102 118
f 81 118 119
f 81 119 120
f 81 120 121
f 81 121 82
f 81 113 112
f 81 112 111
f 81 111 110
f 81 110 109
f 82 121 122
f 82 122 123
f 82 123 124
f 82 124 125
f 82 125 126
f 82 126 83
f 83 126 84
f 84 127 104
f 84 104 103
f 84 103 86
f 84 86 85
f 84 126 127
f 89 93 90
f 89 128 108
f 89 108 93
f 90 92 91
f 95 129 130
f 95 130 96
f 95 107 129
f 96 130 97
f 97 130 98
f 98 130 131
f 98 131 123
f 98 123 132
f 98 132 133
f 98 133 99
f 99 133 134
f 99 134 100
f 100 118 102
f 100 134 118
f 104 127 135
f 104 135 106
f 104 106 105
f 106 135 125
f 106 125 129
f 106 129 107
f 108 128 117
f 108 116 115
f 108 115 109
f 118 134 119
f 119 134 132
f 119 132 120
f 120 132 136
f 120 136 122
f 120 122 121
f 122 136 123
f 123 136 132
f 123 131 130
f 123 130 129
f 123 129 124
f 124 129 125
f 125 135 127
f 125 127 126
f 132 134 133

