# https://github.com/mikedh/trimesh
v -0.15860003 -0.12087021 -0.00911212
v -0.17511399 -0.10830255 0.24824578
v -0.17511399 -0.11126830 0.25636936
v -0.17511399 -0.11415662 0.26034829
v -0.17511399 -0.11638673 0.26222721
v -0.17511399 -0.12289126 0.26432718
v -0.17511399 -0.13113806 0.26504559
v -0.17511399 -0.13282613 0.26510086
v -0.15860003 -0.13857180 -0.00911212
v -0.15860003 -0.11478384 -0.11151371
v -0.23013701 -0.08263294 0.05637405
v -0.23048966 -0.08263294 0.05869508
v -0.23198086 -0.08263294 0.06759236
v -0.17817699 -0.10830255 0.25498780
v -0.15860003 -0.10893751 -0.29056452
v -0.19852976 -0.08263294 -0.21457844
v -0.18944154 -0.10830255 0.26322193
v -0.19785469 -0.10830255 0.26648242
v -0.19785469 -0.12233373 0.26570874
v -0.19785469 -0.13282613 0.26504559
v -0.19785469 -0.14331855 0.26432718
v -0.19785469 -0.15030316 0.26382982
v -0.17511399 -0.13964039 0.26382982
v -0.17511399 -0.14146010 0.26327720
v -0.17511399 -0.15030316 0.25968514
v -0.15860003 -0.15014828 -0.11151371
v -0.23411690 -0.08263294 0.07195810
v -0.23475165 -0.08263294 0.07262125
v -0.15860003 -0.12060693 -0.29614603
v -0.18892769 -0.10868198 -0.29669865
v -0.20133079 -0.08263294 -0.22353099
v -0.19876150 -0.08263294 -0.21645738
v -0.23910433 -0.08263294 0.07494228
v -0.25031851 -0.08263294 0.07643437
v -0.20835350 -0.10830255 0.26587453
v -0.20579428 -0.15030316 0.26250352
v -0.21972888 -0.16174026 0.21453559
v -0.20271115 -0.16174026 0.21453559
v -0.18913928 -0.15030316 0.26244826
v -0.20213684 -0.16174026 0.21436981
v -0.20001088 -0.16174026 0.21348561
v -0.19941642 -0.16174026 0.21083300
v -0.19799575 -0.16174026 0.20320676
v -0.15860003 -0.15076001 -0.12201360
v -0.15860003 -0.12379724 -0.29658813
v -0.19787484 -0.10868198 -0.29808021
v -0.19167833 -0.10868198 -0.29719601
v -0.20606634 -0.08263294 -0.22452571
v -0.25731099 -0.08263294 0.07361598
v -0.21518478 -0.10830255 0.26266931
v -0.21369359 -0.12845882 0.26128775
v -0.21284724 -0.13544343 0.26051407
v -0.21101347 -0.15030316 0.25874567
v -0.21997070 -0.16174026 0.21431454
v -0.21863064 -0.16174026 -0.00911212
v -0.17702837 -0.15633532 -0.25845695
v -0.15860003 -0.15094586 -0.26022534
v -0.15860003 -0.12944998 -0.29697496
v -0.15860003 -0.13281838 -0.29703023
v -0.19601086 -0.15094586 -0.29581445
v -0.20319477 -0.13868794 -0.29526183
v -0.20354742 -0.13281838 -0.29553814
v -0.20530058 -0.10868198 -0.29653286
v -0.20834343 -0.08263294 -0.22469150
v -0.26130095 -0.08263294 0.06692921
v -0.21890269 -0.10830255 0.25592726
v -0.21505379 -0.15030316 0.25349571
v -0.21385479 -0.15030316 0.25520885
v -0.22455512 -0.16174026 0.20956196
v -0.22332589 -0.16174026 0.21105405
v -0.25142682 -0.16174026 -0.00911212
v -0.20511923 -0.15633532 -0.25845695
v -0.19019721 -0.15094586 -0.29581445
v -0.15860003 -0.15094586 -0.29200134
v -0.15860003 -0.14016694 -0.29586971
v -0.19760280 -0.15094586 -0.29548288
v -0.20690261 -0.10868198 -0.29509604
v -0.20096807 -0.15094586 -0.29459868
v -0.20640890 -0.15094586 -0.28962506
v -0.21098324 -0.10868198 -0.29034347
v -0.21455002 -0.08263294 -0.22292310
v -0.26153269 -0.08263294 0.05637405
v -0.26035384 -0.13282613 0.07742910
v -0.25988029 -0.13282613 0.08792899
v -0.25903392 -0.13282613 0.09842888
v -0.25792561 -0.13282613 0.10892877
v -0.25629336 -0.13307392 0.12003655
v -0.25544699 -0.12973649 0.12407072
v -0.25237394 -0.13282613 0.14042845
v -0.24993563 -0.13282613 0.15092835
v -0.24659052 -0.13186594 0.16242297
v -0.24526054 -0.13471554 0.16728608
v -0.24526054 -0.14091033 0.16728608
v -0.24499858 -0.14791041 0.16645713
v -0.22728562 -0.16174026 0.20353834
v -0.25697851 -0.15057418 -0.09062445
v -0.25687775 -0.15041156 -0.10112434
v -0.25667622 -0.15008633 -0.11151371
v -0.24859558 -0.15632758 -0.12118466
v -0.24353761 -0.15632758 -0.14461600
v -0.21788506 -0.15633532 -0.22972040
v -0.24236884 -0.16174026 0.12329705
v -0.25714979 -0.15066709 0.08787373
v -0.25736137 -0.15082972 0.07737383
v -0.25736137 -0.15082197 0.06681868
v -0.20760790 -0.15094586 -0.28658559
v -0.21386487 -0.11001386 -0.28548034
v -0.21396563 -0.10868198 -0.28570139
v -0.21692787 -0.08263294 -0.21634685
v -0.26025308 -0.08263294 -0.09051392
v -0.25959816 -0.13281838 -0.09062445
v -0.25982991 -0.14331855 0.07742910
v -0.25933621 -0.14331855 0.08792899
v -0.25844954 -0.14331855 0.09842888
v -0.25728076 -0.14331855 0.10892877
v -0.25561829 -0.13864923 0.12506545
v -0.25561829 -0.13673659 0.12506545
v -0.25464095 -0.13307392 0.12909962
v -0.24964344 -0.14331855 0.15092835
v -0.24656030 -0.14397674 0.16236771
v -0.24605651 -0.14983080 0.15949404
v -0.23051989 -0.16174026 0.19270687
v -0.25901377 -0.14331855 -0.09062445
v -0.25886264 -0.14331855 -0.10112434
v -0.25849992 -0.14331855 -0.11151371
v -0.25626313 -0.14949783 -0.12201360
v -0.25578958 -0.14890933 -0.12870038
v -0.24797089 -0.15141047 -0.15345802
v -0.24741673 -0.15096135 -0.15815534
v -0.24669128 -0.15038059 -0.16395792
v -0.20995552 -0.15094586 -0.27945674
v -0.24100862 -0.16174026 0.13363116
v -0.25669638 -0.15015602 0.09842888
v -0.25683744 -0.15030316 0.09544470
v -0.25755282 -0.15030316 0.07737383
v -0.24454518 -0.14555641 -0.17838145
v -0.24511949 -0.13855631 -0.17992879
v -0.24513964 -0.12737473 -0.17992879
v -0.25983998 -0.08263294 -0.09311127
v -0.25744198 -0.08263294 -0.10184276
v -0.24697339 -0.13281838 -0.17445780
v -0.25003639 -0.13281838 -0.16395792
v -0.25559814 -0.12745991 -0.13809501
v -0.25669638 -0.13281838 -0.13251349
v -0.25810698 -0.13281838 -0.12201360
v -0.25904400 -0.13281838 -0.11151371
v -0.25942688 -0.13281838 -0.10112434
v -0.25607169 -0.14929650 0.10892877
v -0.25566867 -0.14874672 0.11500766
v -0.25603140 -0.14261389 0.11887604
v -0.25510444 -0.14564932 0.12202601
v -0.25419763 -0.14261389 0.12909962
v -0.25181978 -0.14331855 0.14042845
v -0.24647969 -0.15030316 0.15606777
v -0.23293805 -0.16174026 0.18043857
v -0.24709431 -0.15099233 0.15092835
v -0.25762334 -0.14331855 -0.12201360
v -0.25627321 -0.14303978 -0.13234770
v -0.25508428 -0.14636172 -0.13555293
v -0.24568372 -0.14931973 -0.17130784
v -0.24919004 -0.14331855 -0.16395792
v -0.24618750 -0.14255967 -0.17467885
v -0.25265605 -0.13281838 -0.15351328
v -0.25473163 -0.13281838 -0.14395285
v -0.25571905 -0.13281838 -0.13870290
v -0.25573920 -0.13936162 -0.13881343
v -0.25424801 -0.14303978 -0.14257129
v -0.25180970 -0.14331855 -0.15351328
f 1 2 3
f 1 3 4
f 1 4 5
f 1 5 6
f 1 6 7
f 1 7 8
f 1 8 9
f 1 9 26
f 1 26 44
f 1 44 57
f 1 57 74
f 1 74 75
f 1 75 59
f 1 59 58
f 1 58 45
f 1 45 29
f 1 29 15
f 1 15 10
f 1 10 2
f 2 11 12
f 2 12 13
f 2 13 14
f 2 14 3
f 2 10 15
f 2 15 16
f 2 16 11
f 3 14 4
f 4 14 17
f 4 17 5
f 5 17 18
f 5 18 6
f 6 18 7
f 7 18 8
f 8 18 19
f 8 19 20
f 8 20 21
f 8 21 22
f 8 22 23
f 8 23 9
f 9 23 24
f 9 24 25
f 9 25 26
f 11 16 32
f 11 32 31
f 11 31 48
f 11 48 64
f 11 64 81
f 11 81 109
f 11 109 140
f 11 140 139
f 11 139 110
f 11 110 82
f 11 82 65
f 11 65 49
f 11 49 34
f 11 34 33
f 11 33 28
f 11 28 27
f 11 27 13
f 11 13 12
f 13 27 14
f 14 27 28
f 14 28 17
f 15 29 30
f 15 30 31
f 15 31 32
f 15 32 16
f 17 28 33
f 17 33 18
f 18 33 34
f 18 34 35
f 18 35 19
f 19 35 20
f 20 35 21
f 21 35 22
f 22 35 36
f 22 36 37
f 22 37 38
f 22 38 39
f 22 39 24
f 22 24 23
f 24 39 25
f 25 39 38
f 25 38 40
f 25 40 41
f 25 41 42
f 25 42 43
f 25 43 44
f 25 44 26
f 29 45 46
f 29 46 47
f 29 47 30
f 30 47 48
f 30 48 31
f 34 49 35
f 35 49 50
f 35 50 51
f 35 51 36
f 36 51 52
f 36 52 53
f 36 53 37
f 37 54 70
f 37 70 69
f 37 69 95
f 37 95 122
f 37 122 155
f 37 155 132
f 37 132 102
f 37 102 71
f 37 71 55
f 37 55 43
f 37 43 42
f 37 42 41
f 37 41 40
f 37 40 38
f 37 53 54
f 43 55 56
f 43 56 44
f 44 56 57
f 45 58 46
f 46 58 59
f 46 59 60
f 46 60 61
f 46 61 62
f 46 62 63
f 46 63 64
f 46 64 48
f 46 48 47
f 49 65 50
f 50 65 66
f 50 66 51
f 51 66 67
f 51 67 68
f 51 68 52
f 52 68 53
f 53 68 69
f 53 69 70
f 53 70 54
f 55 71 72
f 55 72 56
f 56 72 60
f 56 60 73
f 56 73 74
f 56 74 57
f 59 75 73
f 59 73 60
f 60 72 76
f 60 76 61
f 61 77 63
f 61 63 62
f 61 76 78
f 61 78 79
f 61 79 80
f 61 80 77
f 63 77 81
f 63 81 64
f 65 82 83
f 65 83 84
f 65 84 85
f 65 85 86
f 65 86 87
f 65 87 88
f 65 88 89
f 65 89 90
f 65 90 66
f 66 90 91
f 66 91 92
f 66 92 93
f 66 93 94
f 66 94 67
f 67 94 95
f 67 95 69
f 67 69 68
f 71 96 97
f 71 97 98
f 71 98 99
f 71 99 100
f 71 100 101
f 71 101 72
f 71 102 103
f 71 103 104
f 71 104 105
f 71 105 96
f 72 101 79
f 72 79 78
f 72 78 76
f 73 75 74
f 77 80 81
f 79 101 106
f 79 106 107
f 79 107 108
f 79 108 80
f 80 108 81
f 81 108 109
f 82 110 111
f 82 111 83
f 83 112 84
f 83 111 112
f 84 112 113
f 84 113 85
f 85 113 114
f 85 114 86
f 86 114 115
f 86 115 116
f 86 116 117
f 86 117 87
f 87 117 88
f 88 117 118
f 88 118 89
f 89 119 90
f 89 118 117
f 89 117 116
f 89 116 119
f 90 119 120
f 90 120 93
f 90 93 92
f 90 92 91
f 93 120 94
f 94 120 119
f 94 119 121
f 94 121 122
f 94 122 95
f 96 105 112
f 96 112 123
f 96 123 97
f 97 123 124
f 97 124 98
f 98 124 125
f 98 125 126
f 98 126 99
f 99 126 127
f 99 127 128
f 99 128 100
f 100 128 129
f 100 129 130
f 100 130 101
f 101 130 131
f 101 131 106
f 102 132 133
f 102 133 134
f 102 134 103
f 103 134 113
f 103 113 112
f 103 112 135
f 103 135 104
f 104 135 105
f 105 135 112
f 106 131 136
f 106 136 137
f 106 137 107
f 107 137 108
f 108 138 139
f 108 139 140
f 108 140 109
f 108 137 141
f 108 141 142
f 108 142 138
f 110 139 143
f 110 143 144
f 110 144 145
f 110 145 146
f 110 146 147
f 110 147 111
f 111 147 124
f 111 124 123
f 111 123 112
f 113 134 133
f 113 133 148
f 113 148 114
f 114 148 149
f 114 149 115
f 115 149 150
f 115 150 116
f 116 150 151
f 116 151 152
f 116 152 153
f 116 153 119
f 119 153 151
f 119 151 121
f 121 154 122
f 121 151 149
f 121 149 154
f 122 154 156
f 122 156 155
f 124 147 125
f 125 147 146
f 125 146 157
f 125 157 126
f 126 157 127
f 127 157 158
f 127 158 159
f 127 159 160
f 127 160 130
f 127 130 129
f 127 129 128
f 130 160 131
f 131 160 136
f 132 149 148
f 132 148 133
f 132 155 149
f 136 160 161
f 136 161 162
f 136 162 137
f 137 162 161
f 137 161 142
f 137 142 141
f 138 142 139
f 139 142 163
f 139 163 143
f 142 161 168
f 142 168 163
f 143 163 164
f 143 164 165
f 143 165 144
f 144 165 166
f 144 166 145
f 145 166 157
f 145 157 146
f 149 155 156
f 149 156 154
f 149 151 150
f 151 153 152
f 157 166 158
f 158 166 159
f 159 166 167
f 159 167 168
f 159 168 160
f 160 168 161
f 163 168 166
f 163 166 164
f 164 166 165
f 166 168 167

