# https://github.com/mikedh/trimesh
v 0.15913355 0.15066509 -0.41465333
v 0.14863090 0.14387103 -0.41211257
v 0.13812828 0.14385076 -0.41197320
v 0.14863090 0.15066509 -0.41425667
v 0.14863090 0.15929796 -0.41292734
v 0.15913355 0.15979823 -0.41323823
v 0.16963620 0.15066509 -0.41463190
v 0.16963620 0.14368851 -0.41225195
v 0.12764995 0.14415497 -0.41161944
v 0.19183274 0.13809777 -0.40693455
v 0.19183274 0.13362922 -0.40228187
v 0.10664467 0.13446074 -0.40097397
v 0.09614203 0.13463651 -0.40064161
v 0.13812828 0.15066509 -0.41358129
v 0.13812828 0.15834476 -0.41239130
v 0.14863090 0.16455069 -0.40739555
v 0.15913355 0.16504419 -0.40818885
v 0.16963620 0.15964274 -0.41316319
v 0.18013882 0.15066509 -0.41362416
v 0.19064147 0.14406708 -0.41150150
v 0.18013882 0.14351274 -0.41212328
v 0.11911655 0.14478366 -0.41115844
v 0.09023430 0.13483256 -0.40037359
v 0.19183274 0.14368851 -0.41112627
v 0.19183274 0.13332501 -0.40135990
v 0.16963620 0.11587676 -0.35424322
v -0.02881991 0.09823246 -0.34029584
v -0.02940339 0.09823246 -0.34037088
v -0.04031933 0.09823246 -0.34078897
v -0.04036795 0.09823246 -0.34078897
v 0.12764995 0.15066509 -0.41241273
v 0.12140185 0.15625585 -0.41101909
v 0.12764995 0.15710764 -0.41157654
v 0.12764995 0.16175194 -0.40554088
v 0.13778791 0.16406395 -0.40501558
v 0.14106999 0.16672750 -0.40115622
v 0.14863090 0.16702495 -0.40215322
v 0.15913355 0.16728860 -0.40293582
v 0.16963620 0.16488869 -0.40732051
v 0.18013882 0.15827041 -0.41228409
v 0.18709196 0.15674934 -0.41134068
v 0.19059284 0.15013104 -0.41169448
v 0.19183274 0.14932656 -0.41154437
v 0.19183274 0.14904940 -0.41154437
v 0.19183274 0.14424285 -0.41139429
v 0.11918949 0.15066509 -0.41124421
v 0.03524132 0.13360895 -0.39059649
v 0.11393816 0.15066509 -0.41021503
v 0.01722638 0.12438118 -0.37933994
v 0.04370178 0.13273011 -0.39131478
v 0.19183274 0.11870932 -0.33206248
v 0.18210808 0.11587676 -0.34254714
v 0.17780490 0.11587676 -0.35049107
v -0.01666408 0.09823246 -0.33675807
v -0.01931405 0.09823246 -0.33771221
v -0.02142916 0.09823246 -0.33837686
v -0.02726397 0.09823246 -0.33995278
v -0.04812337 0.09823246 -0.33853767
v -0.01646959 0.12383359 -0.36939133
v 0.03747799 0.14587206 -0.39015696
v 0.09055035 0.15603275 -0.40040576
v 0.09614203 0.15692511 -0.40144567
v 0.10664467 0.15845969 -0.40342895
v 0.11758492 0.15912894 -0.40615196
v 0.14106999 0.16672750 -0.39915147
v 0.06952076 0.15599895 -0.38994254
v -0.05629209 0.14543265 -0.34784307
v -0.05651090 0.14543941 -0.34759652
v -0.05651090 0.14558138 -0.34528088
v 0.03840183 0.15592458 -0.34783237
v 0.14863090 0.16702495 -0.39830454
v 0.15913355 0.16728860 -0.39784357
v 0.16963620 0.16699114 -0.40207815
v 0.17537373 0.16652469 -0.40074882
v 0.17938517 0.16368537 -0.40476902
v 0.19059284 0.15923036 -0.40609836
v 0.19183274 0.15905459 -0.40571243
v 0.19183274 0.15439676 -0.41040801
v -0.02347135 0.12555070 -0.36842649
v -0.02585389 0.13255434 -0.36926268
v 0.03006293 0.14016640 -0.38888123
v 0.03531425 0.14016640 -0.39067153
v 0.19183274 0.12149455 -0.32215674
v 0.17994433 0.11587676 -0.33245915
v -0.00244176 0.09823246 -0.32581241
v -0.00244176 0.09823246 -0.32796724
v -0.00910315 0.09823246 -0.33320957
v -0.05653521 0.09823246 -0.33448533
v -0.04766145 0.12363079 -0.35904602
v -0.05624347 0.13504888 -0.35838136
v -0.05651090 0.13541394 -0.35795253
v -0.05651090 0.13874674 -0.35497224
v 0.01557318 0.14618980 -0.38017617
v 0.03840183 0.15592458 -0.34777877
v 0.07513675 0.15923712 -0.33205178
v 0.08563940 0.15989961 -0.33205178
v -0.05651090 0.14510816 -0.34812183
v -0.05653521 0.11587676 -0.34479847
v -0.05651090 0.14558138 -0.34466980
v 0.11714731 0.16134633 -0.33205178
v 0.12764995 0.16177222 -0.33205178
v 0.13812828 0.16192771 -0.33205178
v 0.14863090 0.16168433 -0.33205178
v 0.16963620 0.16699114 -0.39872264
v 0.17537373 0.16652469 -0.39993406
v 0.19183274 0.16109619 -0.39503479
v 0.19183274 0.16100831 -0.39591386
v -0.05466321 0.12740978 -0.35773812
v -0.02585389 0.13581279 -0.36926268
v -0.05651090 0.13414976 -0.35824199
v -0.05624347 0.13439989 -0.35838136
v 0.16963620 0.11587676 -0.32885704
v 0.17858288 0.11587676 -0.33174086
v 0.19183274 0.12522621 -0.31687154
v -0.04024639 0.09823246 -0.31228313
v -0.02886853 0.09823246 -0.31488822
v -0.00873848 0.09823246 -0.32217817
v -0.05653521 0.09823246 -0.31124325
v -0.05651090 0.12837650 -0.35722354
v -0.05651090 0.12148102 -0.35243148
v -0.05651090 0.14530421 -0.34091765
v -0.05651090 0.14453354 -0.33195528
v -0.05651090 0.14307331 -0.32155639
v 0.06468274 0.15655330 -0.32571594
v 0.07513675 0.15720227 -0.32467606
v 0.08563940 0.15762818 -0.32403281
v 0.09614203 0.15803379 -0.32347537
v -0.05653521 0.11587676 -0.30529337
v 0.10664467 0.15835827 -0.32318592
v 0.11714731 0.15859489 -0.32310014
v 0.12764995 0.15881122 -0.32302510
v 0.13812828 0.15883827 -0.32300367
v 0.14863090 0.15865574 -0.32300367
v 0.15913355 0.15836505 -0.32325022
v 0.15913355 0.16110971 -0.33205178
v 0.16963620 0.16003483 -0.33205178
v 0.18013882 0.15816899 -0.33205178
v 0.18621675 0.15620176 -0.32638062
v 0.19183274 0.15661413 -0.34454116
v -0.02417638 0.09823246 -0.31618542
v -0.01921680 0.09823246 -0.31773987
v 0.19183274 0.13041810 -0.31509191
v -0.05653521 0.11223974 -0.30513256
v -0.05079766 0.09823246 -0.31063217
v -0.05651090 0.14047737 -0.31665712
v -0.05651090 0.13841549 -0.31286204
v -0.05653521 0.11550495 -0.30513256
v 0.10664467 0.15244305 -0.31793285
v 0.11714731 0.15283514 -0.31784708
v 0.12764995 0.15307852 -0.31778278
v 0.13812828 0.15305147 -0.31775061
v 0.14863090 0.15284866 -0.31776131
v 0.15913355 0.15239572 -0.31799719
v 0.16963620 0.15781070 -0.32396851
v 0.18013882 0.15689130 -0.32530857
v 0.19008230 0.15109100 -0.32283212
v 0.19183274 0.15061778 -0.32293933
v 0.19183274 0.15490378 -0.33205178
v 0.19183274 0.13870619 -0.31509191
v -0.05651090 0.13350078 -0.31075011
v 0.12764995 0.14782579 -0.31534922
v -0.05651090 0.12967447 -0.30917419
v 0.19064147 0.13888871 -0.31505977
v 0.14863090 0.14759593 -0.31555291
v 0.13812828 0.14780551 -0.31539210
v 0.15913355 0.14714976 -0.31573515
v 0.16963620 0.14631824 -0.31598171
v 0.17651639 0.14569631 -0.31619612
v 0.18351815 0.14498647 -0.31644271
v 0.16963620 0.15157098 -0.31871545
v 0.18006589 0.14977950 -0.31939083
v 0.19064147 0.14412791 -0.31691441
v 0.19183274 0.14394538 -0.31706449
f 1 2 3
f 1 3 4
f 1 4 5
f 1 5 6
f 1 6 7
f 1 7 8
f 1 8 2
f 2 8 3
f 3 9 4
f 3 8 10
f 3 10 11
f 3 11 12
f 3 12 13
f 3 13 9
f 4 9 14
f 4 14 5
f 5 14 15
f 5 15 16
f 5 16 17
f 5 17 6
f 6 17 18
f 6 18 7
f 7 18 19
f 7 19 20
f 7 20 21
f 7 21 8
f 8 21 10
f 9 22 14
f 9 13 23
f 9 23 22
f 10 24 45
f 10 45 44
f 10 44 43
f 10 43 78
f 10 78 77
f 10 77 107
f 10 107 106
f 10 106 139
f 10 139 158
f 10 158 157
f 10 157 173
f 10 173 159
f 10 159 142
f 10 142 114
f 10 114 83
f 10 83 51
f 10 51 25
f 10 25 11
f 10 21 24
f 11 25 26
f 11 26 27
f 11 27 28
f 11 28 29
f 11 29 30
f 11 30 12
f 12 30 13
f 13 30 23
f 14 22 31
f 14 31 32
f 14 32 33
f 14 33 15
f 15 33 16
f 16 33 34
f 16 34 35
f 16 35 36
f 16 36 37
f 16 37 17
f 17 38 39
f 17 39 18
f 17 37 38
f 18 39 40
f 18 40 19
f 19 40 41
f 19 41 42
f 19 42 43
f 19 43 44
f 19 44 45
f 19 45 20
f 20 45 24
f 20 24 21
f 22 46 31
f 22 23 47
f 22 47 48
f 22 48 46
f 23 30 49
f 23 49 50
f 23 50 47
f 25 51 52
f 25 52 53
f 25 53 26
f 26 53 54
f 26 54 55
f 26 55 56
f 26 56 57
f 26 57 27
f 27 57 56
f 27 56 55
f 27 55 54
f 27 54 87
f 27 87 86
f 27 86 85
f 27 85 117
f 27 117 141
f 27 141 140
f 27 140 116
f 27 116 115
f 27 115 144
f 27 144 118
f 27 118 88
f 27 88 58
f 27 58 30
f 27 30 29
f 27 29 28
f 30 58 59
f 30 59 49
f 31 46 32
f 32 34 33
f 32 46 48
f 32 48 60
f 32 60 61
f 32 61 62
f 32 62 63
f 32 63 64
f 32 64 34
f 34 64 63
f 34 63 36
f 34 36 35
f 36 65 71
f 36 71 37
f 36 63 66
f 36 66 67
f 36 67 68
f 36 68 69
f 36 69 70
f 36 70 94
f 36 94 65
f 37 71 72
f 37 72 38
f 38 72 104
f 38 104 73
f 38 73 39
f 39 73 74
f 39 74 75
f 39 75 40
f 40 75 41
f 41 75 76
f 41 76 77
f 41 77 78
f 41 78 43
f 41 43 42
f 47 49 59
f 47 59 79
f 47 79 80
f 47 80 81
f 47 81 82
f 47 82 48
f 47 50 49
f 48 82 60
f 51 83 84
f 51 84 52
f 52 84 85
f 52 85 86
f 52 86 53
f 53 86 87
f 53 87 54
f 58 88 89
f 58 89 59
f 59 89 79
f 60 82 81
f 60 81 90
f 60 90 91
f 60 91 92
f 60 92 93
f 60 93 61
f 61 93 67
f 61 67 62
f 62 67 66
f 62 66 63
f 65 94 95
f 65 95 96
f 65 96 71
f 67 97 68
f 67 93 97
f 68 97 98
f 68 98 69
f 69 98 128
f 69 128 99
f 69 99 94
f 69 94 70
f 71 96 100
f 71 100 101
f 71 101 72
f 72 101 102
f 72 102 103
f 72 103 104
f 73 104 105
f 73 105 74
f 74 105 106
f 74 106 107
f 74 107 77
f 74 77 75
f 75 77 76
f 79 89 108
f 79 108 80
f 80 109 81
f 80 108 110
f 80 110 111
f 80 111 90
f 80 90 109
f 81 109 90
f 83 112 113
f 83 113 84
f 83 114 115
f 83 115 116
f 83 116 112
f 84 113 117
f 84 117 85
f 88 118 143
f 88 143 147
f 88 147 128
f 88 128 98
f 88 98 119
f 88 119 120
f 88 120 89
f 89 120 108
f 90 111 110
f 90 110 91
f 91 110 98
f 91 98 92
f 92 98 97
f 92 97 93
f 94 99 95
f 95 99 121
f 95 121 122
f 95 122 123
f 95 123 124
f 95 124 125
f 95 125 96
f 96 125 126
f 96 126 127
f 96 127 100
f 98 110 119
f 99 128 121
f 100 127 101
f 101 127 129
f 101 129 130
f 101 130 131
f 101 131 102
f 102 131 132
f 102 132 133
f 102 133 103
f 103 133 134
f 103 134 135
f 103 135 104
f 104 135 136
f 104 136 105
f 105 136 137
f 105 137 138
f 105 138 139
f 105 139 106
f 108 120 119
f 108 119 110
f 112 116 140
f 112 140 141
f 112 141 113
f 113 141 117
f 114 142 143
f 114 143 144
f 114 144 115
f 118 144 143
f 121 128 122
f 122 128 123
f 123 128 145
f 123 145 125
f 123 125 124
f 125 145 146
f 125 146 126
f 126 146 127
f 127 146 129
f 128 147 146
f 128 146 145
f 129 146 148
f 129 148 149
f 129 149 130
f 130 149 150
f 130 150 131
f 131 150 132
f 132 150 151
f 132 151 133
f 133 151 152
f 133 152 134
f 134 152 153
f 134 153 154
f 134 154 135
f 135 154 136
f 136 154 155
f 136 155 138
f 136 138 137
f 138 155 156
f 138 156 157
f 138 157 158
f 138 158 139
f 142 159 147
f 142 147 143
f 146 147 160
f 146 160 161
f 146 161 150
f 146 150 149
f 146 149 148
f 147 162 160
f 147 159 163
f 147 163 164
f 147 164 165
f 147 165 162
f 150 161 151
f 151 161 165
f 151 165 152
f 152 165 164
f 152 164 166
f 152 166 153
f 153 166 167
f 153 167 168
f 153 168 169
f 153 169 170
f 153 170 154
f 154 170 155
f 155 171 172
f 155 172 156
f 155 170 171
f 156 172 173
f 156 173 157
f 159 173 172
f 159 172 169
f 159 169 163
f 160 162 161
f 161 162 165
f 163 169 168
f 163 168 167
f 163 167 166
f 163 166 164
f 169 172 170
f 170 172 171

