# https://github.com/mikedh/trimesh
v -0.18959941 0.08768431 0.25692248
v -0.18959941 0.08511330 0.25731608
v -0.18959941 0.09883601 0.25884504
v 0.11983530 0.14015410 0.31387284
v 0.11514406 0.13387657 0.31314620
v -0.18734761 0.08511330 0.25796703
v -0.18959941 0.08511330 0.27832808
v -0.18959941 0.16223254 0.27083460
v 0.11251696 0.14549963 0.31367604
v 0.11983530 0.14032549 0.31390313
v 0.19380691 0.13669396 0.37646983
v 0.19380691 0.13474428 0.37646983
v 0.19380691 0.13358734 0.37696938
v 0.11983530 0.13864363 0.31455408
v 0.11983530 0.12942018 0.31873224
v 0.09165028 0.12423533 0.31352468
v -0.18490818 0.08511330 0.25889047
v 0.01700315 0.12424604 0.37684828
v -0.06691389 0.12423533 0.34533028
v -0.18959941 0.08523114 0.27838863
v -0.18742268 0.08511330 0.27847944
v 0.06466623 0.12350689 0.38844425
v 0.05412030 0.12394609 0.38773273
v 0.04852833 0.12432103 0.38729372
v -0.18959941 0.16331451 0.27107680
v 0.11983530 0.14996674 0.31634041
v -0.18959941 0.16597121 0.27190943
v 0.19380691 0.13938281 0.37727216
v 0.19380691 0.12888455 0.38129894
v 0.11983530 0.12720269 0.32157826
v 0.11469370 0.12394609 0.32328889
v -0.01294578 0.10305673 0.30282189
v -0.18111763 0.08511330 0.26055566
v 0.04151023 0.12777046 0.38615834
v 0.03832018 0.13476572 0.38721803
v -0.18959941 0.16116129 0.30616745
v -0.18959941 0.15337331 0.30382099
v -0.18959941 0.14909903 0.30248884
v -0.08965707 0.12346403 0.33553578
v -0.18310673 0.14453551 0.30354853
v -0.17758982 0.08511330 0.27520956
v 0.19380691 0.12481381 0.38953420
v 0.19380691 0.12572437 0.39277381
v 0.07513709 0.12357116 0.38868646
v 0.13814994 0.12999866 0.40293162
v 0.12764154 0.13030931 0.40293162
v 0.13814994 0.13385515 0.40904751
v 0.12764154 0.13435863 0.40860850
v 0.12186192 0.13480856 0.40827543
v 0.08564549 0.13223757 0.39937411
v 0.07776419 0.13356592 0.39843552
v 0.04447509 0.13064141 0.38795981
v 0.11983530 0.15870814 0.32153285
v 0.19380691 0.14727790 0.38187422
v -0.18959941 0.18487877 0.27914553
v -0.18959941 0.18779257 0.28029606
v 0.19380691 0.12616358 0.38514409
v 0.19380691 0.12481381 0.38864105
v -0.01928835 0.10213546 0.30176220
v -0.17702686 0.08511330 0.26682294
v -0.01928835 0.10136415 0.30846848
v -0.18959941 0.17149886 0.30793864
v 0.03832018 0.13497996 0.38721803
v -0.17698934 0.08511330 0.26950242
v -0.02979674 0.10016436 0.30846848
v 0.19380691 0.13070568 0.40173568
v 0.19061684 0.13071640 0.40209902
v 0.16963758 0.13061999 0.40293162
v 0.14865834 0.13019148 0.40293162
v 0.15912920 0.13381230 0.40921401
v 0.14865834 0.13371589 0.40927456
v 0.14865834 0.14016480 0.41137879
v 0.13814994 0.14016480 0.41062189
v 0.12764154 0.14016480 0.40927456
v 0.12186192 0.14016480 0.40827543
v 0.11660772 0.14015410 0.40721577
v 0.10662475 0.14015410 0.40509640
v 0.07776419 0.13734742 0.39843552
v 0.11983530 0.16246822 0.32946533
v 0.19380691 0.15207710 0.38968559
v 0.19380691 0.14877766 0.38344860
v -0.18959941 0.18922804 0.28124976
v -0.18959941 0.19349161 0.28750189
v -0.18959941 0.19400581 0.28842533
v -0.18959941 0.18239346 0.30633396
v 0.19380691 0.13985415 0.40588359
v 0.18374887 0.13592266 0.40795756
v 0.17676828 0.13461573 0.40844197
v 0.16963758 0.13421938 0.40880527
v 0.15912920 0.14016480 0.41156045
v 0.14865834 0.14872410 0.41028885
v 0.13814994 0.14779210 0.40974386
v 0.15912920 0.14940970 0.41053105
v 0.12764154 0.14639948 0.40886585
v 0.12219969 0.14546750 0.40821491
v 0.11983530 0.14323930 0.40780617
v 0.11983530 0.14016480 0.40786672
v 0.09615388 0.14015410 0.40258343
v 0.08523266 0.14056117 0.39954064
v 0.18588808 0.15603002 0.39710337
v 0.19380691 0.15305194 0.39289491
v -0.18959941 0.19454144 0.28989376
v -0.18959941 0.18701055 0.30475958
v 0.08849776 0.14626023 0.39854151
v 0.19380691 0.14240372 0.40489960
v 0.18671373 0.14636734 0.40868417
v 0.18671373 0.14290721 0.40868417
v 0.19039166 0.13972560 0.40697354
v 0.18022105 0.13972560 0.40932000
v 0.16963758 0.14016480 0.41083383
v 0.16963758 0.14916330 0.41021315
v 0.15912920 0.15465882 0.40530834
v -0.18959941 0.19008504 0.30133831
v 0.16963758 0.15441242 0.40558084
v 0.18588808 0.15603002 0.39798137
v 0.19380691 0.15085588 0.39905621
v -0.18959941 0.19423077 0.29543437
v 0.19380691 0.14984891 0.40185679
v 0.18982871 0.15073805 0.40264398
v 0.18014598 0.15300910 0.40430921
v 0.18014598 0.14775996 0.40941081
v 0.16963758 0.15667277 0.40032784
v -0.18959941 0.19281672 0.29762944
v 0.18014598 0.15639424 0.39905621
f 1 2 7
f 1 7 20
f 1 20 38
f 1 38 37
f 1 37 36
f 1 36 62
f 1 62 85
f 1 85 103
f 1 103 113
f 1 113 123
f 1 123 117
f 1 117 102
f 1 102 84
f 1 84 83
f 1 83 82
f 1 82 56
f 1 56 55
f 1 55 27
f 1 27 25
f 1 25 8
f 1 8 3
f 1 3 4
f 1 4 5
f 1 5 2
f 2 6 17
f 2 17 33
f 2 33 60
f 2 60 64
f 2 64 41
f 2 41 21
f 2 21 7
f 2 5 6
f 3 8 9
f 3 9 4
f 4 9 10
f 4 10 11
f 4 11 12
f 4 12 13
f 4 13 14
f 4 14 5
f 5 14 15
f 5 15 16
f 5 16 6
f 6 16 17
f 7 18 19
f 7 19 20
f 7 21 22
f 7 22 23
f 7 23 24
f 7 24 18
f 8 25 9
f 9 26 10
f 9 25 27
f 9 27 26
f 10 26 11
f 11 28 54
f 11 54 81
f 11 81 80
f 11 80 101
f 11 101 116
f 11 116 118
f 11 118 105
f 11 105 86
f 11 86 66
f 11 66 43
f 11 43 42
f 11 42 58
f 11 58 57
f 11 57 29
f 11 29 13
f 11 13 12
f 11 26 28
f 13 29 15
f 13 15 14
f 15 30 31
f 15 31 16
f 15 29 30
f 16 31 17
f 17 32 33
f 17 31 32
f 18 24 34
f 18 34 35
f 18 35 19
f 19 36 37
f 19 37 38
f 19 38 39
f 19 39 20
f 19 35 36
f 20 39 40
f 20 40 38
f 21 41 42
f 21 42 43
f 21 43 44
f 21 44 22
f 22 44 45
f 22 45 46
f 22 46 47
f 22 47 48
f 22 48 23
f 23 48 49
f 23 49 24
f 24 49 50
f 24 50 51
f 24 51 52
f 24 52 34
f 26 53 54
f 26 54 28
f 26 27 55
f 26 55 56
f 26 56 53
f 29 57 30
f 30 57 31
f 31 57 58
f 31 58 32
f 32 59 33
f 32 58 59
f 33 59 61
f 33 61 60
f 34 52 35
f 35 62 36
f 35 52 51
f 35 51 78
f 35 78 63
f 35 63 62
f 38 40 39
f 41 64 65
f 41 65 42
f 42 65 58
f 43 66 67
f 43 67 68
f 43 68 69
f 43 69 45
f 43 45 44
f 45 69 70
f 45 70 71
f 45 71 47
f 45 47 46
f 47 71 72
f 47 72 48
f 48 72 73
f 48 73 49
f 49 73 74
f 49 74 75
f 49 75 97
f 49 97 76
f 49 76 77
f 49 77 51
f 49 51 50
f 51 77 78
f 53 79 80
f 53 80 81
f 53 81 54
f 53 56 82
f 53 82 83
f 53 83 84
f 53 84 79
f 58 65 61
f 58 61 59
f 60 61 65
f 60 65 64
f 62 63 85
f 63 78 85
f 66 86 87
f 66 87 88
f 66 88 89
f 66 89 67
f 67 89 70
f 67 70 68
f 68 70 69
f 70 89 90
f 70 90 71
f 71 90 72
f 72 91 92
f 72 92 73
f 72 90 93
f 72 93 91
f 73 92 94
f 73 94 74
f 74 94 95
f 74 95 75
f 75 96 97
f 75 95 96
f 76 97 96
f 76 96 77
f 77 96 95
f 77 95 98
f 77 98 78
f 78 98 95
f 78 95 99
f 78 99 85
f 79 100 101
f 79 101 80
f 79 84 102
f 79 102 100
f 85 99 104
f 85 104 103
f 86 105 106
f 86 106 107
f 86 107 108
f 86 108 87
f 87 108 107
f 87 107 109
f 87 109 110
f 87 110 88
f 88 110 89
f 89 110 90
f 90 110 111
f 90 111 93
f 91 93 112
f 91 112 92
f 92 112 113
f 92 113 103
f 92 103 94
f 93 111 114
f 93 114 112
f 94 103 95
f 95 104 99
f 95 103 104
f 100 115 101
f 100 102 115
f 101 115 116
f 102 117 115
f 105 118 106
f 106 119 120
f 106 120 121
f 106 121 110
f 106 110 107
f 106 118 119
f 107 110 109
f 110 121 111
f 111 121 114
f 112 114 122
f 112 122 117
f 112 117 123
f 112 123 113
f 114 121 120
f 114 120 115
f 114 115 124
f 114 124 122
f 115 120 119
f 115 119 118
f 115 118 116
f 115 117 124
f 117 122 124

