# https://github.com/mikedh/trimesh
v -0.28099890 -0.51080975 -0.31103638
v -0.28065168 -0.51080975 -0.30053276
v -0.27851612 -0.50217109 -0.30053276
v -0.21253998 -0.25342207 -0.21883308
v -0.27865500 -0.50189860 -0.31103638
v -0.27764801 -0.50358817 -0.31857641
v -0.27830778 -0.51080975 -0.32006512
v -0.27780425 -0.51925761 -0.31904508
v -0.27853349 -0.52217350 -0.31110531
v -0.27835985 -0.52176473 -0.30101519
v -0.27752647 -0.51854909 -0.29330977
v -0.27797789 -0.51080975 -0.29249648
v -0.27747437 -0.50391518 -0.29354409
v -0.21193230 -0.25342207 -0.21639326
v -0.20418878 -0.25342207 -0.27803675
v -0.27573817 -0.51080975 -0.32531693
v -0.20246993 -0.25342207 -0.28328856
v -0.27492216 -0.52217350 -0.32214657
v -0.27627640 -0.52626117 -0.31464790
v -0.27672782 -0.52672442 -0.30764546
v -0.27672782 -0.52672442 -0.30483346
v -0.27568607 -0.52555265 -0.29784480
v -0.27509577 -0.51080975 -0.28724467
v -0.27386306 -0.52176473 -0.28990503
v -0.26858497 -0.52132870 -0.28219958
v -0.20859877 -0.25342207 -0.20832943
v -0.26842872 -0.50031802 -0.32925928
v -0.27049481 -0.51080975 -0.33136826
v -0.26947045 -0.52132870 -0.33023795
v -0.19996979 -0.25342207 -0.28601785
v -0.26754324 -0.52743301 -0.32828057
v -0.26957459 -0.52822327 -0.32154006
v -0.27219630 -0.52827778 -0.31110531
v -0.27183168 -0.52811424 -0.30101519
v -0.26855023 -0.52770550 -0.29004287
v -0.26676193 -0.52696969 -0.28415699
v -0.26983504 -0.51080975 -0.28098656
v -0.20738342 -0.25342207 -0.20638585
v -0.26106716 -0.52160122 -0.27715455
v -0.25775099 -0.51827656 -0.27335008
v -0.26365412 -0.51080975 -0.27573475
v -0.26450487 -0.51080975 -0.33662007
v -0.19722657 -0.25342207 -0.28876092
v -0.26143177 -0.52209173 -0.33564140
v -0.26082410 -0.52825049 -0.33026552
v -0.26082410 -0.53048515 -0.32154006
v -0.25031999 -0.52615215 -0.33695089
v -0.26082410 -0.53108465 -0.31103638
v -0.26082410 -0.53086660 -0.30053276
v -0.26082410 -0.52958580 -0.29004287
v -0.24507663 -0.52656095 -0.27430118
v -0.25207358 -0.52528012 -0.27551420
v -0.26082410 -0.52759648 -0.28259934
v -0.20273036 -0.25342207 -0.20112024
v -0.24927827 -0.52160122 -0.27246788
v -0.23927768 -0.51034646 -0.26578247
v -0.23542328 -0.50653129 -0.26349428
v -0.20233104 -0.25342207 -0.20078941
v -0.25771626 -0.50418770 -0.33794337
v -0.25926150 -0.51080975 -0.33863261
v -0.25834129 -0.51912136 -0.33841206
v -0.19253879 -0.25342207 -0.29099401
v -0.25031999 -0.52868652 -0.33168532
v -0.25031999 -0.53124812 -0.32154006
v -0.25031999 -0.52089270 -0.33914262
v -0.23981589 -0.51980263 -0.33875666
v -0.23981589 -0.52506211 -0.33615144
v -0.23981589 -0.52844125 -0.33089959
v -0.25031999 -0.53179317 -0.31103638
v -0.25031999 -0.53160241 -0.30053276
v -0.25031999 -0.53064862 -0.29004287
v -0.24927827 -0.52792349 -0.27922217
v -0.23806232 -0.52598867 -0.27551420
v -0.22931180 -0.51895786 -0.27154432
v -0.24085763 -0.52200997 -0.27147541
v -0.24085763 -0.52784175 -0.27923597
v -0.22931180 -0.50672205 -0.26332887
v -0.21403311 -0.47442938 -0.25321118
v -0.19861553 -0.25342207 -0.20004506
v -0.25031999 -0.51080975 -0.34052105
v -0.18733015 -0.25342207 -0.29336491
v -0.12998299 -0.25342207 -0.30590861
v -0.23981589 -0.53097562 -0.32154006
v -0.23981589 -0.53162964 -0.31103638
v -0.23981589 -0.51080975 -0.34005238
v -0.23342663 -0.51764980 -0.33790203
v -0.22887774 -0.52200997 -0.33230560
v -0.22434622 -0.52637019 -0.32650241
v -0.23132581 -0.52762377 -0.32887332
v -0.23981589 -0.53138437 -0.30053276
v -0.23981589 -0.53043057 -0.29004287
v -0.23266269 -0.52740572 -0.28253041
v -0.22922500 -0.52413560 -0.27923597
v -0.22299198 -0.51699576 -0.27323981
v -0.22339132 -0.50612255 -0.26346671
v -0.22931180 -0.51198155 -0.26632005
v -0.21882506 -0.48982632 -0.25809082
v -0.21326919 -0.47442938 -0.25321118
v -0.19595913 -0.25342207 -0.19970045
v -0.12446183 -0.25342207 -0.30612916
v -0.11807256 -0.25342207 -0.30604648
v -0.22842634 -0.52874103 -0.32242225
v -0.22931180 -0.53051237 -0.31103638
v -0.23299257 -0.51080975 -0.33816391
v -0.22188080 -0.51936663 -0.32873544
v -0.11229096 -0.25342207 -0.30342743
v -0.21189758 -0.51833107 -0.31832830
v -0.21505749 -0.52533463 -0.31371057
v -0.21316501 -0.52683344 -0.30670813
v -0.22203706 -0.52754197 -0.31949998
v -0.22931180 -0.53004906 -0.30053276
v -0.22922500 -0.52822327 -0.29016695
v -0.22203706 -0.52713323 -0.29376464
v -0.21504012 -0.52607041 -0.29741747
v -0.20894601 -0.51830381 -0.29082860
v -0.20583819 -0.51399813 -0.28785118
v -0.20174072 -0.50702183 -0.28341260
v -0.21639438 -0.50320665 -0.26620977
v -0.21267887 -0.49620309 -0.26302561
v -0.21946747 -0.49993650 -0.26208828
v -0.20271300 -0.46423743 -0.25305955
v -0.19182694 -0.25342207 -0.19996235
v -0.21866881 -0.52797800 -0.31054014
v -0.21316501 -0.52683344 -0.30441990
v -0.10579752 -0.25342207 -0.29842374
v -0.20516107 -0.51080975 -0.31329700
v -0.20148029 -0.51080975 -0.30804519
v -0.20285190 -0.51639623 -0.30622566
v -0.20271300 -0.51650525 -0.30053276
v -0.21865145 -0.52773273 -0.30076707
v -0.20283454 -0.51631449 -0.29485362
v -0.19851136 -0.49933697 -0.28021464
v -0.19210473 -0.49582158 -0.28401911
v -0.19528201 -0.49162488 -0.27701668
v -0.19253879 -0.48462132 -0.27425981
v -0.20316442 -0.48443057 -0.26390781
v -0.21033499 -0.48982632 -0.26127500
v -0.18123603 -0.46538198 -0.27343276
v -0.19380623 -0.44783218 -0.25445176
v -0.19262560 -0.44246371 -0.25334902
v -0.17456897 -0.42679425 -0.26597545
v -0.17276330 -0.41627529 -0.26469353
v -0.16908253 -0.42679425 -0.27121350
v -0.10861019 -0.25342207 -0.28025601
v -0.10362726 -0.25342207 -0.29002907
v -0.18182634 -0.47475638 -0.29573581
v -0.19299020 -0.49342345 -0.30486100
v -0.19163596 -0.49691162 -0.29787237
v -0.19934474 -0.51080975 -0.30053276
v -0.19151442 -0.49702064 -0.29004287
v -0.18132285 -0.47571018 -0.28290260
v -0.18318058 -0.47238554 -0.27590016
v -0.17977761 -0.46887012 -0.27947032
v -0.17142643 -0.44309047 -0.27405307
v -0.17965607 -0.45832391 -0.27201299
v -0.17054096 -0.43728597 -0.27290898
v -0.10621422 -0.25342207 -0.28266828
v -0.17870117 -0.46881564 -0.29004287
v -0.10477316 -0.25342207 -0.28583864
v -0.17253760 -0.45047555 -0.27953922
v -0.18130548 -0.47581920 -0.29004287
v -0.18366673 -0.48105142 -0.29004287
v -0.18781628 -0.48982632 -0.29004287
v -0.17545444 -0.45832391 -0.27953922
f 1 2 3
f 1 3 4
f 1 4 5
f 1 5 6
f 1 6 7
f 1 7 8
f 1 8 9
f 1 9 10
f 1 10 2
f 2 10 11
f 2 11 12
f 2 12 13
f 2 13 14
f 2 14 4
f 2 4 3
f 4 14 26
f 4 26 38
f 4 38 54
f 4 54 58
f 4 58 79
f 4 79 99
f 4 99 122
f 4 122 144
f 4 144 157
f 4 157 159
f 4 159 145
f 4 145 125
f 4 125 106
f 4 106 101
f 4 101 100
f 4 100 82
f 4 82 81
f 4 81 62
f 4 62 43
f 4 43 30
f 4 30 17
f 4 17 15
f 4 15 5
f 5 15 6
f 6 16 7
f 6 15 17
f 6 17 16
f 7 16 8
f 8 16 18
f 8 18 19
f 8 19 9
f 9 19 20
f 9 20 21
f 9 21 10
f 10 21 22
f 10 22 11
f 11 23 12
f 11 22 24
f 11 24 25
f 11 25 23
f 12 23 26
f 12 26 14
f 12 14 13
f 16 17 27
f 16 27 28
f 16 28 29
f 16 29 18
f 17 30 27
f 18 29 31
f 18 31 19
f 19 31 32
f 19 32 33
f 19 33 20
f 20 33 21
f 21 33 34
f 21 34 35
f 21 35 22
f 22 35 36
f 22 36 24
f 23 25 37
f 23 37 38
f 23 38 26
f 24 36 25
f 25 36 39
f 25 39 40
f 25 40 41
f 25 41 37
f 27 42 28
f 27 30 43
f 27 43 42
f 28 42 29
f 29 44 31
f 29 42 44
f 31 45 46
f 31 46 32
f 31 44 47
f 31 47 45
f 32 46 33
f 33 46 48
f 33 48 49
f 33 49 34
f 34 49 35
f 35 49 50
f 35 50 36
f 36 51 52
f 36 52 39
f 36 50 53
f 36 53 51
f 37 41 54
f 37 54 38
f 39 52 40
f 40 52 55
f 40 55 56
f 40 56 57
f 40 57 58
f 40 58 41
f 41 58 54
f 42 43 59
f 42 59 60
f 42 60 61
f 42 61 44
f 43 62 59
f 44 61 47
f 45 47 63
f 45 63 46
f 46 64 48
f 46 63 64
f 47 61 65
f 47 65 66
f 47 66 67
f 47 67 68
f 47 68 63
f 48 64 69
f 48 69 70
f 48 70 49
f 49 71 50
f 49 70 71
f 50 71 72
f 50 72 53
f 51 73 74
f 51 74 75
f 51 75 55
f 51 55 52
f 51 53 72
f 51 72 76
f 51 76 73
f 55 75 56
f 56 75 57
f 57 75 77
f 57 77 78
f 57 78 79
f 57 79 58
f 59 80 60
f 59 62 81
f 59 81 82
f 59 82 80
f 60 80 61
f 61 80 65
f 63 68 83
f 63 83 64
f 64 83 84
f 64 84 69
f 65 80 85
f 65 85 66
f 66 85 86
f 66 86 67
f 67 86 87
f 67 87 88
f 67 88 89
f 67 89 68
f 68 89 83
f 69 84 70
f 70 84 90
f 70 90 91
f 70 91 71
f 71 91 76
f 71 76 72
f 73 76 92
f 73 92 93
f 73 93 94
f 73 94 74
f 74 94 95
f 74 95 96
f 74 96 75
f 75 96 77
f 76 91 92
f 77 96 95
f 77 95 97
f 77 97 98
f 77 98 78
f 78 98 99
f 78 99 79
f 80 82 100
f 80 100 101
f 80 101 85
f 83 89 102
f 83 102 103
f 83 103 84
f 84 103 90
f 85 104 86
f 85 101 104
f 86 105 87
f 86 104 101
f 86 101 106
f 86 106 105
f 87 105 88
f 88 105 107
f 88 107 108
f 88 108 109
f 88 109 110
f 88 110 102
f 88 102 89
f 90 103 111
f 90 111 91
f 91 111 112
f 91 112 92
f 92 113 114
f 92 114 93
f 92 112 113
f 93 114 94
f 94 114 115
f 94 115 116
f 94 116 117
f 94 117 118
f 94 118 95
f 95 118 119
f 95 119 120
f 95 120 98
f 95 98 97
f 98 120 119
f 98 119 121
f 98 121 122
f 98 122 99
f 102 110 123
f 102 123 103
f 103 123 109
f 103 109 124
f 103 124 111
f 105 106 125
f 105 125 107
f 107 126 127
f 107 127 128
f 107 128 108
f 107 125 126
f 108 128 109
f 109 123 110
f 109 128 129
f 109 129 124
f 111 124 130
f 111 130 112
f 112 130 113
f 113 130 114
f 114 130 124
f 114 124 131
f 114 131 115
f 115 131 116
f 116 131 117
f 117 132 119
f 117 119 118
f 117 131 133
f 117 133 132
f 119 134 135
f 119 135 136
f 119 136 137
f 119 137 121
f 119 132 134
f 121 137 136
f 121 136 138
f 121 138 139
f 121 139 140
f 121 140 122
f 122 141 142
f 122 142 143
f 122 143 144
f 122 140 141
f 124 129 131
f 125 145 146
f 125 146 147
f 125 147 126
f 126 147 127
f 127 147 128
f 128 147 148
f 128 148 149
f 128 149 129
f 129 149 150
f 129 150 131
f 131 150 133
f 132 133 134
f 133 151 152
f 133 152 135
f 133 135 134
f 133 150 151
f 135 152 138
f 135 138 136
f 138 152 153
f 138 153 154
f 138 154 155
f 138 155 140
f 138 140 139
f 140 155 154
f 140 154 156
f 140 156 141
f 141 156 143
f 141 143 142
f 143 156 157
f 143 157 144
f 145 158 146
f 145 159 154
f 145 154 160
f 145 160 158
f 146 158 161
f 146 161 148
f 146 148 147
f 148 150 149
f 148 161 162
f 148 162 163
f 148 163 150
f 150 163 151
f 151 161 158
f 151 158 160
f 151 160 164
f 151 164 153
f 151 153 152
f 151 163 162
f 151 162 161
f 153 164 154
f 154 164 160
f 154 159 157
f 154 157 156

