# https://github.com/mikedh/trimesh
v 0.30617455 -0.46216637 0.27639051
v 0.30617455 -0.46883213 0.27762766
v 0.30053850 -0.46216637 0.27866422
v 0.31001226 -0.46216637 0.27661619
v 0.31667726 -0.47933509 0.27891500
v 0.30973416 -0.48701638 0.28127232
v 0.30621163 -0.47886483 0.28030263
v 0.30044578 -0.47505485 0.28175716
v 0.29924071 -0.46883213 0.28068718
v 0.29799856 -0.46216637 0.27978436
v 0.31683485 -0.49024019 0.28098812
v 0.31720564 -0.46216637 0.27878961
v 0.31667726 -0.46883213 0.27822954
v 0.32359255 -0.48983126 0.28138100
v 0.32277682 -0.49604037 0.28192436
v 0.32042228 -0.49604037 0.28192436
v 0.30838076 -0.50032744 0.28984895
v 0.30273545 -0.48205456 0.28365474
v 0.31343283 -0.49401610 0.28271847
v 0.31061479 -0.50667285 0.29188027
v 0.28771833 -0.48983126 0.30102536
v 0.27869879 -0.47679283 0.30166066
v 0.28028391 -0.46290246 0.29296699
v 0.28014488 -0.46216637 0.29285831
v 0.31954165 -0.46216637 0.27991811
v 0.32371306 -0.47933509 0.28096302
v 0.33766416 -0.51082361 0.28851983
v 0.32716145 -0.51082361 0.28703188
v 0.33766416 -0.51921371 0.29091896
v 0.28983186 -0.49580862 0.30270557
v 0.31708513 -0.51043511 0.29019170
v 0.32716145 -0.51877070 0.29091061
v 0.32085796 -0.51699861 0.29200566
v 0.31385922 -0.51367257 0.29492305
v 0.28040445 -0.48379258 0.30446937
v 0.27782742 -0.47990762 0.30816419
v 0.27412875 -0.46883213 0.30845678
v 0.27724341 -0.46883213 0.29962098
v 0.27633499 -0.46216637 0.29789060
v 0.27947744 -0.46216637 0.29372768
v 0.32232258 -0.46216637 0.28179058
v 0.32296219 -0.46883213 0.28128903
v 0.34445894 -0.51082361 0.29166294
v 0.34406960 -0.51759160 0.29201401
v 0.33766416 -0.52446179 0.29460540
v 0.28995236 -0.50625710 0.31297913
v 0.29980617 -0.51727805 0.31247757
v 0.32716145 -0.52401878 0.29565032
v 0.32130291 -0.52690861 0.30263870
v 0.31758571 -0.52063820 0.29878507
v 0.31023475 -0.51727805 0.30192814
v 0.27932911 -0.48609626 0.31146611
v 0.27244165 -0.46216637 0.30845678
v 0.27932911 -0.48609626 0.31552874
v 0.27358185 -0.46216637 0.30523006
v 0.32255433 -0.46216637 0.28221691
v 0.36369384 -0.50679552 0.31429992
v 0.35421079 -0.50464858 0.30227924
v 0.35523048 -0.51082361 0.30122597
v 0.34970565 -0.51082361 0.29597632
v 0.34381932 -0.50426690 0.29201401
v 0.35503581 -0.51901606 0.30149346
v 0.34842641 -0.52180369 0.29786554
v 0.34577526 -0.52761745 0.30124268
v 0.33766416 -0.52830588 0.29985505
v 0.29833226 -0.51941138 0.31895605
v 0.29307629 -0.51232987 0.31895605
v 0.28957229 -0.50708178 0.31895605
v 0.30690686 -0.52078133 0.30915059
v 0.31056845 -0.52709949 0.31282032
v 0.30317113 -0.52466626 0.31895605
v 0.32716145 -0.52777422 0.30090832
v 0.32716145 -0.53034377 0.30845678
v 0.31735396 -0.52806731 0.30897504
v 0.31431346 -0.52427779 0.30582358
v 0.28614245 -0.50032744 0.31895605
v 0.27854120 -0.47840818 0.31899785
v 0.27655745 -0.46883213 0.31895605
v 0.27570464 -0.46216637 0.31895605
v 0.28976696 -0.50689775 0.32573543
v 0.28176711 -0.48968813 0.31899785
v 0.28058056 -0.48128439 0.32251710
v 0.32454734 -0.46216637 0.28721578
v 0.36474132 -0.50438278 0.32129666
v 0.36540873 -0.51050327 0.31826223
v 0.36424074 -0.51379523 0.31307945
v 0.36103339 -0.51050327 0.30913385
v 0.36424074 -0.51673963 0.31307945
v 0.35277397 -0.52601577 0.30399291
v 0.34883428 -0.52864665 0.30787996
v 0.33766416 -0.53082085 0.30845678
v 0.30160451 -0.52599534 0.32944696
v 0.29793366 -0.52074725 0.32944696
v 0.30842711 -0.52802644 0.31895605
v 0.31667726 -0.53056188 0.31895605
v 0.32716145 -0.53179549 0.31895605
v 0.27988531 -0.47428468 0.32424747
v 0.27967211 -0.46883213 0.32443973
v 0.27950526 -0.46216637 0.32454841
v 0.28845990 -0.50032744 0.32758284
v 0.29927779 -0.51905696 0.33743010
v 0.29777610 -0.51082361 0.33894312
v 0.32517770 -0.46216637 0.29111122
v 0.36510284 -0.50387159 0.32944696
v 0.36714220 -0.51082361 0.32944696
v 0.36515845 -0.51848443 0.31895605
v 0.36144125 -0.52373252 0.31895605
v 0.35474846 -0.52742662 0.31099801
v 0.34816687 -0.53042550 0.31895605
v 0.33766416 -0.53165918 0.31895605
v 0.30685125 -0.52864665 0.32944696
v 0.30868668 -0.52788331 0.33994623
v 0.30328235 -0.52206266 0.34053976
v 0.31667726 -0.53118209 0.32944696
v 0.32716145 -0.53170004 0.32944696
v 0.30186408 -0.51082361 0.34419277
v 0.28517839 -0.46216637 0.32714816
v 0.30711079 -0.51082361 0.34893248
v 0.31363677 -0.51082361 0.35418213
v 0.31888347 -0.51082361 0.35753421
v 0.32034812 -0.50423283 0.35664813
v 0.30871450 -0.52132657 0.34772040
v 0.32556704 -0.46216637 0.29814138
v 0.36466716 -0.50449862 0.33743846
v 0.36594639 -0.51967718 0.32944696
v 0.36528825 -0.51099400 0.34053976
v 0.36506576 -0.51802096 0.33994623
v 0.36163592 -0.52493209 0.32944696
v 0.35618528 -0.52801962 0.31895605
v 0.35638921 -0.52787648 0.32944696
v 0.34816687 -0.53013248 0.32944696
v 0.33766416 -0.53141378 0.32944696
v 0.31667726 -0.52994842 0.33994623
v 0.31072604 -0.52697001 0.34582283
v 0.32716145 -0.53080039 0.33994623
v 0.29567184 -0.46216637 0.32915438
v 0.32716145 -0.50281515 0.35778499
v 0.31943967 -0.51908422 0.35719985
v 0.32716145 -0.51082361 0.36069403
v 0.31623232 -0.52208313 0.35315392
v 0.32438049 -0.46216637 0.30292290
v 0.35870667 -0.50010251 0.34002149
v 0.35599061 -0.50327180 0.35044553
v 0.36363820 -0.50760659 0.34443519
v 0.32337009 -0.46216637 0.30667624
v 0.36406462 -0.51460630 0.34548847
v 0.36406462 -0.51641247 0.34548847
v 0.35995808 -0.52326905 0.33994623
v 0.35355265 -0.52662917 0.34537979
v 0.35471137 -0.52711307 0.33994623
v 0.34816687 -0.52880337 0.33994623
v 0.33766416 -0.53043233 0.33994623
v 0.31667726 -0.52771289 0.34784579
v 0.32703165 -0.52816275 0.35113935
v 0.32343496 -0.52608393 0.35510166
v 0.33839647 -0.52803320 0.35138177
v 0.30604478 -0.46216637 0.32708129
v 0.33766416 -0.50229035 0.35831999
v 0.33766416 -0.51082361 0.36178072
v 0.32703165 -0.52208313 0.35826148
v 0.35184699 -0.49571321 0.34261285
v 0.32133073 -0.46216637 0.31194260
v 0.34827812 -0.49830316 0.35016966
v 0.35362681 -0.50537785 0.35586235
v 0.36045867 -0.51099400 0.34957617
v 0.35454449 -0.51082361 0.35658126
v 0.35471137 -0.51777560 0.35671500
v 0.35763137 -0.52059048 0.34893248
v 0.34816687 -0.52516381 0.35306199
v 0.34238250 -0.52649968 0.35550289
v 0.34816687 -0.52729031 0.34781234
v 0.33043370 -0.52688821 0.35609642
v 0.33538379 -0.52688821 0.35609642
v 0.31141200 -0.46216637 0.32477413
v 0.34816687 -0.50389205 0.35706607
v 0.33839647 -0.52232849 0.35870451
v 0.34816687 -0.51991575 0.35814444
v 0.34816687 -0.51082361 0.35951536
v 0.31656602 -0.46216637 0.31932386
v 0.31227410 -0.46216637 0.32411373
f 1 2 3
f 1 3 10
f 1 10 24
f 1 24 40
f 1 40 39
f 1 39 55
f 1 55 53
f 1 53 79
f 1 79 99
f 1 99 117
f 1 117 136
f 1 136 157
f 1 157 174
f 1 174 180
f 1 180 179
f 1 179 162
f 1 162 145
f 1 145 141
f 1 141 123
f 1 123 103
f 1 103 83
f 1 83 56
f 1 56 41
f 1 41 25
f 1 25 12
f 1 12 4
f 1 4 5
f 1 5 2
f 2 6 7
f 2 7 8
f 2 8 9
f 2 9 10
f 2 10 3
f 2 5 11
f 2 11 6
f 4 12 13
f 4 13 5
f 5 13 14
f 5 14 15
f 5 15 16
f 5 16 11
f 6 17 18
f 6 18 8
f 6 8 7
f 6 11 16
f 6 16 19
f 6 19 20
f 6 20 17
f 8 18 21
f 8 21 22
f 8 22 23
f 8 23 9
f 9 23 24
f 9 24 10
f 12 25 26
f 12 26 13
f 13 26 14
f 14 26 27
f 14 27 15
f 15 28 16
f 15 27 29
f 15 29 28
f 16 28 19
f 17 20 30
f 17 30 18
f 18 30 21
f 19 31 20
f 19 28 32
f 19 32 33
f 19 33 31
f 20 31 33
f 20 33 34
f 20 34 30
f 21 30 22
f 22 30 35
f 22 35 36
f 22 36 37
f 22 37 38
f 22 38 23
f 23 38 39
f 23 39 40
f 23 40 24
f 25 41 42
f 25 42 26
f 26 42 43
f 26 43 27
f 27 43 44
f 27 44 29
f 28 29 32
f 29 45 32
f 29 44 45
f 30 46 35
f 30 34 47
f 30 47 46
f 32 45 48
f 32 48 33
f 33 48 49
f 33 49 50
f 33 50 51
f 33 51 34
f 34 51 47
f 35 52 36
f 35 46 52
f 36 52 37
f 37 53 38
f 37 52 54
f 37 54 53
f 38 53 55
f 38 55 39
f 41 56 57
f 41 57 58
f 41 58 59
f 41 59 60
f 41 60 61
f 41 61 42
f 42 61 43
f 43 61 60
f 43 60 44
f 44 60 62
f 44 62 63
f 44 63 64
f 44 64 45
f 45 65 48
f 45 64 65
f 46 66 67
f 46 67 68
f 46 68 52
f 46 47 66
f 47 51 69
f 47 69 70
f 47 70 71
f 47 71 66
f 48 65 72
f 48 72 49
f 49 72 73
f 49 73 74
f 49 74 70
f 49 70 75
f 49 75 50
f 50 75 51
f 51 75 69
f 52 76 54
f 52 68 76
f 53 54 77
f 53 77 78
f 53 78 79
f 54 76 80
f 54 80 81
f 54 81 82
f 54 82 77
f 56 83 57
f 57 84 85
f 57 85 86
f 57 86 87
f 57 87 58
f 57 83 84
f 58 87 59
f 59 87 86
f 59 86 88
f 59 88 62
f 59 62 60
f 62 88 89
f 62 89 63
f 63 89 64
f 64 89 90
f 64 90 91
f 64 91 65
f 65 91 73
f 65 73 72
f 66 71 92
f 66 92 67
f 67 92 93
f 67 93 68
f 68 93 80
f 68 80 76
f 69 75 70
f 70 94 71
f 70 74 95
f 70 95 94
f 71 94 92
f 73 91 96
f 73 96 95
f 73 95 74
f 77 82 78
f 78 82 97
f 78 97 79
f 79 97 98
f 79 98 99
f 80 100 81
f 80 93 101
f 80 101 100
f 81 100 82
f 82 100 102
f 82 102 97
f 83 103 84
f 84 104 105
f 84 105 85
f 84 103 104
f 85 105 106
f 85 106 88
f 85 88 86
f 88 106 107
f 88 107 89
f 89 107 108
f 89 108 90
f 90 108 109
f 90 109 91
f 91 110 96
f 91 109 110
f 92 94 111
f 92 111 112
f 92 112 113
f 92 113 101
f 92 101 93
f 94 95 111
f 95 96 114
f 95 114 111
f 96 110 115
f 96 115 114
f 97 102 116
f 97 116 98
f 98 116 99
f 99 116 118
f 99 118 119
f 99 119 120
f 99 120 121
f 99 121 117
f 100 101 102
f 101 113 122
f 101 122 116
f 101 116 102
f 103 123 104
f 104 124 105
f 104 123 124
f 105 125 106
f 105 124 126
f 105 126 127
f 105 127 125
f 106 125 107
f 107 125 128
f 107 128 129
f 107 129 108
f 108 129 109
f 109 129 130
f 109 130 131
f 109 131 132
f 109 132 110
f 110 132 115
f 111 114 133
f 111 133 112
f 112 133 134
f 112 134 113
f 113 134 122
f 114 115 135
f 114 135 133
f 115 132 135
f 116 122 118
f 117 121 137
f 117 137 136
f 118 122 138
f 118 138 119
f 119 138 120
f 120 138 139
f 120 139 121
f 121 139 137
f 122 134 140
f 122 140 138
f 123 141 124
f 124 142 143
f 124 143 144
f 124 144 126
f 124 141 145
f 124 145 142
f 125 127 128
f 126 144 146
f 126 146 147
f 126 147 127
f 127 147 148
f 127 148 128
f 128 148 149
f 128 149 150
f 128 150 130
f 128 130 129
f 130 150 131
f 131 150 151
f 131 151 152
f 131 152 132
f 132 152 135
f 133 153 134
f 133 135 154
f 133 154 153
f 134 153 155
f 134 155 140
f 135 152 156
f 135 156 154
f 136 137 158
f 136 158 157
f 137 139 159
f 137 159 158
f 138 140 155
f 138 155 160
f 138 160 139
f 139 160 159
f 142 161 143
f 142 145 162
f 142 162 161
f 143 161 163
f 143 163 164
f 143 164 144
f 144 165 146
f 144 164 165
f 146 165 166
f 146 166 167
f 146 167 147
f 147 167 168
f 147 168 149
f 147 149 148
f 149 169 170
f 149 170 171
f 149 171 151
f 149 151 150
f 149 168 167
f 149 167 169
f 151 171 152
f 152 171 156
f 153 154 172
f 153 172 155
f 154 156 173
f 154 173 172
f 155 172 160
f 156 171 170
f 156 170 173
f 157 158 175
f 157 175 174
f 158 159 175
f 159 160 176
f 159 176 177
f 159 177 178
f 159 178 175
f 160 172 176
f 161 162 179
f 161 179 180
f 161 180 163
f 163 175 164
f 163 180 174
f 163 174 175
f 164 175 178
f 164 178 166
f 164 166 165
f 166 178 167
f 167 178 177
f 167 177 170
f 167 170 169
f 170 176 173
f 170 177 176
f 172 173 176

