# https://github.com/mikedh/trimesh
v 0.27467449 -0.07629243 0.22201183
v 0.27711611 -0.07635943 0.22201183
v 0.27467449 -0.07582350 0.18244669
v 0.25379430 -0.07925679 0.19294887
v 0.26661149 -0.07898883 0.22201183
v 0.28516878 -0.07666088 0.22201183
v 0.27467449 -0.07575650 0.17194451
v 0.26417503 -0.07980947 0.22201183
v 0.27467449 -0.07572301 0.16146312
v 0.27467449 -0.07567276 0.14045875
v 0.27467449 -0.07563927 0.11945439
v 0.25379430 -0.07925679 0.19282409
v 0.25379430 -0.08369496 0.22201183
v 0.28516878 -0.07661064 0.21394284
v 0.29298404 -0.08165173 0.22201183
v 0.28516878 -0.07635943 0.17194451
v 0.28516878 -0.07630918 0.16146312
v 0.28516878 -0.07627569 0.15096094
v 0.28516878 -0.07622544 0.11945439
v 0.27833949 -0.07584025 0.11579422
v 0.27467449 -0.07563927 0.11579422
v 0.26784003 -0.07759876 0.11579422
v 0.26417503 -0.07867062 0.11579422
v 0.25734058 -0.08141726 0.11579422
v 0.25379430 -0.08285757 0.11579422
v 0.25379430 -0.10364160 0.22201183
v 0.29300985 -0.08163498 0.21394284
v 0.29315436 -0.08148425 0.16146312
v 0.29575602 -0.09084627 0.22201183
v 0.29619480 -0.09084627 0.15096094
v 0.29625156 -0.09084627 0.14045875
v 0.29629803 -0.09084627 0.12995657
v 0.29635480 -0.09084627 0.11579422
v 0.29317502 -0.08145075 0.15096094
v 0.29318534 -0.08143400 0.14045875
v 0.28797174 -0.07803421 0.11579422
v 0.28516878 -0.07622544 0.11579422
v 0.25379430 -0.10523263 0.11579422
v 0.25379430 -0.11369027 0.19307365
v 0.27471063 -0.22747483 0.22201183
v 0.30304988 -0.14333388 0.12995657
v 0.30168196 -0.12953370 0.11579422
v 0.30652906 -0.22487892 0.22201183
v 0.30592512 -0.19582148 0.19294887
v 0.30406162 -0.16431887 0.16146312
v 0.29318534 -0.08141726 0.11579422
v 0.29318534 -0.08141726 0.11945439
v 0.25379430 -0.11322134 0.18244669
v 0.27361630 -0.17481975 0.11579422
v 0.27721418 -0.23735603 0.22201183
v 0.25379430 -0.11370702 0.19294887
v 0.30611093 -0.18532062 0.15096094
v 0.30596639 -0.17481975 0.11945439
v 0.30585283 -0.17481975 0.11579422
v 0.30607482 -0.22749159 0.22201183
v 0.27695608 -0.18508614 0.11579422
v 0.27955774 -0.24028689 0.22201183
v 0.30422682 -0.23666938 0.22201183
v 0.30414424 -0.18121740 0.11579422
v 0.28218001 -0.18932334 0.11579422
v 0.28307304 -0.24457433 0.22201183
v 0.30382418 -0.23769098 0.22201183
v 0.30306020 -0.18443298 0.11579422
v 0.28291301 -0.18974203 0.11579422
v 0.28651608 -0.24648359 0.22201183
v 0.30030888 -0.24355271 0.22201183
v 0.29722717 -0.18902189 0.11579422
v 0.28820406 -0.19108187 0.11579422
v 0.29346926 -0.24671805 0.22201183
v 0.29798598 -0.24531124 0.22201183
v 0.29643225 -0.24626586 0.22201183
v 0.29491979 -0.19002675 0.11579422
v 0.29223039 -0.19096463 0.11579422
v 0.29484750 -0.24671805 0.22201183
f 1 2 3
f 1 3 4
f 1 4 5
f 1 5 8
f 1 8 13
f 1 13 26
f 1 26 40
f 1 40 50
f 1 50 57
f 1 57 61
f 1 61 65
f 1 65 69
f 1 69 74
f 1 74 71
f 1 71 70
f 1 70 66
f 1 66 62
f 1 62 58
f 1 58 55
f 1 55 43
f 1 43 29
f 1 29 15
f 1 15 6
f 1 6 2
f 2 6 3
f 3 6 7
f 3 7 4
f 4 8 5
f 4 7 9
f 4 9 10
f 4 10 11
f 4 11 21
f 4 21 12
f 4 12 25
f 4 25 38
f 4 38 48
f 4 48 51
f 4 51 39
f 4 39 26
f 4 26 13
f 4 13 8
f 6 14 7
f 6 15 14
f 7 14 16
f 7 16 17
f 7 17 9
f 9 17 18
f 9 18 10
f 10 18 19
f 10 19 11
f 11 19 20
f 11 20 21
f 12 21 22
f 12 22 23
f 12 23 24
f 12 24 25
f 14 15 16
f 15 27 28
f 15 28 17
f 15 17 16
f 15 29 30
f 15 30 31
f 15 31 32
f 15 32 33
f 15 33 27
f 17 28 34
f 17 34 18
f 18 34 35
f 18 35 19
f 19 35 36
f 19 36 37
f 19 37 20
f 20 37 36
f 20 36 46
f 20 46 33
f 20 33 42
f 20 42 54
f 20 54 59
f 20 59 63
f 20 63 67
f 20 67 72
f 20 72 73
f 20 73 68
f 20 68 64
f 20 64 60
f 20 60 56
f 20 56 49
f 20 49 38
f 20 38 25
f 20 25 24
f 20 24 23
f 20 23 22
f 20 22 21
f 26 39 40
f 27 33 28
f 28 33 34
f 29 41 42
f 29 42 30
f 29 43 44
f 29 44 45
f 29 45 41
f 30 42 31
f 31 42 32
f 32 42 33
f 33 46 47
f 33 47 35
f 33 35 34
f 35 47 36
f 36 47 46
f 38 49 50
f 38 50 40
f 38 40 48
f 39 51 40
f 40 51 48
f 41 45 52
f 41 52 53
f 41 53 42
f 42 53 54
f 43 55 54
f 43 54 53
f 43 53 52
f 43 52 44
f 44 52 45
f 49 56 50
f 50 56 57
f 54 55 58
f 54 58 59
f 56 60 61
f 56 61 57
f 58 62 63
f 58 63 59
f 60 64 61
f 61 64 65
f 62 66 63
f 63 66 67
f 64 68 65
f 65 68 69
f 66 70 67
f 67 70 71
f 67 71 72
f 68 73 74
f 68 74 69
f 71 74 73
f 71 73 72

