# https://github.com/mikedh/trimesh
v 0.28516249 -0.21685432 0.32948764
v 0.29566264 -0.22733608 0.32878275
v 0.28516249 -0.20637256 0.32934035
v 0.24730542 -0.06556756 0.32689951
v 0.23695152 -0.06556756 0.32631033
v 0.29566264 -0.46216637 0.32915097
v 0.30227276 -0.22733608 0.32548972
v 0.29566264 -0.21685432 0.32854076
v 0.30602629 -0.46216637 0.32707838
v 0.31139823 -0.46216637 0.32476377
v 0.28516249 -0.19585198 0.32901419
v 0.25368155 -0.06556756 0.32598420
v 0.28516249 -0.18537021 0.32842505
v 0.22596390 -0.06556756 0.32497421
v 0.22596390 -0.06583932 0.32500575
v 0.22596390 -0.06948852 0.32525825
v 0.28516249 -0.46216637 0.32714149
v 0.22596390 -0.07465175 0.32515305
v 0.30200953 -0.21685432 0.32525825
v 0.31224644 -0.46216637 0.32411148
v 0.31654593 -0.46216637 0.31931397
v 0.29566264 -0.20637256 0.32792005
v 0.25520246 -0.06556756 0.32567910
v 0.28516249 -0.09087907 0.32195471
v 0.22596390 -0.06556756 0.29191763
v 0.27948833 -0.46216637 0.32453233
v 0.22596390 -0.23754610 0.31717823
v 0.22596390 -0.24822197 0.31644176
v 0.30549982 -0.21685432 0.31894572
v 0.30154155 -0.20637256 0.32481637
v 0.32132316 -0.46216637 0.31192833
v 0.30605555 -0.22733608 0.31894572
v 0.30114182 -0.19942354 0.32442709
v 0.29648159 -0.19589079 0.32656283
v 0.25815654 -0.06556756 0.32487952
v 0.29247457 -0.09087907 0.31686261
v 0.29175312 -0.08346420 0.31572636
v 0.25940447 -0.06556756 0.32444815
v 0.22596390 -0.08653108 0.27483174
v 0.23268126 -0.06556756 0.29174931
v 0.26353823 -0.11087206 0.22201702
v 0.27571528 -0.46216637 0.31893521
v 0.22596390 -0.25555920 0.31461116
v 0.30649427 -0.20637256 0.30844592
v 0.30472962 -0.20637256 0.31894572
v 0.32336080 -0.46216637 0.30665737
v 0.32437473 -0.46216637 0.30291195
v 0.32556416 -0.46216637 0.29813547
v 0.30317946 -0.19589079 0.31973479
v 0.29487294 -0.09087907 0.30844592
v 0.30282848 -0.18537021 0.31756751
v 0.29257207 -0.08226074 0.30844592
v 0.26579035 -0.06556756 0.31831449
v 0.26017467 -0.06556756 0.32398524
v 0.22596390 -0.10419480 0.27483174
v 0.24284018 -0.06556756 0.29215961
v 0.27467208 -0.07651519 0.27483174
v 0.29390773 -0.11087206 0.22201702
v 0.26508840 -0.13529069 0.22201702
v 0.22596390 -0.24166116 0.28334313
v 0.26919290 -0.44388151 0.31408510
v 0.27245898 -0.46216637 0.30844592
v 0.22596390 -0.26072243 0.31058166
v 0.30652349 -0.22492916 0.22201702
v 0.30558757 -0.19585198 0.30844592
v 0.32517419 -0.46216637 0.29110753
v 0.29526291 -0.09087907 0.29795660
v 0.29274756 -0.08198898 0.29795660
v 0.26807172 -0.06556756 0.30844592
v 0.24899207 -0.06556756 0.29247523
v 0.27678773 -0.07663164 0.27483174
v 0.28516249 -0.07709751 0.27483174
v 0.29281581 -0.08191135 0.27483174
v 0.29543840 -0.09087907 0.27483174
v 0.29410271 -0.11087206 0.22344785
v 0.30334518 -0.19585198 0.22201702
v 0.27471110 -0.22753019 0.22201702
v 0.22596390 -0.25218174 0.28562616
v 0.27149377 -0.45828423 0.30844592
v 0.22596390 -0.26576922 0.30542642
v 0.27358989 -0.46216637 0.30521601
v 0.26870543 -0.44539557 0.30160736
v 0.30607504 -0.22753019 0.22201702
v 0.32455022 -0.46216637 0.28720430
v 0.32254184 -0.46216637 0.28221741
v 0.32231760 -0.46216637 0.28177553
v 0.29535065 -0.09087907 0.28745680
v 0.29281581 -0.08191135 0.27695697
v 0.26455217 -0.06556756 0.29860889
v 0.24922606 -0.06556756 0.29252783
v 0.25427626 -0.06556756 0.29417963
v 0.26146160 -0.06556756 0.29669411
v 0.27720696 -0.23735199 0.22201702
v 0.26945613 -0.43192455 0.29274879
v 0.22596390 -0.26149886 0.28999233
v 0.22596390 -0.26607979 0.30326965
v 0.22596390 -0.26666211 0.29795660
v 0.27631975 -0.46216637 0.29789348
v 0.22596390 -0.26607979 0.29615754
v 0.22596390 -0.26464338 0.29223328
v 0.22596390 -0.26406107 0.29145472
v 0.30422262 -0.23669203 0.22201702
v 0.31952926 -0.46216637 0.27991332
v 0.27954682 -0.24030241 0.22201702
v 0.30616279 -0.46216637 0.27639937
v 0.30052761 -0.46216637 0.27866134
v 0.29798301 -0.46216637 0.27977657
v 0.28012203 -0.46216637 0.29285399
v 0.27888385 -0.45587731 0.29186503
v 0.30382293 -0.23770139 0.22201702
v 0.31718940 -0.46216637 0.27877709
v 0.28307610 -0.24461159 0.22201702
v 0.29484369 -0.24670793 0.22201702
v 0.30998456 -0.46216637 0.27660978
v 0.28650791 -0.24651382 0.22201702
v 0.29345925 -0.24670793 0.22201702
v 0.30030337 -0.24356340 0.22201702
v 0.29642308 -0.24628090 0.22201702
v 0.29798301 -0.24534918 0.22201702
f 1 2 3
f 1 3 4
f 1 4 5
f 1 5 6
f 1 6 2
f 2 7 8
f 2 8 3
f 2 6 9
f 2 9 10
f 2 10 7
f 3 8 11
f 3 11 4
f 4 12 23
f 4 23 35
f 4 35 38
f 4 38 54
f 4 54 53
f 4 53 69
f 4 69 89
f 4 89 92
f 4 92 91
f 4 91 90
f 4 90 70
f 4 70 56
f 4 56 40
f 4 40 25
f 4 25 14
f 4 14 5
f 4 11 13
f 4 13 12
f 5 14 15
f 5 15 16
f 5 16 6
f 6 17 26
f 6 26 42
f 6 42 62
f 6 62 81
f 6 81 98
f 6 98 108
f 6 108 107
f 6 107 106
f 6 106 105
f 6 105 114
f 6 114 111
f 6 111 103
f 6 103 86
f 6 86 85
f 6 85 84
f 6 84 66
f 6 66 48
f 6 48 47
f 6 47 46
f 6 46 31
f 6 31 21
f 6 21 20
f 6 20 10
f 6 10 9
f 6 16 18
f 6 18 17
f 7 19 8
f 7 10 20
f 7 20 21
f 7 21 19
f 8 19 22
f 8 22 13
f 8 13 11
f 12 13 24
f 12 24 23
f 13 22 24
f 14 25 39
f 14 39 55
f 14 55 60
f 14 60 78
f 14 78 95
f 14 95 101
f 14 101 100
f 14 100 99
f 14 99 97
f 14 97 96
f 14 96 80
f 14 80 63
f 14 63 43
f 14 43 28
f 14 28 27
f 14 27 18
f 14 18 16
f 14 16 15
f 17 18 27
f 17 27 28
f 17 28 26
f 19 29 30
f 19 30 22
f 19 21 31
f 19 31 32
f 19 32 29
f 22 30 33
f 22 33 34
f 22 34 24
f 23 24 35
f 24 36 37
f 24 37 38
f 24 38 35
f 24 34 33
f 24 33 36
f 25 40 41
f 25 41 39
f 26 28 43
f 26 43 42
f 29 44 45
f 29 45 30
f 29 32 31
f 29 31 46
f 29 46 47
f 29 47 48
f 29 48 44
f 30 45 33
f 33 45 49
f 33 49 36
f 36 50 37
f 36 49 45
f 36 45 51
f 36 51 50
f 37 50 52
f 37 52 53
f 37 53 54
f 37 54 38
f 39 41 55
f 40 56 57
f 40 57 41
f 41 58 76
f 41 76 64
f 41 64 83
f 41 83 102
f 41 102 110
f 41 110 117
f 41 117 119
f 41 119 118
f 41 118 113
f 41 113 116
f 41 116 115
f 41 115 112
f 41 112 104
f 41 104 93
f 41 93 77
f 41 77 59
f 41 59 60
f 41 60 55
f 41 57 58
f 42 43 61
f 42 61 62
f 43 63 61
f 44 64 65
f 44 65 45
f 44 48 64
f 45 65 50
f 45 50 51
f 48 66 64
f 50 67 52
f 50 65 67
f 52 67 68
f 52 68 69
f 52 69 53
f 56 70 57
f 57 70 71
f 57 71 58
f 58 71 72
f 58 72 73
f 58 73 74
f 58 74 75
f 58 75 76
f 59 77 60
f 60 77 78
f 61 79 62
f 61 63 80
f 61 80 79
f 62 79 82
f 62 82 81
f 64 76 74
f 64 74 65
f 64 66 84
f 64 84 85
f 64 85 86
f 64 86 83
f 65 74 87
f 65 87 67
f 67 87 68
f 68 87 74
f 68 74 88
f 68 88 69
f 69 88 73
f 69 73 72
f 69 72 89
f 70 90 72
f 70 72 71
f 72 90 91
f 72 91 92
f 72 92 89
f 73 88 74
f 74 76 75
f 77 93 78
f 78 94 95
f 78 93 94
f 79 80 96
f 79 96 97
f 79 97 82
f 81 82 98
f 82 94 98
f 82 97 99
f 82 99 100
f 82 100 101
f 82 101 95
f 82 95 94
f 83 86 102
f 86 103 102
f 93 104 105
f 93 105 106
f 93 106 107
f 93 107 108
f 93 108 109
f 93 109 94
f 94 109 108
f 94 108 98
f 102 103 110
f 103 111 110
f 104 112 105
f 105 113 114
f 105 112 115
f 105 115 116
f 105 116 113
f 110 111 117
f 111 114 117
f 113 118 114
f 114 118 119
f 114 119 117

