# https://github.com/mikedh/trimesh
v 0.25022274 -0.14657629 -0.31338700
v 0.24316391 -0.25881716 -0.30715846
v 0.25022274 -0.26932801 -0.30737651
v 0.25022274 -0.14657629 -0.34039112
v 0.24487514 -0.14657629 -0.31476518
v 0.08212714 -0.14726178 -0.30901385
v 0.09056812 -0.14726178 -0.30895214
v 0.10276065 -0.14726178 -0.30924013
v 0.08212714 -0.15083613 -0.30620814
v 0.08212714 -0.15259880 -0.30552521
v 0.08212714 -0.16435007 -0.30188847
v 0.08212714 -0.17484460 -0.30038687
v 0.25022274 -0.28042641 -0.30824043
v 0.24703064 -0.14657629 -0.33967115
v 0.25022274 -0.19583365 -0.34114809
v 0.22215196 -0.16433375 -0.34241518
v 0.09012385 -0.16942597 -0.33735910
v 0.10667673 -0.14726178 -0.33303533
v 0.08212714 -0.14726178 -0.32987170
v 0.23332433 -0.14657629 -0.32286148
v 0.08212714 -0.14796358 -0.30845024
v 0.08212714 -0.18276038 -0.30342299
v 0.25022274 -0.30825408 -0.31423449
v 0.25022274 -0.30082792 -0.31209522
v 0.25022274 -0.29031707 -0.30948696
v 0.24433215 -0.14657629 -0.33876198
v 0.25022274 -0.27650934 -0.33879076
v 0.23266618 -0.20634450 -0.34215598
v 0.16966322 -0.19583365 -0.34037466
v 0.14866773 -0.18533913 -0.33983984
v 0.13816998 -0.18533913 -0.33942431
v 0.09012385 -0.17012778 -0.33735910
v 0.08212714 -0.17438760 -0.33575055
v 0.08212714 -0.17047052 -0.33568061
v 0.08212714 -0.16493763 -0.33514579
v 0.08212714 -0.15383922 -0.33249639
v 0.23385088 -0.14657629 -0.33104007
v 0.08212714 -0.18731399 -0.31105027
v 0.25022274 -0.31331363 -0.32224852
v 0.24316391 -0.25881716 -0.33981925
v 0.25022274 -0.28432720 -0.33791038
v 0.10121395 -0.18013267 -0.33731799
v 0.22215196 -0.23782811 -0.34016072
v 0.22215196 -0.20634450 -0.34176927
v 0.08212714 -0.18088344 -0.33226601
v 0.25022274 -0.28653056 -0.33752777
v 0.25022274 -0.29043132 -0.33627304
v 0.25022274 -0.30758489 -0.32801218
v 0.08212714 -0.18830959 -0.32154090
v 0.08212714 -0.18377230 -0.33071506
f 1 2 3
f 1 3 13
f 1 13 25
f 1 25 24
f 1 24 23
f 1 23 39
f 1 39 48
f 1 48 47
f 1 47 46
f 1 46 41
f 1 41 27
f 1 27 15
f 1 15 4
f 1 4 14
f 1 14 26
f 1 26 37
f 1 37 20
f 1 20 5
f 1 5 6
f 1 6 7
f 1 7 8
f 1 8 9
f 1 9 10
f 1 10 11
f 1 11 12
f 1 12 2
f 2 12 3
f 3 12 13
f 4 15 16
f 4 16 17
f 4 17 18
f 4 18 19
f 4 19 14
f 5 20 6
f 6 19 36
f 6 36 35
f 6 35 34
f 6 34 33
f 6 33 45
f 6 45 50
f 6 50 49
f 6 49 38
f 6 38 22
f 6 22 12
f 6 12 11
f 6 11 10
f 6 10 9
f 6 9 21
f 6 21 7
f 6 20 19
f 7 21 9
f 7 9 8
f 12 22 23
f 12 23 24
f 12 24 25
f 12 25 13
f 14 19 26
f 15 27 28
f 15 28 16
f 16 28 29
f 16 29 30
f 16 30 17
f 17 30 31
f 17 31 32
f 17 32 33
f 17 33 34
f 17 34 35
f 17 35 36
f 17 36 18
f 18 36 19
f 19 20 37
f 19 37 26
f 22 38 39
f 22 39 23
f 27 40 28
f 27 41 42
f 27 42 31
f 27 31 40
f 28 40 43
f 28 43 44
f 28 44 29
f 29 31 30
f 29 44 43
f 29 43 40
f 29 40 31
f 31 42 32
f 32 42 33
f 33 42 46
f 33 46 47
f 33 47 48
f 33 48 45
f 38 49 39
f 39 49 50
f 39 50 48
f 41 46 42
f 45 48 50

