# https://github.com/mikedh/trimesh
v -0.23729356 0.07352650 -0.30083742
v -0.23729356 0.07721878 -0.29598293
v -0.23729356 0.07533418 -0.30184566
v -0.23448163 0.06175731 -0.30555003
v -0.23481137 0.04894967 -0.29628168
v -0.23481137 0.04894967 -0.29436977
v -0.23527849 0.05618041 -0.29308519
v -0.23594713 0.06668037 -0.29175579
v -0.23662492 0.07721878 -0.29104630
v -0.23729356 0.08752644 -0.29071022
v -0.23729356 0.08137262 -0.30469862
v -0.23510447 0.06871882 -0.30648358
v -0.23729356 0.12114169 -0.31642409
v -0.23507700 0.11191096 -0.31663318
v -0.20683851 -0.10866506 -0.29510912
v -0.21098773 -0.10866506 -0.29038162
v -0.21395538 -0.10866506 -0.28576611
v -0.21395538 -0.10866506 -0.28147175
v -0.22446122 -0.02539617 -0.28371977
v -0.22494668 0.00610369 -0.26390596
v -0.23729356 0.08771874 -0.29068033
v -0.23729356 0.08894951 -0.30765614
v -0.23729356 0.09325718 -0.30929918
v -0.23729356 0.12833396 -0.31796258
v -0.23729356 0.15860308 -0.32223453
v -0.20526309 -0.10866506 -0.29658788
v -0.21339666 -0.10866506 -0.27660978
v -0.21347910 -0.10566508 -0.27496674
v -0.20912837 -0.10866506 -0.26931311
v -0.20384339 -0.10866506 -0.26244963
v -0.19814624 -0.10866506 -0.25903654
v -0.22480012 0.01191137 -0.26390596
v -0.23729356 0.21329515 -0.28752865
v -0.23729356 0.10864173 -0.28941070
v -0.23729356 0.09818024 -0.28975426
v -0.23729356 0.16914149 -0.32362366
v -0.19781650 -0.10866506 -0.29806663
v -0.23729356 0.17960299 -0.32491570
v -0.23729356 0.19610291 -0.32693218
v -0.18660537 -0.10866506 -0.25914857
v -0.21160141 0.02133440 -0.26390596
v -0.21701462 0.02129594 -0.26390596
v -0.22135618 0.01664211 -0.26390596
v -0.22294992 0.01479597 -0.26390596
v -0.23729356 0.22406435 -0.28838754
v -0.23729356 0.21364131 -0.28755106
v -0.15860505 -0.08758823 -0.30428785
v -0.15860505 -0.09828049 -0.30057603
v -0.15860505 -0.09989587 -0.29952298
v -0.19162474 -0.10866506 -0.29726004
v -0.23729356 0.22160282 -0.32990462
v -0.15583891 0.15068002 -0.33396000
v -0.14373016 0.14894926 -0.33532672
v -0.20667365 0.01437289 -0.26390596
v -0.18631227 -0.10866506 -0.25927552
v -0.14373016 0.13021857 -0.29654306
v -0.23729356 0.23444890 -0.29109859
v -0.14940900 0.13610316 -0.29515393
v -0.15208355 0.14314159 -0.29563940
v -0.14373016 0.13991084 -0.29752145
v -0.15249572 -0.08258826 -0.30293608
v -0.14373016 0.14010314 -0.33407202
v -0.14660622 -0.08258826 -0.29922426
v -0.14505829 -0.08258826 -0.29525851
v -0.15860505 -0.10351124 -0.29028451
v -0.18366521 -0.10866506 -0.29434737
v -0.18525895 -0.10866506 -0.29516889
v -0.18890439 -0.10866506 -0.29678208
v -0.23729356 0.22414127 -0.33018096
v -0.23729356 0.23210278 -0.33101741
v -0.23729356 0.24260271 -0.33151033
v -0.23729356 0.25291038 -0.33127883
v -0.23729356 0.26402570 -0.32990462
v -0.14373016 0.15052618 -0.33510267
v -0.14372101 0.05606503 -0.31224921
v -0.17674070 -0.10866506 -0.26748334
v -0.14784274 -0.08258826 -0.28304013
v -0.14372101 0.05794964 -0.29177820
v -0.23729356 0.26475647 -0.30385470
v -0.14568112 0.13983392 -0.29691651
v -0.14372101 0.06537268 -0.29325695
v -0.14373016 0.15137233 -0.30248797
v -0.14384925 -0.08258826 -0.29004553
v -0.17437757 -0.10866506 -0.27955237
v -0.17465235 -0.10866506 -0.28060542
v -0.17770242 -0.10866506 -0.28883564
v -0.17902138 -0.10866506 -0.29056831
v -0.15860505 -0.10351124 -0.29003806
v -0.23729356 0.27317952 -0.32795535
v -0.14373016 0.15917998 -0.33112944
v -0.14372101 0.06698806 -0.31032982
v -0.14372101 0.04818044 -0.30816398
v -0.17617280 -0.10866506 -0.26814806
v -0.15860505 -0.09935740 -0.28279367
v -0.14372101 0.05621888 -0.29180060
v -0.23729356 0.26791031 -0.30532598
v -0.14372101 0.06656498 -0.29388430
v -0.14373016 0.15233387 -0.30298834
v -0.14372101 0.04579584 -0.30022503
v -0.14372101 0.04644968 -0.29811144
v -0.14372101 0.04806506 -0.29428760
v -0.14372101 0.04887275 -0.29382457
v -0.23729356 0.27979487 -0.32439293
v -0.14373016 0.16075690 -0.33004653
v -0.23729356 0.28425639 -0.32171921
v -0.14372101 0.06918036 -0.30867183
v -0.23548001 0.26952569 -0.30734991
v -0.23729356 0.27814103 -0.31084515
v -0.14372101 0.07025728 -0.29914957
v -0.14373016 0.16141076 -0.31029994
v -0.14373016 0.16052614 -0.30922451
v -0.14373016 0.16487226 -0.32204781
v -0.14373016 0.16494920 -0.32153996
v -0.23729356 0.28102563 -0.31512458
v -0.14372101 0.07094958 -0.30119591
f 1 2 10
f 1 10 21
f 1 21 35
f 1 35 34
f 1 34 33
f 1 33 46
f 1 46 45
f 1 45 57
f 1 57 79
f 1 79 96
f 1 96 108
f 1 108 114
f 1 114 105
f 1 105 103
f 1 103 89
f 1 89 73
f 1 73 72
f 1 72 71
f 1 71 70
f 1 70 69
f 1 69 51
f 1 51 39
f 1 39 38
f 1 38 36
f 1 36 25
f 1 25 24
f 1 24 13
f 1 13 23
f 1 23 22
f 1 22 11
f 1 11 3
f 1 3 4
f 1 4 5
f 1 5 6
f 1 6 2
f 2 6 7
f 2 7 8
f 2 8 9
f 2 9 10
f 3 11 4
f 4 12 13
f 4 13 14
f 4 14 15
f 4 15 16
f 4 16 17
f 4 17 5
f 4 11 12
f 5 17 18
f 5 18 6
f 6 18 19
f 6 19 20
f 6 20 7
f 7 20 8
f 8 20 9
f 9 20 10
f 10 20 21
f 11 22 12
f 12 22 23
f 12 23 13
f 13 24 14
f 14 24 25
f 14 25 26
f 14 26 15
f 15 26 37
f 15 37 50
f 15 50 68
f 15 68 67
f 15 67 66
f 15 66 87
f 15 87 86
f 15 86 85
f 15 85 84
f 15 84 93
f 15 93 76
f 15 76 55
f 15 55 40
f 15 40 31
f 15 31 30
f 15 30 29
f 15 29 27
f 15 27 18
f 15 18 17
f 15 17 16
f 18 27 19
f 19 27 20
f 20 27 28
f 20 28 29
f 20 29 30
f 20 30 31
f 20 31 32
f 20 32 33
f 20 33 34
f 20 34 35
f 20 35 21
f 25 36 26
f 26 36 38
f 26 38 39
f 26 39 37
f 27 29 28
f 31 40 41
f 31 41 42
f 31 42 43
f 31 43 44
f 31 44 32
f 32 44 45
f 32 45 46
f 32 46 33
f 37 47 48
f 37 48 49
f 37 49 50
f 37 39 51
f 37 51 52
f 37 52 53
f 37 53 47
f 40 54 41
f 40 55 56
f 40 56 54
f 41 54 45
f 41 45 42
f 42 45 43
f 43 45 44
f 45 54 58
f 45 58 59
f 45 59 60
f 45 60 57
f 47 61 48
f 47 53 62
f 47 62 61
f 48 61 63
f 48 63 49
f 49 63 64
f 49 64 65
f 49 65 66
f 49 66 67
f 49 67 68
f 49 68 50
f 51 69 52
f 52 69 70
f 52 70 53
f 53 70 71
f 53 71 72
f 53 72 73
f 53 73 74
f 53 74 75
f 53 75 62
f 54 56 58
f 55 76 77
f 55 77 78
f 55 78 56
f 56 60 58
f 56 78 60
f 57 60 79
f 58 60 80
f 58 80 59
f 59 80 60
f 60 78 81
f 60 81 82
f 60 82 79
f 61 62 63
f 62 75 83
f 62 83 64
f 62 64 63
f 64 83 65
f 65 84 85
f 65 85 86
f 65 86 87
f 65 87 66
f 65 83 88
f 65 88 84
f 73 89 74
f 74 90 91
f 74 91 75
f 74 89 90
f 75 91 106
f 75 106 115
f 75 115 109
f 75 109 97
f 75 97 81
f 75 81 78
f 75 78 95
f 75 95 102
f 75 102 101
f 75 101 100
f 75 100 99
f 75 99 92
f 75 92 83
f 76 93 77
f 77 93 94
f 77 94 83
f 77 83 78
f 78 83 95
f 79 82 96
f 81 97 98
f 81 98 82
f 82 98 96
f 83 94 88
f 83 92 99
f 83 99 100
f 83 100 101
f 83 101 102
f 83 102 95
f 84 88 93
f 88 94 93
f 89 103 90
f 90 104 91
f 90 103 105
f 90 105 104
f 91 104 106
f 96 107 108
f 96 98 107
f 97 109 110
f 97 110 111
f 97 111 98
f 98 111 108
f 98 108 107
f 104 105 112
f 104 112 106
f 105 113 112
f 105 114 110
f 105 110 113
f 106 112 115
f 108 111 110
f 108 110 114
f 109 115 110
f 110 115 113
f 112 113 115

