# https://github.com/mikedh/trimesh
v -0.14371190 0.04577709 -0.30023977
v -0.05653521 0.03671240 -0.31824352
v -0.05653521 0.03673751 -0.31421090
v -0.14371190 0.04645506 -0.29813241
v -0.14371190 0.04816254 -0.30817496
v -0.05653521 0.04838853 -0.32441605
v -0.14371190 0.04890328 -0.29382660
v -0.14371190 0.04804954 -0.29429489
v -0.05653521 0.06040364 -0.30566431
v -0.14371190 0.05605962 -0.31225963
v -0.05653521 0.05196670 -0.32607465
v -0.14371190 0.05621028 -0.29180376
v -0.05653521 0.06258821 -0.30561227
v -0.11733532 0.06895358 -0.29504287
v -0.05653521 0.05416382 -0.32703075
v -0.14371190 0.14010264 -0.33407487
v -0.05653521 0.12836373 -0.35721049
v -0.14371190 0.05795542 -0.29179074
v -0.05653521 0.11223059 -0.30513747
v -0.11733532 0.07233087 -0.29504287
v -0.14371190 0.14896644 -0.33532369
v -0.05653521 0.13413902 -0.35823163
v -0.14371190 0.13023442 -0.29653884
v -0.05653521 0.11549488 -0.30513747
v -0.10332356 0.11916093 -0.29971943
v -0.11382811 0.11916093 -0.29863321
v -0.14371190 0.15052327 -0.33510254
v -0.05653521 0.13540707 -0.35793895
v -0.13482868 0.12966945 -0.29741043
v -0.14371190 0.13990174 -0.29752749
v -0.05653521 0.12966945 -0.30917010
v -0.08612033 0.13521875 -0.30563180
v -0.14371190 0.15917365 -0.33113495
v -0.14371190 0.16075557 -0.33004224
v -0.05653521 0.13873415 -0.35496001
v -0.14371190 0.15138956 -0.30249025
v -0.05653521 0.13349872 -0.31073763
v -0.05653521 0.13842027 -0.31285153
v -0.14371190 0.16484850 -0.32206152
v -0.05653521 0.14543850 -0.34757768
v -0.05653521 0.14511206 -0.34810452
v -0.14371190 0.15233118 -0.30299106
v -0.05653521 0.14046673 -0.31664999
v -0.14371190 0.16140843 -0.31031487
v -0.14371190 0.16052958 -0.30923515
v -0.14034977 0.15572103 -0.30591800
v -0.14371190 0.16497404 -0.32154769
v -0.05653521 0.14558916 -0.34526867
v -0.05653521 0.14307816 -0.32154769
v -0.05653521 0.14453454 -0.33193497
v -0.05653521 0.14531296 -0.34090432
v -0.05653521 0.14558916 -0.34465728
f 1 2 3
f 1 3 4
f 1 4 8
f 1 8 7
f 1 7 12
f 1 12 18
f 1 18 23
f 1 23 30
f 1 30 36
f 1 36 42
f 1 42 45
f 1 45 44
f 1 44 47
f 1 47 39
f 1 39 34
f 1 34 33
f 1 33 27
f 1 27 21
f 1 21 16
f 1 16 10
f 1 10 5
f 1 5 2
f 2 5 6
f 2 6 11
f 2 11 15
f 2 15 17
f 2 17 22
f 2 22 28
f 2 28 35
f 2 35 41
f 2 41 40
f 2 40 48
f 2 48 52
f 2 52 51
f 2 51 50
f 2 50 49
f 2 49 43
f 2 43 38
f 2 38 37
f 2 37 31
f 2 31 24
f 2 24 19
f 2 19 13
f 2 13 9
f 2 9 3
f 3 7 8
f 3 8 4
f 3 9 7
f 5 10 6
f 6 10 11
f 7 9 12
f 9 13 14
f 9 14 12
f 10 15 11
f 10 16 17
f 10 17 15
f 12 14 18
f 13 19 14
f 14 19 24
f 14 24 20
f 14 20 18
f 16 21 22
f 16 22 17
f 18 20 23
f 20 24 25
f 20 25 26
f 20 26 23
f 21 27 22
f 22 27 28
f 23 26 25
f 23 25 29
f 23 29 30
f 24 31 32
f 24 32 30
f 24 30 25
f 25 30 29
f 27 33 28
f 28 33 34
f 28 34 35
f 30 32 36
f 31 37 32
f 32 37 38
f 32 38 36
f 34 39 40
f 34 40 41
f 34 41 35
f 36 38 42
f 38 43 44
f 38 44 45
f 38 45 46
f 38 46 42
f 39 47 40
f 40 47 48
f 42 46 45
f 43 49 44
f 44 49 47
f 47 49 50
f 47 50 51
f 47 51 52
f 47 52 48

