# https://github.com/mikedh/trimesh
v 0.04978040 -0.06556756 0.29500513
v 0.04978040 -0.06556756 0.29284082
v 0.04883815 -0.06556756 0.29682998
v 0.06473242 -0.09506429 0.30463857
v 0.06473242 -0.09333639 0.29794399
v 0.04965642 -0.06556756 0.29002929
v 0.04690406 -0.06556756 0.29992796
v 0.04177128 -0.06556756 0.30498867
v 0.06473242 -0.10133642 0.30885053
v 0.07822146 -0.14865638 0.30320628
v 0.07822146 -0.14420738 0.29856993
v 0.07822146 -0.14117336 0.28724961
v 0.06473242 -0.09462891 0.28663425
v 0.04655691 -0.06556756 0.28484125
v 0.06473242 -0.10163575 0.25633356
v 0.03289429 -0.06556756 0.30594353
v 0.06473242 -0.11183988 0.31179997
v 0.07822146 -0.15008496 0.30350334
v 0.07822146 -0.14551351 0.27946224
v 0.04479639 -0.06556756 0.28295275
v 0.07822146 -0.15382647 0.27637490
v 0.07822146 -0.16488775 0.27370130
v 0.07822146 -0.16774491 0.27325570
v 0.07822146 -0.17441160 0.27270401
v 0.06473242 -0.11967665 0.25633356
v -0.05652023 -0.11130926 0.20341342
v 0.04192006 -0.06556756 0.28078844
v 0.01214001 -0.11183988 0.30746068
v -0.05652023 -0.06556756 0.29743474
v 0.07822146 -0.17481977 0.30712119
v 0.07822146 -0.16431632 0.30644217
v 0.07822146 -0.16126869 0.30581623
v -0.00883744 -0.12232972 0.30617694
v 0.00165128 -0.12232972 0.30702571
v 0.07822146 -0.17687419 0.27405140
v -0.05652023 -0.12895561 0.20341342
v -0.17509489 -0.11668344 0.20341342
v -0.05652023 -0.06556756 0.26728253
v -0.05081714 -0.06556756 0.26782364
v -0.04032841 -0.12232972 0.30223021
v -0.03432777 -0.12232972 0.30308959
v -0.02773202 -0.11473785 0.30367310
v -0.01932617 -0.12232972 0.30507356
v -0.15734092 -0.08262886 0.26644440
v -0.15501010 -0.08262886 0.27543065
v -0.14603393 -0.08262886 0.28074598
v -0.14199218 -0.08262886 0.28260265
v -0.09941737 -0.11635690 0.29297872
v -0.09282162 -0.12232972 0.29434736
v -0.08233290 -0.12232972 0.29595999
v 0.03314225 -0.17265649 0.30382165
v 0.04392854 -0.17541841 0.30413992
v 0.04063066 -0.17932319 0.30296226
v 0.04762314 -0.18019395 0.30329115
v 0.07822146 -0.17960890 0.30544488
v -0.02745927 -0.12849302 0.30355638
v 0.02600100 -0.17094220 0.30343969
v 0.07822146 -0.18367695 0.27797691
v -0.05652023 -0.20141853 0.26090625
v -0.17509489 -0.13714611 0.20341342
v -0.17509489 -0.10886028 0.23494482
v -0.15667143 -0.08262886 0.26473627
v -0.15406785 -0.08262886 0.25937847
v -0.15277845 -0.08262886 0.25869947
v -0.14538922 -0.08262886 0.25590917
v -0.14300881 -0.08262886 0.25535749
v -0.09944217 -0.12979915 0.29296812
v -0.02909581 -0.12232972 0.30382165
v -0.17509489 -0.10660176 0.24545883
v -0.17509489 -0.11126845 0.25651391
v -0.17509489 -0.11415281 0.26036515
v -0.17509489 -0.11638412 0.26224304
v -0.17509489 -0.12290115 0.26436495
v -0.17509489 -0.13114609 0.26505454
v -0.17509489 -0.13283317 0.26513944
v -0.14171942 -0.09084659 0.28260265
v -0.16683781 -0.13283317 0.26933019
v -0.16158104 -0.13283317 0.27195074
v -0.11382387 -0.12232972 0.28984895
v -0.10534363 -0.12232972 0.29197083
v -0.10011167 -0.12232972 0.29311666
v 0.02255435 -0.17458847 0.30230447
v 0.03314225 -0.17790822 0.30265460
v -0.05652023 -0.19113276 0.29008233
v 0.07822146 -0.18177218 0.30462796
v -0.05652023 -0.19612599 0.28756789
v -0.04739528 -0.18231640 0.29312727
v -0.04032841 -0.18373137 0.29376382
v -0.00883744 -0.17481977 0.29881395
v 0.00165128 -0.17481977 0.30003404
v -0.09309438 -0.13310529 0.29349859
v -0.09678900 -0.13677877 0.29250130
v 0.07822146 -0.18503750 0.28071415
v -0.05652023 -0.20394916 0.26645500
v -0.17509489 -0.15030264 0.22683917
v 0.07822146 -0.18812595 0.28744059
v -0.11382387 -0.13283317 0.28938213
v -0.10308719 -0.13310529 0.29180110
v -0.17509489 -0.13963593 0.26387691
v -0.16125870 -0.13827538 0.27179159
v -0.15580357 -0.13283317 0.27455005
v -0.14531484 -0.13283317 0.27915457
v -0.13894226 -0.13283317 0.28180695
v -0.13368551 -0.13283317 0.28358934
v -0.12431260 -0.13283317 0.28649634
v -0.12431260 -0.12232972 0.28684644
v -0.13192498 -0.13944545 0.28297397
v -0.05084193 -0.18560893 0.29203448
v 0.07822146 -0.18622118 0.29794399
v -0.05652023 -0.20008519 0.28517014
v -0.05652023 -0.20216684 0.28337714
v -0.17509489 -0.15030264 0.25971798
v -0.05652023 -0.20453419 0.27203560
v -0.05652023 -0.20456140 0.27695841
v 0.07822146 -0.18767697 0.29049611
v -0.17509489 -0.14145907 0.26332520
v -0.05652023 -0.20336412 0.28104307
f 1 2 6
f 1 6 14
f 1 14 20
f 1 20 27
f 1 27 39
f 1 39 38
f 1 38 29
f 1 29 16
f 1 16 8
f 1 8 7
f 1 7 3
f 1 3 4
f 1 4 5
f 1 5 2
f 2 5 6
f 3 7 4
f 4 7 8
f 4 8 9
f 4 9 10
f 4 10 11
f 4 11 12
f 4 12 5
f 5 13 6
f 5 12 13
f 6 13 15
f 6 15 14
f 8 16 17
f 8 17 9
f 9 17 10
f 10 17 18
f 10 18 32
f 10 32 31
f 10 31 30
f 10 30 55
f 10 55 85
f 10 85 109
f 10 109 115
f 10 115 96
f 10 96 93
f 10 93 58
f 10 58 35
f 10 35 24
f 10 24 23
f 10 23 22
f 10 22 21
f 10 21 19
f 10 19 12
f 10 12 11
f 12 19 15
f 12 15 13
f 14 15 20
f 15 19 21
f 15 21 22
f 15 22 23
f 15 23 24
f 15 24 25
f 15 25 36
f 15 36 26
f 15 26 27
f 15 27 20
f 16 28 17
f 16 29 28
f 17 30 31
f 17 31 32
f 17 32 18
f 17 28 33
f 17 33 34
f 17 34 30
f 24 35 36
f 24 36 25
f 26 36 60
f 26 60 37
f 26 37 38
f 26 38 39
f 26 39 27
f 28 29 33
f 29 40 41
f 29 41 42
f 29 42 43
f 29 43 33
f 29 38 44
f 29 44 45
f 29 45 46
f 29 46 47
f 29 47 48
f 29 48 49
f 29 49 50
f 29 50 40
f 30 34 51
f 30 51 52
f 30 52 53
f 30 53 54
f 30 54 55
f 33 43 56
f 33 56 57
f 33 57 51
f 33 51 34
f 35 58 36
f 36 58 59
f 36 59 60
f 37 60 95
f 37 95 112
f 37 112 116
f 37 116 99
f 37 99 75
f 37 75 74
f 37 74 73
f 37 73 72
f 37 72 71
f 37 71 70
f 37 70 69
f 37 69 61
f 37 61 44
f 37 44 62
f 37 62 63
f 37 63 64
f 37 64 65
f 37 65 66
f 37 66 38
f 38 66 65
f 38 65 64
f 38 64 63
f 38 63 62
f 38 62 44
f 40 56 41
f 40 50 67
f 40 67 56
f 41 56 68
f 41 68 42
f 42 68 43
f 43 68 56
f 44 61 69
f 44 69 70
f 44 70 45
f 45 70 71
f 45 71 72
f 45 72 73
f 45 73 74
f 45 74 75
f 45 75 46
f 46 76 47
f 46 75 77
f 46 77 78
f 46 78 76
f 47 76 79
f 47 79 80
f 47 80 81
f 47 81 48
f 48 81 49
f 49 81 67
f 49 67 50
f 51 57 82
f 51 82 83
f 51 83 52
f 52 83 53
f 53 83 84
f 53 84 54
f 54 85 55
f 54 84 86
f 54 86 85
f 56 87 88
f 56 88 89
f 56 89 90
f 56 90 57
f 56 67 91
f 56 91 92
f 56 92 87
f 57 90 88
f 57 88 82
f 58 93 59
f 59 94 95
f 59 95 60
f 59 93 96
f 59 96 94
f 67 81 80
f 67 80 97
f 67 97 98
f 67 98 92
f 67 92 91
f 75 99 100
f 75 100 77
f 76 78 101
f 76 101 102
f 76 102 103
f 76 103 104
f 76 104 105
f 76 105 106
f 76 106 79
f 77 100 78
f 78 100 101
f 79 106 105
f 79 105 97
f 79 97 80
f 82 88 83
f 83 88 84
f 84 92 97
f 84 97 107
f 84 107 100
f 84 100 86
f 84 88 108
f 84 108 92
f 85 86 110
f 85 110 111
f 85 111 109
f 86 100 112
f 86 112 110
f 87 108 88
f 87 92 108
f 88 90 89
f 92 98 97
f 94 96 113
f 94 113 95
f 95 113 114
f 95 114 112
f 96 115 114
f 96 114 113
f 97 105 107
f 99 116 100
f 100 107 103
f 100 103 102
f 100 102 101
f 100 116 112
f 103 107 104
f 104 107 105
f 109 111 117
f 109 117 114
f 109 114 115
f 110 112 111
f 111 112 117
f 112 114 117

