# https://github.com/mikedh/trimesh
v 0.06480066 -0.13249395 0.28746315
v 0.06480066 -0.13162759 0.29794355
v 0.06480066 -0.12991456 0.27908157
v 0.07824276 -0.18813797 0.28745642
v 0.06480066 -0.12900881 0.30504293
v 0.07824276 -0.18768509 0.29051348
v 0.07824276 -0.18624772 0.29795028
v 0.06480066 -0.11967575 0.25631896
v 0.22596390 -0.26469279 0.29223434
v 0.22596390 -0.26672085 0.29795028
v 0.22596390 -0.26609078 0.30327484
v 0.22596390 -0.26579544 0.30542761
v 0.07824276 -0.18506632 0.28072145
v 0.06480066 -0.12894975 0.30509018
v 0.07824276 -0.18177808 0.30463804
v 0.06480066 -0.10163968 0.25631896
v 0.08568956 -0.11788395 0.25631896
v 0.22596390 -0.24161607 0.28335336
v 0.22596390 -0.25211085 0.28563433
v 0.07824276 -0.17441401 0.27271102
v 0.07824276 -0.17687527 0.27406069
v 0.07824276 -0.18368801 0.27798157
v 0.22596390 -0.26412176 0.29144477
v 0.22596390 -0.26067601 0.31059017
v 0.06480066 -0.12233390 0.30942944
v 0.07824276 -0.17961219 0.30544785
v 0.22596390 -0.25553692 0.31461228
v 0.06480066 -0.09463003 0.28665333
v 0.11632872 -0.06556756 0.30432086
v 0.11894772 -0.06556756 0.30077790
v 0.12265534 -0.06556756 0.29911104
v 0.13344689 -0.06556756 0.29477175
v 0.14253451 -0.06556756 0.29257849
v 0.14460131 -0.06556756 0.29229508
v 0.15452511 -0.06556756 0.29099263
v 0.15914782 -0.06556756 0.29043925
v 0.20114649 -0.08925466 0.25631896
v 0.09278926 -0.11725387 0.25631896
v 0.11755933 -0.11496983 0.25631896
v 0.12768825 -0.11400502 0.25631896
v 0.22596390 -0.10457349 0.25631896
v 0.22596390 -0.26142423 0.28999383
v 0.06480066 -0.12223545 0.30945645
v 0.07824276 -0.17482751 0.30712147
v 0.22596390 -0.24817285 0.31644111
v 0.06480066 -0.09333049 0.29794355
v 0.11438813 -0.06556756 0.30844417
v 0.16539556 -0.06556756 0.29007482
v 0.22580612 -0.08712813 0.25631896
v 0.21127540 -0.08836860 0.25631896
v 0.22596390 -0.08712813 0.25631896
v 0.06480066 -0.11183912 0.31179143
v 0.22214585 -0.23781590 0.31760860
v 0.22596390 -0.23750085 0.31718346
v 0.06480066 -0.09504352 0.30456381
v 0.11833241 -0.06556756 0.31707547
v 0.22214585 -0.06556756 0.29179568
v 0.22596390 -0.06556756 0.29191716
v 0.14131967 -0.06556756 0.32417488
v 0.13576613 -0.06556756 0.32334481
v 0.12778291 -0.06556756 0.32125279
v 0.06480066 -0.11174066 0.31177118
v 0.22596390 -0.07462497 0.32515339
v 0.16965537 -0.06854075 0.32468100
v 0.15914782 -0.06556756 0.32464051
v 0.06480066 -0.09508290 0.30463804
v 0.06480066 -0.10134433 0.30885582
v 0.22596390 -0.06556756 0.32497793
v 0.22596390 -0.06946618 0.32525462
v 0.22596390 -0.06783191 0.32514663
v 0.22596390 -0.06580384 0.32500494
f 1 2 5
f 1 5 14
f 1 14 25
f 1 25 43
f 1 43 52
f 1 52 62
f 1 62 67
f 1 67 66
f 1 66 55
f 1 55 46
f 1 46 28
f 1 28 16
f 1 16 8
f 1 8 3
f 1 3 4
f 1 4 2
f 2 4 6
f 2 6 7
f 2 7 5
f 3 8 4
f 4 9 10
f 4 10 11
f 4 11 12
f 4 12 6
f 4 8 13
f 4 13 9
f 5 7 15
f 5 15 14
f 6 12 7
f 7 12 15
f 8 16 37
f 8 37 50
f 8 50 49
f 8 49 51
f 8 51 41
f 8 41 40
f 8 40 39
f 8 39 38
f 8 38 17
f 8 17 18
f 8 18 19
f 8 19 20
f 8 20 21
f 8 21 22
f 8 22 13
f 9 13 22
f 9 22 23
f 9 23 42
f 9 42 19
f 9 19 18
f 9 18 41
f 9 41 51
f 9 51 58
f 9 58 68
f 9 68 71
f 9 71 70
f 9 70 69
f 9 69 63
f 9 63 54
f 9 54 45
f 9 45 27
f 9 27 24
f 9 24 12
f 9 12 11
f 9 11 10
f 12 24 15
f 14 15 25
f 15 26 25
f 15 24 27
f 15 27 26
f 16 28 29
f 16 29 30
f 16 30 31
f 16 31 32
f 16 32 33
f 16 33 34
f 16 34 35
f 16 35 36
f 16 36 37
f 17 38 18
f 18 38 39
f 18 39 40
f 18 40 41
f 19 42 20
f 20 42 23
f 20 23 21
f 21 23 22
f 25 26 44
f 25 44 43
f 26 27 44
f 27 45 44
f 28 46 47
f 28 47 29
f 29 47 56
f 29 56 61
f 29 61 60
f 29 60 59
f 29 59 65
f 29 65 68
f 29 68 58
f 29 58 57
f 29 57 48
f 29 48 36
f 29 36 35
f 29 35 34
f 29 34 33
f 29 33 32
f 29 32 31
f 29 31 30
f 36 48 49
f 36 49 50
f 36 50 37
f 43 44 52
f 44 45 53
f 44 53 52
f 45 54 53
f 46 55 47
f 47 55 56
f 48 57 51
f 48 51 49
f 51 57 58
f 52 59 60
f 52 60 61
f 52 61 62
f 52 53 59
f 53 54 63
f 53 63 64
f 53 64 65
f 53 65 59
f 55 66 56
f 56 66 67
f 56 67 61
f 61 67 62
f 63 69 65
f 63 65 64
f 65 69 70
f 65 70 71
f 65 71 68

