# https://github.com/mikedh/trimesh
v -0.21116619 -0.25352422 0.16588721
v -0.20813004 -0.25352422 0.16623761
v -0.21445777 -0.25352422 0.16599671
v -0.22932505 -0.19621312 -0.00911038
v -0.20465849 -0.25352422 0.16713549
v -0.21986828 -0.25352422 0.17123065
v -0.23997190 -0.19477563 -0.00911038
v -0.23201869 -0.19590766 -0.00911038
v -0.22176660 -0.19282603 -0.00911038
v -0.19911447 -0.25352422 0.17245703
v -0.20421148 -0.25352422 0.16731068
v -0.22425125 -0.25352422 0.17672738
v -0.24187022 -0.19383227 -0.00911038
v -0.22084357 -0.19128071 -0.00911038
v -0.19278674 -0.25352422 0.18428266
v -0.19675172 -0.25352422 0.17541343
v -0.22509302 -0.25352422 0.18244312
v -0.24607324 -0.19171197 -0.00652626
v -0.24587004 -0.19146041 -0.00911038
v -0.21764485 -0.18533309 -0.00911038
v -0.19224685 -0.25352422 0.18627550
v -0.22476212 -0.25352422 0.19166273
v -0.24907456 -0.18533309 0.00396352
v -0.24899327 -0.18533309 -0.00652626
v -0.24639251 -0.19218813 0.00396352
v -0.24862754 -0.18550379 -0.00911038
v -0.21711077 -0.18277255 -0.00911038
v -0.19229909 -0.25232930 0.18634120
v -0.19213654 -0.25352422 0.18783035
v -0.21653605 -0.17483039 -0.00911038
v -0.22308439 -0.25352422 0.19645869
v -0.22408290 -0.20110061 0.20870043
v -0.22524396 -0.17483039 0.21148164
v -0.23053836 -0.16174920 0.19275770
v -0.23294753 -0.16174920 0.18049409
v -0.23364416 -0.16174920 0.17650840
v -0.24102265 -0.16174920 0.13365139
v -0.23485166 -0.21251971 0.14722897
v -0.24515019 -0.19082252 0.06245665
v -0.25116444 -0.17483039 -0.00652626
v -0.25121670 -0.17483039 -0.00911038
v -0.19798244 -0.16174920 0.20326938
v -0.21344766 -0.17978076 0.01821999
v -0.19213654 -0.25352422 0.19089625
v -0.19707102 -0.17483039 0.21461323
v -0.19701297 -0.17574680 0.21461323
v -0.21685535 -0.17226986 -0.00911038
v -0.21823120 -0.25352422 0.20252481
v -0.22068682 -0.19665336 0.21461323
v -0.22105255 -0.19486547 0.21461323
v -0.22257933 -0.18562059 0.21461323
v -0.22296249 -0.18563856 0.21397815
v -0.22488984 -0.16433669 0.21021148
v -0.22764733 -0.16433669 0.20344458
v -0.22288121 -0.18316787 0.21461323
v -0.22367653 -0.17483039 0.21461323
v -0.22729901 -0.16174920 0.20359789
v -0.22540651 -0.16174022 0.02496499
v -0.24238109 -0.16174920 0.12335870
v -0.25144310 -0.16174920 -0.00911038
v -0.19940473 -0.16174920 0.21084656
v -0.21863756 -0.16174920 -0.00908848
v -0.19261258 -0.25352422 0.19542943
v -0.19656015 -0.18533309 0.21461323
v -0.19999686 -0.16174920 0.21356207
v -0.20039163 -0.16452535 0.21461323
v -0.21863756 -0.16176717 -0.00911038
v -0.21271620 -0.25352422 0.20845953
v -0.21708755 -0.20413731 0.21461323
v -0.22333983 -0.16174920 0.21110935
v -0.22456474 -0.16174920 0.20957640
v -0.21974056 -0.16174920 0.21461323
v -0.24292098 -0.16174920 -0.00911038
v -0.20270212 -0.16174920 0.21461323
v -0.19286220 -0.25352422 0.19691858
v -0.19665304 -0.18624050 0.21461323
v -0.20611561 -0.25352422 0.20968589
v -0.21640833 -0.20502676 0.21461323
v -0.19734385 -0.25352422 0.20366357
v -0.19825529 -0.19583578 0.21461323
v -0.19996784 -0.25352422 0.20747405
v -0.20303302 -0.25352422 0.20968589
v -0.20837966 -0.20743456 0.21461323
v -0.19847589 -0.19662640 0.21461323
v -0.20235961 -0.25352422 0.20959831
v -0.20120436 -0.20373301 0.21461323
v -0.20692255 -0.20742558 0.21461323
f 1 2 5
f 1 5 11
f 1 11 10
f 1 10 16
f 1 16 15
f 1 15 21
f 1 21 29
f 1 29 44
f 1 44 63
f 1 63 75
f 1 75 79
f 1 79 81
f 1 81 85
f 1 85 82
f 1 82 77
f 1 77 68
f 1 68 48
f 1 48 31
f 1 31 22
f 1 22 17
f 1 17 12
f 1 12 6
f 1 6 3
f 1 3 4
f 1 4 2
f 2 4 5
f 3 6 7
f 3 7 8
f 3 8 4
f 4 8 7
f 4 7 13
f 4 13 19
f 4 19 26
f 4 26 41
f 4 41 60
f 4 60 73
f 4 73 67
f 4 67 47
f 4 47 30
f 4 30 27
f 4 27 20
f 4 20 14
f 4 14 9
f 4 9 10
f 4 10 11
f 4 11 5
f 6 12 7
f 7 12 13
f 9 14 15
f 9 15 16
f 9 16 10
f 12 17 18
f 12 18 19
f 12 19 13
f 14 20 15
f 15 20 21
f 17 22 23
f 17 23 24
f 17 24 25
f 17 25 18
f 18 25 24
f 18 24 26
f 18 26 19
f 20 27 21
f 21 28 29
f 21 27 30
f 21 30 28
f 22 31 32
f 22 32 33
f 22 33 34
f 22 34 35
f 22 35 36
f 22 36 37
f 22 37 38
f 22 38 39
f 22 39 23
f 23 39 40
f 23 40 41
f 23 41 24
f 24 41 26
f 28 42 29
f 28 30 43
f 28 43 42
f 29 42 45
f 29 45 46
f 29 46 44
f 30 47 42
f 30 42 43
f 31 48 49
f 31 49 50
f 31 50 32
f 32 50 51
f 32 51 52
f 32 52 33
f 33 53 54
f 33 54 34
f 33 52 55
f 33 55 56
f 33 56 53
f 34 54 57
f 34 57 58
f 34 58 35
f 35 58 36
f 36 58 37
f 37 58 59
f 37 59 38
f 38 59 39
f 39 59 40
f 40 60 41
f 40 59 60
f 42 61 45
f 42 47 62
f 42 62 58
f 42 58 61
f 44 46 64
f 44 64 63
f 45 65 66
f 45 66 74
f 45 74 72
f 45 72 56
f 45 56 55
f 45 55 51
f 45 51 50
f 45 50 49
f 45 49 69
f 45 69 78
f 45 78 83
f 45 83 87
f 45 87 86
f 45 86 84
f 45 84 80
f 45 80 76
f 45 76 64
f 45 64 46
f 45 61 65
f 47 67 62
f 48 68 49
f 49 68 69
f 51 55 52
f 53 56 70
f 53 70 71
f 53 71 57
f 53 57 54
f 56 72 70
f 57 71 58
f 58 62 73
f 58 73 60
f 58 60 59
f 58 71 70
f 58 70 72
f 58 72 74
f 58 74 65
f 58 65 61
f 62 67 73
f 63 64 75
f 64 76 75
f 65 74 66
f 68 77 69
f 69 77 78
f 75 76 79
f 76 80 81
f 76 81 79
f 77 82 83
f 77 83 78
f 80 84 85
f 80 85 81
f 82 85 86
f 82 86 87
f 82 87 83
f 84 86 85

