# https://github.com/mikedh/trimesh
v 0.24494692 -1.37607735 0.24298716
v 0.27788155 -1.39561378 0.24298716
v 0.30242105 -1.39011054 0.45626768
v 0.30242105 -1.37607735 0.45642110
v 0.24494692 1.37607735 0.24298716
v 0.31200013 -1.40166733 0.24298716
v 0.34428899 -1.40524440 0.44202511
v 0.31641288 -1.39781498 0.44202511
v 0.31641288 -1.39396280 0.46278806
v 0.31641288 -1.37607735 0.46981986
v 0.31641288 -1.34828618 0.46994769
v 0.30242105 1.37607735 0.45642110
v 0.30242105 1.39011054 0.45626768
v 0.27788155 1.39561378 0.24298716
v 0.33987615 -1.40524440 0.24298716
v 0.59452766 -1.40524440 0.50421168
v 0.56665161 -1.40496913 0.50421168
v 0.34428899 -1.39781498 0.46915502
v 0.34428899 -1.37607735 0.48268163
v 0.34428899 -1.34828618 0.48296289
v 0.31641288 1.34828618 0.46994769
v 0.31641288 1.37607735 0.46981986
v 0.31641288 1.39396280 0.46278806
v 0.31641288 1.39781498 0.44202511
v 0.34428899 1.40524440 0.44202511
v 0.31641288 1.40194244 0.24298716
v 1.26172323 -1.40524440 0.24298716
v 1.01148452 -1.40524440 0.50421168
v 0.54706304 -1.39891575 0.50421168
v 0.54092815 -1.39643927 0.50421168
v 0.53307119 -1.37607735 0.50421168
v 0.53274831 -1.34828618 0.50421168
v 0.34428899 1.34828618 0.48296289
v 0.34428899 1.37607735 0.48268163
v 0.34428899 1.39781498 0.46915502
v 0.34428899 1.40524440 0.24298716
v 0.56665161 1.40496913 0.50421168
v 0.58796226 1.40524440 0.50421168
v 1.30445212 -1.39698949 0.24298716
v 1.26172323 -1.40524440 0.44202511
v 1.26172323 -1.39781498 0.46915502
v 1.26172323 -1.37607735 0.48257936
v 1.03806900 -1.39698949 0.50421168
v 0.53274831 1.35158806 0.50421168
v 0.53307119 1.37607735 0.50421168
v 0.53414749 1.37965443 0.50421168
v 0.54092815 1.39643927 0.50421168
v 1.26613598 1.40524440 0.24298716
v 1.01148452 1.40524440 0.50421168
v 1.34427506 -1.37607735 0.24298716
v 1.28367961 -1.39781498 0.44202511
v 1.28098885 -1.39506340 0.46475697
v 1.28389489 -1.37607735 0.46918060
v 1.26172323 -1.34828618 0.48273278
v 1.04732516 -1.37607735 0.50421168
v 1.04646412 -1.37827864 0.50421168
v 1.30445212 1.39698949 0.24298716
v 1.26172323 1.40524440 0.44202511
v 1.03171887 1.39919085 0.50421168
v 1.26172323 1.37607735 0.48257936
v 1.26172323 1.39781498 0.46915502
v 1.29207473 -1.37607735 0.44202511
v 1.34449034 -1.34828618 0.24298716
v 1.29239765 -1.34828618 0.44202511
v 1.28400253 -1.34828618 0.46920616
v 1.04797092 -1.34856129 0.50421168
v 1.26172323 1.34828618 0.48273278
v 1.28367961 1.39781498 0.44202511
v 1.34427506 1.37607735 0.24298716
v 1.28098885 1.39506340 0.46475697
v 1.03806900 1.39698949 0.50421168
v 1.28389489 1.37607735 0.46918060
v 1.04732516 1.37607735 0.50421168
v 1.34449034 1.37552706 0.24298716
v 1.29239765 1.34828618 0.44202511
v 1.28400253 1.34828618 0.46920616
v 1.04797092 1.34828618 0.50421168
v 1.29207473 1.37607735 0.44202511
f 1 2 3
f 1 3 4
f 1 4 12
f 1 12 5
f 1 5 14
f 1 14 26
f 1 26 36
f 1 36 48
f 1 48 57
f 1 57 69
f 1 69 74
f 1 74 63
f 1 63 50
f 1 50 39
f 1 39 27
f 1 27 15
f 1 15 6
f 1 6 2
f 2 6 7
f 2 7 8
f 2 8 3
f 3 8 9
f 3 9 10
f 3 10 4
f 4 10 11
f 4 11 21
f 4 21 12
f 5 12 13
f 5 13 14
f 6 15 7
f 7 15 27
f 7 27 40
f 7 40 28
f 7 28 16
f 7 16 17
f 7 17 18
f 7 18 9
f 7 9 8
f 9 19 10
f 9 18 19
f 10 19 20
f 10 20 11
f 11 20 33
f 11 33 21
f 12 21 22
f 12 22 13
f 13 23 24
f 13 24 14
f 13 22 23
f 14 24 25
f 14 25 26
f 16 28 43
f 16 43 56
f 16 56 55
f 16 55 66
f 16 66 77
f 16 77 73
f 16 73 71
f 16 71 59
f 16 59 49
f 16 49 38
f 16 38 37
f 16 37 47
f 16 47 46
f 16 46 45
f 16 45 44
f 16 44 32
f 16 32 31
f 16 31 30
f 16 30 29
f 16 29 17
f 17 29 19
f 17 19 18
f 19 29 30
f 19 30 31
f 19 31 20
f 20 31 32
f 20 32 44
f 20 44 33
f 21 33 22
f 22 34 23
f 22 33 34
f 23 34 35
f 23 35 25
f 23 25 24
f 25 36 26
f 25 35 37
f 25 37 38
f 25 38 49
f 25 49 58
f 25 58 48
f 25 48 36
f 27 39 40
f 28 40 41
f 28 41 42
f 28 42 43
f 33 44 45
f 33 45 34
f 34 45 46
f 34 46 47
f 34 47 37
f 34 37 35
f 39 50 51
f 39 51 40
f 40 51 52
f 40 52 41
f 41 52 42
f 42 52 53
f 42 53 54
f 42 54 55
f 42 55 56
f 42 56 43
f 48 58 57
f 49 59 60
f 49 60 61
f 49 61 58
f 50 62 52
f 50 52 51
f 50 63 64
f 50 64 62
f 52 62 53
f 53 62 64
f 53 64 65
f 53 65 54
f 54 66 55
f 54 65 76
f 54 76 67
f 54 67 77
f 54 77 66
f 57 68 69
f 57 58 68
f 58 61 70
f 58 70 68
f 59 71 60
f 60 72 70
f 60 70 61
f 60 71 73
f 60 73 67
f 60 67 72
f 63 74 75
f 63 75 64
f 64 75 76
f 64 76 65
f 67 76 72
f 67 73 77
f 68 70 69
f 69 70 74
f 70 72 78
f 70 78 74
f 72 76 75
f 72 75 78
f 74 78 75

