# https://github.com/mikedh/trimesh
v -0.01529247 -1.37607735 0.02498148
v -0.00925716 -1.37607735 -0.00103356
v -0.00724547 -1.39451318 0.00301155
v -0.00925716 -1.39671438 0.02498148
v -0.01529247 -1.37607735 0.19176606
v -0.01529247 1.37607735 0.02498148
v 0.01055090 -1.34828618 -0.01420544
v 0.01055090 -1.37607735 -0.01395262
v -0.00925716 1.37607735 -0.00103356
v 0.01055090 -1.39726476 -0.00131167
v 0.01055090 -1.40441891 0.02498148
v -0.00925716 -1.39671438 0.19176606
v -0.00863816 -1.39616400 0.21957612
v -0.01389969 -1.37607735 0.21957612
v -0.01529247 1.37607735 0.19176606
v -0.00925716 1.39671438 0.02498148
v -0.00724547 1.39451318 0.00301155
v 0.03840596 -1.34828618 -0.01526725
v 0.01055090 1.34828618 -0.01420544
v 0.03840596 -1.37607735 -0.01481221
v 0.01055090 1.37607735 -0.01395262
v 0.03840596 -1.39781498 -0.00161504
v 0.03840596 -1.40524440 0.02498148
v 0.01055090 -1.40441891 0.19176606
v 0.01055090 -1.40276793 0.21957612
v -0.00647168 -1.39368769 0.23638858
v -0.00801917 -1.37607735 0.23782965
v -0.01389969 1.37607735 0.21957612
v -0.00863816 1.39616400 0.21957612
v -0.00925716 1.39671438 0.19176606
v 0.01055090 1.40441891 0.02498148
v 0.01055090 1.39726476 -0.00131167
v 1.51194006 -1.34828618 -0.01526725
v 0.03840596 1.34828618 -0.01526725
v 1.51194006 -1.37607735 -0.01481221
v 0.03840596 1.37607735 -0.01481221
v 1.51194006 -1.39781498 -0.00161504
v 0.03840596 -1.40524440 0.19176606
v 1.51194006 -1.40524440 0.02498148
v 0.01055090 -1.39561378 0.23798133
v 0.03840596 -1.40359342 0.21957612
v 0.33985991 -1.40524440 0.24298715
v 0.01055090 -1.37607735 0.24250679
v -0.00801917 1.37607735 0.23782965
v -0.00647168 1.39368769 0.23638858
v 0.01055090 1.40276793 0.21957612
v 0.01055090 1.40441891 0.19176606
v 0.03840596 1.40524440 0.02498148
v 0.03840596 1.39781498 -0.00161504
v 1.53979512 -1.34828618 -0.01420544
v 1.53979512 -1.37607735 -0.01395262
v 1.51194006 1.34828618 -0.01526725
v 1.53979512 -1.39726476 -0.00131167
v 1.51194006 1.37607735 -0.01481221
v 1.53979512 -1.40441891 0.02498148
v 1.51194006 -1.40524440 0.19176606
v 1.26170852 -1.40524440 0.24298715
v 0.31200481 -1.40166733 0.24298715
v 0.03840596 -1.37607735 0.24283545
v 0.01055090 1.37607735 0.24250679
v 0.01055090 1.39561378 0.23798133
v 0.34434766 1.40524440 0.24298715
v 0.03840596 1.40359342 0.21957612
v 0.03840596 1.40524440 0.19176606
v 1.51194006 1.40524440 0.02498148
v 1.51194006 1.39781498 -0.00161504
v 1.55960317 -1.37607735 -0.00103356
v 1.53979512 1.34828618 -0.01420544
v 1.55759149 -1.39451318 0.00301155
v 1.53979512 1.37607735 -0.01395262
v 1.53979512 1.39726476 -0.00131167
v 1.53979512 -1.40441891 0.19176606
v 1.55960317 -1.39671438 0.02498148
v 1.51194006 -1.40359342 0.21957612
v 1.53979512 -1.40276793 0.21957612
v 1.53979512 -1.39561378 0.23798133
v 1.53979512 -1.37607735 0.24250679
v 1.51194006 -1.37607735 0.24283545
v 1.30441964 -1.39698949 0.24298715
v 0.27780494 -1.39561378 0.24298715
v 0.24499784 -1.37607735 0.24298715
v 0.03840596 1.37607735 0.24283545
v 0.31649256 1.40194244 0.24298715
v 1.26604156 1.40524440 0.24298715
v 1.53979512 1.40441891 0.02498148
v 1.51194006 1.40524440 0.19176606
v 1.56563849 -1.37607735 0.02498148
v 1.55960317 1.37607735 -0.00103356
v 1.55759149 1.39451318 0.00301155
v 1.55960317 -1.39671438 0.19176606
v 1.55898418 -1.39616400 0.21957612
v 1.55681770 -1.39368769 0.23638858
v 1.55836519 -1.37607735 0.23782965
v 1.53979512 1.37607735 0.24250679
v 1.34434529 -1.34828618 0.24298715
v 1.34419054 -1.37607735 0.24298715
v 1.51194006 1.37607735 0.24283545
v 0.24499784 1.37607735 0.24298715
v 0.27780494 1.39561378 0.24298715
v 1.29420612 1.39919085 0.24298715
v 1.53979512 1.39561378 0.23798133
v 1.53979512 1.40276793 0.21957612
v 1.51194006 1.40359342 0.21957612
v 1.53979512 1.40441891 0.19176606
v 1.55960317 1.39671438 0.02498148
v 1.56563849 -1.37607735 0.19176606
v 1.56563849 1.37607735 0.02498148
v 1.56424571 -1.37607735 0.21957612
v 1.55836519 1.37607735 0.23782965
v 1.55681770 1.39368769 0.23638858
v 1.34434529 1.37552706 0.24298715
v 1.30441964 1.39698949 0.24298715
v 1.34419054 1.37607735 0.24298715
v 1.55898418 1.39616400 0.21957612
v 1.55960317 1.39671438 0.19176606
v 1.56563849 1.37607735 0.19176606
v 1.56424571 1.37607735 0.21957612
f 1 2 3
f 1 3 4
f 1 4 12
f 1 12 5
f 1 5 15
f 1 15 6
f 1 6 9
f 1 9 2
f 2 7 8
f 2 8 3
f 2 9 19
f 2 19 7
f 3 8 10
f 3 10 11
f 3 11 4
f 4 11 24
f 4 24 12
f 5 12 13
f 5 13 14
f 5 14 28
f 5 28 15
f 6 15 30
f 6 30 16
f 6 16 17
f 6 17 9
f 7 18 8
f 7 19 34
f 7 34 18
f 8 18 20
f 8 20 10
f 9 17 21
f 9 21 19
f 10 20 22
f 10 22 23
f 10 23 11
f 11 23 38
f 11 38 24
f 12 24 13
f 13 24 25
f 13 25 26
f 13 26 14
f 14 26 27
f 14 27 44
f 14 44 28
f 15 28 29
f 15 29 30
f 16 30 47
f 16 47 31
f 16 31 17
f 17 31 32
f 17 32 21
f 18 33 35
f 18 35 20
f 18 34 52
f 18 52 33
f 19 21 34
f 20 35 37
f 20 37 22
f 21 32 36
f 21 36 34
f 22 37 39
f 22 39 23
f 23 39 56
f 23 56 57
f 23 57 42
f 23 42 38
f 24 38 41
f 24 41 25
f 25 40 26
f 25 41 42
f 25 42 40
f 26 40 43
f 26 43 27
f 27 43 60
f 27 60 44
f 28 44 45
f 28 45 29
f 29 46 47
f 29 47 30
f 29 45 46
f 31 47 64
f 31 64 48
f 31 48 32
f 32 48 49
f 32 49 36
f 33 50 51
f 33 51 35
f 33 52 68
f 33 68 50
f 34 36 54
f 34 54 52
f 35 51 53
f 35 53 37
f 36 49 66
f 36 66 54
f 37 53 39
f 38 42 41
f 39 53 55
f 39 55 72
f 39 72 56
f 40 42 43
f 42 57 79
f 42 79 96
f 42 96 95
f 42 95 111
f 42 111 113
f 42 113 112
f 42 112 100
f 42 100 84
f 42 84 62
f 42 62 83
f 42 83 99
f 42 99 98
f 42 98 81
f 42 81 80
f 42 80 58
f 42 58 59
f 42 59 43
f 43 59 82
f 43 82 60
f 44 60 45
f 45 61 46
f 45 60 61
f 46 61 62
f 46 62 63
f 46 63 64
f 46 64 47
f 48 64 62
f 48 62 84
f 48 84 86
f 48 86 65
f 48 65 66
f 48 66 49
f 50 67 51
f 50 68 88
f 50 88 67
f 51 67 69
f 51 69 53
f 52 54 70
f 52 70 68
f 53 69 55
f 54 66 71
f 54 71 70
f 55 69 73
f 55 73 90
f 55 90 72
f 56 72 75
f 56 75 74
f 56 74 57
f 57 74 75
f 57 75 76
f 57 76 77
f 57 77 78
f 57 78 79
f 58 80 59
f 59 80 81
f 59 81 98
f 59 98 82
f 60 82 62
f 60 62 61
f 62 64 63
f 62 82 83
f 65 85 71
f 65 71 66
f 65 86 104
f 65 104 85
f 67 87 69
f 67 88 107
f 67 107 87
f 68 70 88
f 69 87 73
f 70 71 89
f 70 89 88
f 71 85 89
f 72 90 91
f 72 91 75
f 73 87 106
f 73 106 90
f 75 91 92
f 75 92 76
f 76 92 77
f 77 92 93
f 77 93 109
f 77 109 94
f 77 94 97
f 77 97 78
f 78 95 96
f 78 96 79
f 78 97 111
f 78 111 95
f 82 98 99
f 82 99 83
f 84 100 97
f 84 97 94
f 84 94 101
f 84 101 102
f 84 102 103
f 84 103 86
f 85 104 115
f 85 115 105
f 85 105 89
f 86 103 102
f 86 102 104
f 87 107 116
f 87 116 106
f 88 89 107
f 89 105 107
f 90 106 91
f 91 106 108
f 91 108 92
f 92 108 93
f 93 108 117
f 93 117 109
f 94 109 110
f 94 110 101
f 97 100 112
f 97 112 113
f 97 113 111
f 101 110 102
f 102 110 114
f 102 114 104
f 104 114 115
f 105 115 116
f 105 116 107
f 106 116 117
f 106 117 108
f 109 117 110
f 110 117 114
f 114 117 116
f 114 116 115

