# https://github.com/mikedh/trimesh
v 0.53269053 -1.34828618 0.50421170
v 0.53304366 -1.37607735 0.50421170
v 0.53919830 -1.37607735 0.66446327
v 0.53269053 1.35158806 0.50421170
v 0.54096401 -1.39643927 0.50421170
v 0.54600881 -1.39726476 0.66446327
v 0.54822853 -1.39478829 0.68668064
v 0.54600881 -1.37607735 0.69084149
v 0.53919830 1.37607735 0.66446327
v 0.53304366 1.37607735 0.50421170
v 0.54706822 -1.39891575 0.50421170
v 0.56664202 -1.40496913 0.66446327
v 0.56664202 -1.39753987 0.69093962
v 0.56664202 -1.37607735 0.70377544
v 0.56664202 -1.34828618 0.70401098
v 0.54600881 1.37607735 0.69084149
v 0.54822853 1.39478829 0.68668064
v 0.54600881 1.39726476 0.66446327
v 0.53415350 1.37965443 0.50421170
v 0.56664202 -1.40496913 0.50421170
v 0.59448933 -1.39781498 0.69105737
v 0.59448933 -1.40524440 0.66446327
v 0.59448933 -1.37607735 0.70422684
v 0.59448933 -1.34828618 0.70471752
v 0.56664202 1.34828618 0.70401098
v 0.56664202 1.37607735 0.70377544
v 0.56664202 1.39753987 0.69093962
v 0.56664202 1.40496913 0.66446327
v 0.54096401 1.39643927 0.50421170
v 0.59448933 -1.40524440 0.50421170
v 1.01149243 -1.39781498 0.69105737
v 1.01149243 -1.40524440 0.66446327
v 0.98369558 -1.37607735 0.70422684
v 0.98369558 -1.34828618 0.70471752
v 0.59448933 1.34828618 0.70471752
v 0.59448933 1.37607735 0.70422684
v 0.59448933 1.39781498 0.69105737
v 0.59448933 1.40524440 0.66446327
v 0.58788064 1.40524440 0.50421170
v 0.56664202 1.40496913 0.50421170
v 1.01149243 -1.40524440 0.50421170
v 1.03091488 -1.39506340 0.68681803
v 1.01149243 -1.37607735 0.70405022
v 1.03807851 -1.39698949 0.50421170
v 1.03363907 -1.39781498 0.66446327
v 1.01149243 -1.34828618 0.70436423
v 0.98369558 1.34828618 0.70471752
v 0.98369558 1.37607735 0.70422684
v 1.01149243 1.39781498 0.69105737
v 1.01149243 1.40524440 0.66446327
v 1.01149243 1.40524440 0.50421170
v 1.04236660 -1.37607735 0.66446327
v 1.03389131 -1.37607735 0.69111627
v 1.04650334 -1.37827864 0.50421170
v 1.03409313 -1.34828618 0.69119476
v 1.01149243 1.34828618 0.70436423
v 1.01149243 1.37607735 0.70405022
v 1.03091488 1.39506340 0.68681803
v 1.03363907 1.39781498 0.66446327
v 1.03177252 1.39919085 0.50421170
v 1.04731051 -1.37607735 0.50421170
v 1.04801676 -1.34856129 0.50421170
v 1.04277019 -1.34828618 0.66446327
v 1.03409313 1.34828618 0.69119476
v 1.03389131 1.37607735 0.69111627
v 1.04236660 1.37607735 0.66446327
v 1.04731051 1.37607735 0.50421170
v 1.03807851 1.39698949 0.50421170
v 1.04806723 -1.32077012 0.50421170
v 1.04277019 1.34828618 0.66446327
v 1.04806723 1.34828618 0.50421170
f 1 2 3
f 1 3 9
f 1 9 4
f 1 4 10
f 1 10 19
f 1 19 29
f 1 29 40
f 1 40 39
f 1 39 51
f 1 51 60
f 1 60 68
f 1 68 67
f 1 67 71
f 1 71 69
f 1 69 62
f 1 62 61
f 1 61 54
f 1 54 44
f 1 44 41
f 1 41 30
f 1 30 20
f 1 20 11
f 1 11 5
f 1 5 2
f 2 5 6
f 2 6 3
f 3 6 7
f 3 7 8
f 3 8 16
f 3 16 9
f 4 9 10
f 5 11 6
f 6 11 12
f 6 12 7
f 7 12 13
f 7 13 14
f 7 14 8
f 8 14 15
f 8 15 25
f 8 25 16
f 9 16 17
f 9 17 18
f 9 18 19
f 9 19 10
f 11 20 12
f 12 21 13
f 12 20 30
f 12 30 22
f 12 22 21
f 13 21 23
f 13 23 14
f 14 23 24
f 14 24 15
f 15 24 35
f 15 35 25
f 16 25 26
f 16 26 17
f 17 27 28
f 17 28 18
f 17 26 27
f 18 29 19
f 18 28 29
f 21 31 33
f 21 33 23
f 21 22 32
f 21 32 31
f 22 30 41
f 22 41 32
f 23 33 34
f 23 34 24
f 24 34 47
f 24 47 35
f 25 35 26
f 26 36 27
f 26 35 36
f 27 37 28
f 27 36 37
f 28 38 39
f 28 39 40
f 28 40 29
f 28 37 38
f 31 32 42
f 31 42 43
f 31 43 33
f 32 41 44
f 32 44 45
f 32 45 42
f 33 43 34
f 34 43 46
f 34 46 56
f 34 56 47
f 35 47 48
f 35 48 36
f 36 48 49
f 36 49 37
f 37 49 50
f 37 50 38
f 38 50 51
f 38 51 39
f 42 45 52
f 42 52 53
f 42 53 43
f 43 53 46
f 44 54 45
f 45 54 52
f 46 53 55
f 46 55 64
f 46 64 56
f 47 56 57
f 47 57 48
f 48 57 49
f 49 57 58
f 49 58 50
f 50 58 59
f 50 59 60
f 50 60 51
f 52 54 61
f 52 61 62
f 52 62 63
f 52 63 53
f 53 63 55
f 55 63 70
f 55 70 64
f 56 64 65
f 56 65 57
f 57 65 58
f 58 66 59
f 58 65 66
f 59 66 67
f 59 67 68
f 59 68 60
f 62 69 63
f 63 69 71
f 63 71 70
f 64 70 65
f 65 70 66
f 66 70 71
f 66 71 67

